<svg width="589" height="228" viewBox="0 0 589 228" fill="none" xmlns="http://www.w3.org/2000/svg">
<path d="M172.743 62V30.05H195.783V35.405H178.908V43.1H187.593C191.163 43.1 193.848 43.94 195.648 45.62C197.448 47.3 198.348 49.55 198.348 52.37C198.348 54.26 197.958 55.925 197.178 57.365C196.398 58.805 195.243 59.945 193.713 60.785C192.183 61.595 190.248 62 187.908 62H172.743ZM178.908 56.645H187.053C188.253 56.645 189.213 56.435 189.933 56.015C190.653 55.565 191.178 55.01 191.508 54.35C191.838 53.66 192.003 52.94 192.003 52.19C192.003 51.44 191.853 50.75 191.553 50.12C191.283 49.46 190.788 48.935 190.068 48.545C189.348 48.125 188.313 47.915 186.963 47.915H178.908V56.645ZM200.417 62.315V56.96C201.137 56.93 201.782 56.75 202.352 56.42C202.922 56.09 203.417 55.535 203.837 54.755C204.287 53.945 204.632 52.82 204.872 51.38C205.142 49.94 205.322 48.095 205.412 45.845L205.727 38.42H223.412V62H217.382V43.685H211.037L210.947 46.43C210.827 49.52 210.527 52.085 210.047 54.125C209.567 56.165 208.892 57.785 208.022 58.985C207.182 60.155 206.132 60.995 204.872 61.505C203.612 62.015 202.127 62.285 200.417 62.315ZM239.78 62.45C237.86 62.45 236.135 62.135 234.605 61.505C233.075 60.845 231.77 59.945 230.69 58.805C229.64 57.665 228.83 56.36 228.26 54.89C227.69 53.42 227.405 51.875 227.405 50.255C227.405 48.605 227.69 47.045 228.26 45.575C228.83 44.105 229.64 42.8 230.69 41.66C231.77 40.52 233.075 39.635 234.605 39.005C236.135 38.345 237.86 38.015 239.78 38.015C241.7 38.015 243.41 38.345 244.91 39.005C246.44 39.635 247.745 40.52 248.825 41.66C249.905 42.8 250.715 44.105 251.255 45.575C251.825 47.045 252.11 48.605 252.11 50.255C252.11 51.875 251.825 53.42 251.255 54.89C250.715 56.36 249.905 57.665 248.825 58.805C247.775 59.945 246.485 60.845 244.955 61.505C243.425 62.135 241.7 62.45 239.78 62.45ZM233.615 50.255C233.615 51.635 233.885 52.865 234.425 53.945C234.965 54.995 235.7 55.82 236.63 56.42C237.56 57.02 238.61 57.32 239.78 57.32C240.92 57.32 241.955 57.02 242.885 56.42C243.815 55.79 244.55 54.95 245.09 53.9C245.66 52.82 245.945 51.59 245.945 50.21C245.945 48.86 245.66 47.645 245.09 46.565C244.55 45.485 243.815 44.645 242.885 44.045C241.955 43.445 240.92 43.145 239.78 43.145C238.61 43.145 237.56 43.46 236.63 44.09C235.7 44.69 234.965 45.53 234.425 46.61C233.885 47.66 233.615 48.875 233.615 50.255ZM256.18 62V38.42H271.795V43.685H262.21V62H256.18ZM286.187 62.45C284.297 62.45 282.587 62.135 281.057 61.505C279.527 60.845 278.222 59.96 277.142 58.85C276.062 57.71 275.222 56.42 274.622 54.98C274.052 53.51 273.767 51.965 273.767 50.345C273.767 48.095 274.262 46.04 275.252 44.18C276.272 42.32 277.712 40.835 279.572 39.725C281.462 38.585 283.682 38.015 286.232 38.015C288.812 38.015 291.017 38.585 292.847 39.725C294.677 40.835 296.072 42.32 297.032 44.18C298.022 46.01 298.517 47.99 298.517 50.12C298.517 50.48 298.502 50.855 298.472 51.245C298.442 51.605 298.412 51.905 298.382 52.145H280.157C280.277 53.345 280.622 54.395 281.192 55.295C281.792 56.195 282.542 56.885 283.442 57.365C284.372 57.815 285.362 58.04 286.412 58.04C287.612 58.04 288.737 57.755 289.787 57.185C290.867 56.585 291.602 55.805 291.992 54.845L297.167 56.285C296.597 57.485 295.772 58.55 294.692 59.48C293.642 60.41 292.397 61.145 290.957 61.685C289.517 62.195 287.927 62.45 286.187 62.45ZM280.022 48.32H292.352C292.232 47.12 291.887 46.085 291.317 45.215C290.777 44.315 290.057 43.625 289.157 43.145C288.257 42.635 287.252 42.38 286.142 42.38C285.062 42.38 284.072 42.635 283.172 43.145C282.302 43.625 281.582 44.315 281.012 45.215C280.472 46.085 280.142 47.12 280.022 48.32ZM316.32 62.45C314.49 62.45 312.87 62.045 311.46 61.235C310.08 60.395 309 59.27 308.22 57.86V71.585H302.19V38.42H307.455V42.47C308.355 41.09 309.495 40.01 310.875 39.23C312.255 38.42 313.83 38.015 315.6 38.015C317.19 38.015 318.645 38.33 319.965 38.96C321.315 39.59 322.485 40.475 323.475 41.615C324.465 42.725 325.23 44.015 325.77 45.485C326.34 46.925 326.625 48.485 326.625 50.165C326.625 52.445 326.175 54.515 325.275 56.375C324.405 58.235 323.19 59.72 321.63 60.83C320.1 61.91 318.33 62.45 316.32 62.45ZM314.295 57.32C315.225 57.32 316.065 57.125 316.815 56.735C317.565 56.345 318.21 55.82 318.75 55.16C319.32 54.47 319.74 53.705 320.01 52.865C320.31 51.995 320.46 51.095 320.46 50.165C320.46 49.175 320.295 48.26 319.965 47.42C319.665 46.58 319.215 45.845 318.615 45.215C318.015 44.555 317.31 44.045 316.5 43.685C315.72 43.325 314.865 43.145 313.935 43.145C313.365 43.145 312.78 43.25 312.18 43.46C311.61 43.64 311.055 43.91 310.515 44.27C309.975 44.63 309.495 45.05 309.075 45.53C308.685 46.01 308.4 46.535 308.22 47.105V52.64C308.58 53.51 309.06 54.305 309.66 55.025C310.29 55.745 311.01 56.315 311.82 56.735C312.63 57.125 313.455 57.32 314.295 57.32ZM329.091 55.025C329.091 53.495 329.511 52.16 330.351 51.02C331.221 49.85 332.421 48.95 333.951 48.32C335.481 47.69 337.236 47.375 339.216 47.375C340.206 47.375 341.211 47.45 342.231 47.6C343.251 47.75 344.136 47.99 344.886 48.32V47.06C344.886 45.56 344.436 44.405 343.536 43.595C342.666 42.785 341.361 42.38 339.621 42.38C338.331 42.38 337.101 42.605 335.931 43.055C334.761 43.505 333.531 44.165 332.241 45.035L330.306 41.075C331.866 40.055 333.456 39.29 335.076 38.78C336.726 38.27 338.451 38.015 340.251 38.015C343.611 38.015 346.221 38.855 348.081 40.535C349.971 42.215 350.916 44.615 350.916 47.735V55.25C350.916 55.88 351.021 56.33 351.231 56.6C351.471 56.87 351.846 57.035 352.356 57.095V62C351.816 62.09 351.321 62.165 350.871 62.225C350.451 62.285 350.091 62.315 349.791 62.315C348.591 62.315 347.676 62.045 347.046 61.505C346.446 60.965 346.071 60.305 345.921 59.525L345.786 58.31C344.766 59.63 343.491 60.65 341.961 61.37C340.431 62.09 338.871 62.45 337.281 62.45C335.721 62.45 334.311 62.135 333.051 61.505C331.821 60.845 330.846 59.96 330.126 58.85C329.436 57.71 329.091 56.435 329.091 55.025ZM343.761 56.24C344.091 55.88 344.361 55.52 344.571 55.16C344.781 54.8 344.886 54.47 344.886 54.17V51.785C344.166 51.485 343.386 51.26 342.546 51.11C341.706 50.93 340.911 50.84 340.161 50.84C338.601 50.84 337.311 51.185 336.291 51.875C335.301 52.535 334.806 53.42 334.806 54.53C334.806 55.13 334.971 55.7 335.301 56.24C335.631 56.78 336.111 57.215 336.741 57.545C337.371 57.875 338.121 58.04 338.991 58.04C339.891 58.04 340.776 57.875 341.646 57.545C342.516 57.185 343.221 56.75 343.761 56.24ZM356.551 62V38.42H362.851L370.231 52.055L377.656 38.42H383.866V62H378.151V46.745L372.121 57.815H368.341L362.266 46.745V62H356.551Z" fill="white"/>
<rect x="0.5" y="0.5" width="588" height="227" rx="19.5" stroke="white"/>
<path d="M166.596 129V116H167.846V121.775H170.246L174.846 116H176.321L171.246 122.325L176.996 129H175.471L170.246 122.925H167.846V129H166.596ZM184.35 129.25C183.434 129.25 182.584 129.075 181.8 128.725C181.034 128.375 180.367 127.892 179.8 127.275C179.234 126.642 178.792 125.917 178.475 125.1C178.159 124.283 178 123.425 178 122.525C178 121.608 178.159 120.75 178.475 119.95C178.792 119.133 179.234 118.417 179.8 117.8C180.384 117.167 181.059 116.675 181.825 116.325C182.609 115.958 183.45 115.775 184.35 115.775C185.25 115.775 186.084 115.958 186.85 116.325C187.617 116.675 188.292 117.167 188.875 117.8C189.459 118.417 189.909 119.133 190.225 119.95C190.542 120.75 190.7 121.608 190.7 122.525C190.7 123.425 190.542 124.283 190.225 125.1C189.909 125.917 189.459 126.642 188.875 127.275C188.309 127.892 187.634 128.375 186.85 128.725C186.084 129.075 185.25 129.25 184.35 129.25ZM179.25 122.575C179.25 123.592 179.475 124.525 179.925 125.375C180.392 126.208 181.009 126.875 181.775 127.375C182.542 127.875 183.392 128.125 184.325 128.125C185.259 128.125 186.109 127.875 186.875 127.375C187.659 126.858 188.275 126.175 188.725 125.325C189.192 124.458 189.425 123.517 189.425 122.5C189.425 121.483 189.192 120.55 188.725 119.7C188.275 118.85 187.659 118.175 186.875 117.675C186.109 117.158 185.267 116.9 184.35 116.9C183.417 116.9 182.567 117.158 181.8 117.675C181.034 118.192 180.417 118.875 179.95 119.725C179.484 120.575 179.25 121.525 179.25 122.575ZM197.02 129V117.125H192.245V116H203.07V117.125H198.27V129H197.02ZM210.937 129.25C210.02 129.25 209.17 129.075 208.387 128.725C207.62 128.375 206.954 127.892 206.387 127.275C205.82 126.642 205.379 125.917 205.062 125.1C204.745 124.283 204.587 123.425 204.587 122.525C204.587 121.608 204.745 120.75 205.062 119.95C205.379 119.133 205.82 118.417 206.387 117.8C206.97 117.167 207.645 116.675 208.412 116.325C209.195 115.958 210.037 115.775 210.937 115.775C211.837 115.775 212.67 115.958 213.437 116.325C214.204 116.675 214.879 117.167 215.462 117.8C216.045 118.417 216.495 119.133 216.812 119.95C217.129 120.75 217.287 121.608 217.287 122.525C217.287 123.425 217.129 124.283 216.812 125.1C216.495 125.917 216.045 126.642 215.462 127.275C214.895 127.892 214.22 128.375 213.437 128.725C212.67 129.075 211.837 129.25 210.937 129.25ZM205.837 122.575C205.837 123.592 206.062 124.525 206.512 125.375C206.979 126.208 207.595 126.875 208.362 127.375C209.129 127.875 209.979 128.125 210.912 128.125C211.845 128.125 212.695 127.875 213.462 127.375C214.245 126.858 214.862 126.175 215.312 125.325C215.779 124.458 216.012 123.517 216.012 122.5C216.012 121.483 215.779 120.55 215.312 119.7C214.862 118.85 214.245 118.175 213.462 117.675C212.695 117.158 211.854 116.9 210.937 116.9C210.004 116.9 209.154 117.158 208.387 117.675C207.62 118.192 207.004 118.875 206.537 119.725C206.07 120.575 205.837 121.525 205.837 122.575ZM226.632 129.25C225.515 129.25 224.515 128.958 223.632 128.375C222.765 127.775 222.065 127.05 221.532 126.2V134.325H220.282V116H221.432V118.6C221.965 117.767 222.674 117.092 223.557 116.575C224.44 116.042 225.374 115.775 226.357 115.775C227.274 115.775 228.107 115.967 228.857 116.35C229.607 116.717 230.257 117.225 230.807 117.875C231.374 118.508 231.807 119.225 232.107 120.025C232.424 120.825 232.582 121.658 232.582 122.525C232.582 123.725 232.332 124.842 231.832 125.875C231.332 126.892 230.632 127.708 229.732 128.325C228.849 128.942 227.815 129.25 226.632 129.25ZM226.332 128.125C227.099 128.125 227.782 127.967 228.382 127.65C228.999 127.333 229.524 126.908 229.957 126.375C230.39 125.842 230.724 125.242 230.957 124.575C231.19 123.908 231.307 123.225 231.307 122.525C231.307 121.775 231.174 121.067 230.907 120.4C230.64 119.717 230.265 119.117 229.782 118.6C229.315 118.083 228.765 117.675 228.132 117.375C227.515 117.058 226.84 116.9 226.107 116.9C225.657 116.9 225.174 116.992 224.657 117.175C224.157 117.358 223.674 117.617 223.207 117.95C222.757 118.283 222.382 118.667 222.082 119.1C221.782 119.517 221.599 119.95 221.532 120.4V124.675C221.832 125.308 222.215 125.892 222.682 126.425C223.165 126.942 223.724 127.358 224.357 127.675C224.99 127.975 225.649 128.125 226.332 128.125ZM235.59 129V116H236.84V120.725H240.04C241.49 120.725 242.573 121.1 243.29 121.85C244.023 122.6 244.39 123.575 244.39 124.775C244.39 125.542 244.231 126.25 243.915 126.9C243.598 127.55 243.123 128.067 242.49 128.45C241.873 128.817 241.09 129 240.14 129H235.59ZM236.84 127.975H240.015C240.748 127.975 241.34 127.825 241.79 127.525C242.256 127.225 242.59 126.833 242.79 126.35C243.006 125.867 243.115 125.35 243.115 124.8C243.115 124.267 243.023 123.767 242.84 123.3C242.656 122.833 242.331 122.458 241.865 122.175C241.415 121.892 240.781 121.75 239.965 121.75H236.84V127.975ZM246.865 129V116.025H248.115V129H246.865ZM257.57 129.25C256.653 129.25 255.803 129.075 255.02 128.725C254.236 128.358 253.553 127.867 252.97 127.25C252.403 126.617 251.953 125.892 251.62 125.075C251.303 124.242 251.145 123.367 251.145 122.45C251.145 121.217 251.42 120.1 251.97 119.1C252.52 118.1 253.278 117.3 254.245 116.7C255.211 116.083 256.295 115.775 257.495 115.775C258.728 115.775 259.82 116.083 260.77 116.7C261.72 117.317 262.47 118.133 263.02 119.15C263.586 120.15 263.87 121.25 263.87 122.45C263.87 122.55 263.87 122.65 263.87 122.75C263.87 122.85 263.861 122.933 263.845 123H252.445C252.511 123.983 252.786 124.875 253.27 125.675C253.753 126.475 254.37 127.108 255.12 127.575C255.886 128.025 256.72 128.25 257.62 128.25C258.52 128.25 259.37 128.017 260.17 127.55C260.97 127.083 261.528 126.483 261.845 125.75L262.945 126.05C262.695 126.667 262.295 127.217 261.745 127.7C261.211 128.183 260.578 128.567 259.845 128.85C259.128 129.117 258.37 129.25 257.57 129.25ZM252.395 122.025H262.67C262.603 121.008 262.336 120.108 261.87 119.325C261.403 118.542 260.786 117.925 260.02 117.475C259.27 117.025 258.436 116.8 257.52 116.8C256.603 116.8 255.77 117.025 255.02 117.475C254.27 117.925 253.661 118.542 253.195 119.325C252.728 120.108 252.461 121.008 252.395 122.025ZM272.941 116L277.091 121.375L277.291 121.725L277.491 121.375L281.616 116H283.066L278.016 122.525L283.041 129H281.591L277.491 123.65L277.291 123.325L277.091 123.65L272.966 129H271.541L276.541 122.525L271.516 116H272.941ZM290.893 129.25C289.976 129.25 289.126 129.075 288.343 128.725C287.576 128.375 286.91 127.892 286.343 127.275C285.776 126.642 285.335 125.917 285.018 125.1C284.701 124.283 284.543 123.425 284.543 122.525C284.543 121.608 284.701 120.75 285.018 119.95C285.335 119.133 285.776 118.417 286.343 117.8C286.926 117.167 287.601 116.675 288.368 116.325C289.151 115.958 289.993 115.775 290.893 115.775C291.793 115.775 292.626 115.958 293.393 116.325C294.16 116.675 294.835 117.167 295.418 117.8C296.001 118.417 296.451 119.133 296.768 119.95C297.085 120.75 297.243 121.608 297.243 122.525C297.243 123.425 297.085 124.283 296.768 125.1C296.451 125.917 296.001 126.642 295.418 127.275C294.851 127.892 294.176 128.375 293.393 128.725C292.626 129.075 291.793 129.25 290.893 129.25ZM285.793 122.575C285.793 123.592 286.018 124.525 286.468 125.375C286.935 126.208 287.551 126.875 288.318 127.375C289.085 127.875 289.935 128.125 290.868 128.125C291.801 128.125 292.651 127.875 293.418 127.375C294.201 126.858 294.818 126.175 295.268 125.325C295.735 124.458 295.968 123.517 295.968 122.5C295.968 121.483 295.735 120.55 295.268 119.7C294.818 118.85 294.201 118.175 293.418 117.675C292.651 117.158 291.81 116.9 290.893 116.9C289.96 116.9 289.11 117.158 288.343 117.675C287.576 118.192 286.96 118.875 286.493 119.725C286.026 120.575 285.793 121.525 285.793 122.575ZM303.563 129V117.125H298.788V116H309.613V117.125H304.813V129H303.563ZM317.555 129.25C316.638 129.25 315.788 129.075 315.005 128.725C314.222 128.358 313.538 127.867 312.955 127.25C312.388 126.617 311.938 125.892 311.605 125.075C311.288 124.242 311.13 123.367 311.13 122.45C311.13 121.217 311.405 120.1 311.955 119.1C312.505 118.1 313.263 117.3 314.23 116.7C315.197 116.083 316.28 115.775 317.48 115.775C318.713 115.775 319.805 116.083 320.755 116.7C321.705 117.317 322.455 118.133 323.005 119.15C323.572 120.15 323.855 121.25 323.855 122.45C323.855 122.55 323.855 122.65 323.855 122.75C323.855 122.85 323.847 122.933 323.83 123H312.43C312.497 123.983 312.772 124.875 313.255 125.675C313.738 126.475 314.355 127.108 315.105 127.575C315.872 128.025 316.705 128.25 317.605 128.25C318.505 128.25 319.355 128.017 320.155 127.55C320.955 127.083 321.513 126.483 321.83 125.75L322.93 126.05C322.68 126.667 322.28 127.217 321.73 127.7C321.197 128.183 320.563 128.567 319.83 128.85C319.113 129.117 318.355 129.25 317.555 129.25ZM312.38 122.025H322.655C322.588 121.008 322.322 120.108 321.855 119.325C321.388 118.542 320.772 117.925 320.005 117.475C319.255 117.025 318.422 116.8 317.505 116.8C316.588 116.8 315.755 117.025 315.005 117.475C314.255 117.925 313.647 118.542 313.18 119.325C312.713 120.108 312.447 121.008 312.38 122.025ZM325.28 129.05V127.9C325.73 127.9 326.139 127.775 326.505 127.525C326.872 127.258 327.197 126.817 327.48 126.2C327.764 125.583 327.989 124.733 328.155 123.65C328.339 122.55 328.455 121.167 328.505 119.5L328.63 116H336.73V129H335.48V117.125H329.755L329.705 119.575C329.639 121.408 329.497 122.942 329.28 124.175C329.08 125.392 328.797 126.358 328.43 127.075C328.064 127.775 327.614 128.283 327.08 128.6C326.564 128.9 325.964 129.05 325.28 129.05ZM340.619 129V116.025H341.869V127.3L350.319 116H351.469V129H350.219V117.9L341.869 129H340.619ZM367.612 129.25C365.528 129.25 363.962 128.608 362.912 127.325C361.878 126.042 361.362 124.3 361.362 122.1C361.362 120.467 361.487 119.092 361.737 117.975C362.003 116.842 362.387 115.917 362.887 115.2C363.403 114.467 364.028 113.867 364.762 113.4C365.512 112.933 366.362 112.542 367.312 112.225L372.737 110.325L372.912 111.425L367.712 113.225C366.628 113.608 365.728 114.075 365.012 114.625C364.312 115.175 363.762 115.883 363.362 116.75C362.978 117.6 362.728 118.7 362.612 120.05C363.045 119.017 363.72 118.225 364.637 117.675C365.57 117.125 366.645 116.85 367.862 116.85C369.145 116.85 370.237 117.108 371.137 117.625C372.037 118.142 372.712 118.867 373.162 119.8C373.628 120.717 373.862 121.775 373.862 122.975C373.862 124.258 373.62 125.367 373.137 126.3C372.653 127.233 371.945 127.958 371.012 128.475C370.095 128.992 368.962 129.25 367.612 129.25ZM367.612 128.125C369.212 128.125 370.437 127.667 371.287 126.75C372.153 125.817 372.587 124.575 372.587 123.025C372.587 121.525 372.162 120.3 371.312 119.35C370.478 118.4 369.245 117.925 367.612 117.925C366.678 117.925 365.837 118.125 365.087 118.525C364.337 118.908 363.737 119.483 363.287 120.25C362.853 121 362.637 121.925 362.637 123.025C362.637 123.992 362.828 124.867 363.212 125.65C363.595 126.417 364.153 127.025 364.887 127.475C365.62 127.908 366.528 128.125 367.612 128.125ZM376.849 129V116H378.099V120.725H381.299C382.749 120.725 383.833 121.1 384.549 121.85C385.283 122.6 385.649 123.575 385.649 124.775C385.649 125.542 385.491 126.25 385.174 126.9C384.858 127.55 384.383 128.067 383.749 128.45C383.133 128.817 382.349 129 381.399 129H376.849ZM378.099 127.975H381.274C382.008 127.975 382.599 127.825 383.049 127.525C383.516 127.225 383.849 126.833 384.049 126.35C384.266 125.867 384.374 125.35 384.374 124.8C384.374 124.267 384.283 123.767 384.099 123.3C383.916 122.833 383.591 122.458 383.124 122.175C382.674 121.892 382.041 121.75 381.224 121.75H378.099V127.975ZM388.124 129V116.025H389.374V129H388.124ZM161.998 172.425C161.732 172.425 161.448 172.375 161.148 172.275C160.865 172.192 160.573 172.058 160.273 171.875L160.748 170.95C160.965 171.083 161.165 171.183 161.348 171.25C161.532 171.333 161.732 171.375 161.948 171.375C162.432 171.375 162.873 171.133 163.273 170.65C163.673 170.167 164.057 169.475 164.423 168.575L165.123 166.95L159.223 154H160.548L165.698 165.675L170.473 154H171.748L165.423 169C165.073 169.817 164.723 170.475 164.373 170.975C164.023 171.475 163.657 171.842 163.273 172.075C162.89 172.308 162.465 172.425 161.998 172.425ZM172.924 167.05V165.9C173.374 165.9 173.783 165.775 174.149 165.525C174.516 165.258 174.841 164.817 175.124 164.2C175.408 163.583 175.633 162.733 175.799 161.65C175.983 160.55 176.099 159.167 176.149 157.5L176.274 154H184.374V167H183.124V155.125H177.399L177.349 157.575C177.283 159.408 177.141 160.942 176.924 162.175C176.724 163.392 176.441 164.358 176.074 165.075C175.708 165.775 175.258 166.283 174.724 166.6C174.208 166.9 173.608 167.05 172.924 167.05ZM189.513 172.425C189.246 172.425 188.963 172.375 188.663 172.275C188.38 172.192 188.088 172.058 187.788 171.875L188.263 170.95C188.48 171.083 188.68 171.183 188.863 171.25C189.046 171.333 189.246 171.375 189.463 171.375C189.946 171.375 190.388 171.133 190.788 170.65C191.188 170.167 191.571 169.475 191.938 168.575L192.638 166.95L186.738 154H188.063L193.213 165.675L197.988 154H199.263L192.938 169C192.588 169.817 192.238 170.475 191.888 170.975C191.538 171.475 191.171 171.842 190.788 172.075C190.405 172.308 189.98 172.425 189.513 172.425ZM209.264 167V161.35C208.714 161.617 208.139 161.817 207.539 161.95C206.939 162.067 206.297 162.125 205.614 162.125C204.164 162.125 203.089 161.758 202.389 161.025C201.689 160.292 201.339 159.158 201.339 157.625V154H202.589V157.475C202.589 158.742 202.847 159.667 203.364 160.25C203.881 160.817 204.697 161.1 205.814 161.1C206.464 161.1 207.106 161.025 207.739 160.875C208.372 160.725 208.881 160.542 209.264 160.325V154H210.514V167H209.264ZM214.41 167V154H215.66V165.875H221.61V154H222.86V165.875H228.81V154H230.06V167H214.41ZM233.966 167V154.025H235.216V165.3L243.666 154H244.816V167H243.566V155.9L235.216 167H233.966ZM252.013 167V155.125H247.238V154H258.063V155.125H253.263V167H252.013ZM260.48 167V154H261.73V158.725H265.205C266.655 158.725 267.738 159.1 268.455 159.85C269.171 160.6 269.53 161.575 269.53 162.775C269.53 163.542 269.371 164.25 269.055 164.9C268.738 165.55 268.263 166.067 267.63 166.45C267.013 166.817 266.238 167 265.305 167H260.48ZM261.73 165.975H265.155C265.905 165.975 266.505 165.825 266.955 165.525C267.421 165.225 267.755 164.833 267.955 164.35C268.171 163.867 268.28 163.35 268.28 162.8C268.28 162.267 268.18 161.767 267.98 161.3C267.796 160.833 267.471 160.458 267.005 160.175C266.555 159.892 265.921 159.75 265.105 159.75H261.73V165.975ZM284.34 167.25C283.44 167.25 282.598 167.075 281.815 166.725C281.031 166.358 280.348 165.867 279.765 165.25C279.181 164.617 278.723 163.892 278.39 163.075C278.073 162.258 277.915 161.383 277.915 160.45C277.915 159.2 278.19 158.075 278.74 157.075C279.29 156.075 280.048 155.275 281.015 154.675C281.981 154.075 283.081 153.775 284.315 153.775C285.498 153.775 286.54 154.05 287.44 154.6C288.34 155.133 289.015 155.867 289.465 156.8L288.24 157.2C287.856 156.483 287.306 155.925 286.59 155.525C285.89 155.108 285.115 154.9 284.265 154.9C283.315 154.9 282.456 155.142 281.69 155.625C280.923 156.108 280.306 156.775 279.84 157.625C279.39 158.458 279.165 159.4 279.165 160.45C279.165 161.483 279.398 162.433 279.865 163.3C280.331 164.167 280.948 164.858 281.715 165.375C282.498 165.875 283.356 166.125 284.29 166.125C284.89 166.125 285.473 166.017 286.04 165.8C286.623 165.567 287.123 165.267 287.54 164.9C287.973 164.533 288.256 164.142 288.39 163.725L289.615 164.075C289.398 164.692 289.023 165.242 288.49 165.725C287.956 166.192 287.331 166.567 286.615 166.85C285.915 167.117 285.156 167.25 284.34 167.25ZM292.438 167V154H298.713C299.413 154 299.996 154.158 300.463 154.475C300.946 154.775 301.313 155.175 301.563 155.675C301.829 156.158 301.963 156.667 301.963 157.2C301.963 157.883 301.788 158.508 301.438 159.075C301.104 159.642 300.638 160.058 300.038 160.325C300.788 160.542 301.388 160.942 301.838 161.525C302.288 162.108 302.513 162.792 302.513 163.575C302.513 164.242 302.346 164.833 302.013 165.35C301.696 165.867 301.254 166.275 300.688 166.575C300.138 166.858 299.504 167 298.788 167H292.438ZM293.638 166.05H298.763C299.246 166.05 299.679 165.925 300.063 165.675C300.446 165.425 300.746 165.108 300.963 164.725C301.196 164.325 301.313 163.908 301.313 163.475C301.313 163.008 301.204 162.583 300.988 162.2C300.771 161.817 300.479 161.508 300.113 161.275C299.746 161.025 299.329 160.9 298.863 160.9H293.638V166.05ZM293.638 160H298.363C298.846 160 299.263 159.875 299.613 159.625C299.963 159.358 300.238 159.025 300.438 158.625C300.638 158.225 300.738 157.808 300.738 157.375C300.738 156.725 300.529 156.158 300.113 155.675C299.696 155.192 299.146 154.95 298.463 154.95H293.638V160ZM311.047 167.25C310.13 167.25 309.28 167.075 308.497 166.725C307.73 166.375 307.064 165.892 306.497 165.275C305.93 164.642 305.489 163.917 305.172 163.1C304.855 162.283 304.697 161.425 304.697 160.525C304.697 159.608 304.855 158.75 305.172 157.95C305.489 157.133 305.93 156.417 306.497 155.8C307.08 155.167 307.755 154.675 308.522 154.325C309.305 153.958 310.147 153.775 311.047 153.775C311.947 153.775 312.78 153.958 313.547 154.325C314.314 154.675 314.989 155.167 315.572 155.8C316.155 156.417 316.605 157.133 316.922 157.95C317.239 158.75 317.397 159.608 317.397 160.525C317.397 161.425 317.239 162.283 316.922 163.1C316.605 163.917 316.155 164.642 315.572 165.275C315.005 165.892 314.33 166.375 313.547 166.725C312.78 167.075 311.947 167.25 311.047 167.25ZM305.947 160.575C305.947 161.592 306.172 162.525 306.622 163.375C307.089 164.208 307.705 164.875 308.472 165.375C309.239 165.875 310.089 166.125 311.022 166.125C311.955 166.125 312.805 165.875 313.572 165.375C314.355 164.858 314.972 164.175 315.422 163.325C315.889 162.458 316.122 161.517 316.122 160.5C316.122 159.483 315.889 158.55 315.422 157.7C314.972 156.85 314.355 156.175 313.572 155.675C312.805 155.158 311.964 154.9 311.047 154.9C310.114 154.9 309.264 155.158 308.497 155.675C307.73 156.192 307.114 156.875 306.647 157.725C306.18 158.575 305.947 159.525 305.947 160.575ZM320.392 167V154.025H321.642V165.3L330.092 154H331.242V167H329.992V155.9L321.642 167H320.392ZM352.034 170V167H341.534V154H342.784V165.875H350.159V154H351.409V165.875H353.159V170H352.034ZM361.366 167.25C360.449 167.25 359.599 167.075 358.816 166.725C358.033 166.358 357.349 165.867 356.766 165.25C356.199 164.617 355.749 163.892 355.416 163.075C355.099 162.242 354.941 161.367 354.941 160.45C354.941 159.217 355.216 158.1 355.766 157.1C356.316 156.1 357.074 155.3 358.041 154.7C359.008 154.083 360.091 153.775 361.291 153.775C362.524 153.775 363.616 154.083 364.566 154.7C365.516 155.317 366.266 156.133 366.816 157.15C367.383 158.15 367.666 159.25 367.666 160.45C367.666 160.55 367.666 160.65 367.666 160.75C367.666 160.85 367.658 160.933 367.641 161H356.241C356.308 161.983 356.583 162.875 357.066 163.675C357.549 164.475 358.166 165.108 358.916 165.575C359.683 166.025 360.516 166.25 361.416 166.25C362.316 166.25 363.166 166.017 363.966 165.55C364.766 165.083 365.324 164.483 365.641 163.75L366.741 164.05C366.491 164.667 366.091 165.217 365.541 165.7C365.008 166.183 364.374 166.567 363.641 166.85C362.924 167.117 362.166 167.25 361.366 167.25ZM356.191 160.025H366.466C366.399 159.008 366.133 158.108 365.666 157.325C365.199 156.542 364.583 155.925 363.816 155.475C363.066 155.025 362.233 154.8 361.316 154.8C360.399 154.8 359.566 155.025 358.816 155.475C358.066 155.925 357.458 156.542 356.991 157.325C356.524 158.108 356.258 159.008 356.191 160.025ZM369.091 167.05V165.9C369.541 165.9 369.95 165.775 370.316 165.525C370.683 165.258 371.008 164.817 371.291 164.2C371.575 163.583 371.8 162.733 371.966 161.65C372.15 160.55 372.266 159.167 372.316 157.5L372.441 154H380.541V167H379.291V155.125H373.566L373.516 157.575C373.45 159.408 373.308 160.942 373.091 162.175C372.891 163.392 372.608 164.358 372.241 165.075C371.875 165.775 371.425 166.283 370.891 166.6C370.375 166.9 369.775 167.05 369.091 167.05ZM384.43 167V154.025H385.68V165.3L394.13 154H395.28V167H394.03V155.9L385.68 167H384.43Z" fill="white"/>
</svg>
