<svg width="278" height="24" viewBox="0 0 278 24" fill="none" xmlns="http://www.w3.org/2000/svg">
<path d="M8.96 18.168C7.696 18.168 6.528 17.952 5.456 17.52C4.384 17.088 3.448 16.48 2.648 15.696C1.864 14.912 1.248 13.992 0.8 12.936C0.368 11.88 0.152 10.728 0.152 9.48C0.152 8.248 0.368 7.104 0.8 6.048C1.248 4.992 1.864 4.08 2.648 3.312C3.448 2.528 4.384 1.92 5.456 1.488C6.528 1.056 7.696 0.839999 8.96 0.839999C10.224 0.839999 11.392 1.056 12.464 1.488C13.552 1.92 14.496 2.528 15.296 3.312C16.096 4.08 16.712 4.992 17.144 6.048C17.592 7.104 17.816 8.248 17.816 9.48C17.816 10.728 17.592 11.88 17.144 12.936C16.712 13.992 16.096 14.912 15.296 15.696C14.496 16.48 13.552 17.088 12.464 17.52C11.392 17.952 10.224 18.168 8.96 18.168ZM8.96 17.28C10.08 17.28 11.112 17.096 12.056 16.728C13.016 16.344 13.856 15.808 14.576 15.12C15.296 14.432 15.856 13.616 16.256 12.672C16.672 11.728 16.88 10.68 16.88 9.528C16.88 8.424 16.68 7.4 16.28 6.456C15.88 5.496 15.32 4.664 14.6 3.96C13.896 3.256 13.064 2.712 12.104 2.328C11.144 1.928 10.096 1.728 8.96 1.728C7.84 1.728 6.8 1.928 5.84 2.328C4.88 2.712 4.04 3.256 3.32 3.96C2.616 4.664 2.064 5.488 1.664 6.432C1.28 7.36 1.088 8.384 1.088 9.504C1.088 10.608 1.28 11.632 1.664 12.576C2.064 13.504 2.616 14.328 3.32 15.048C4.04 15.752 4.88 16.304 5.84 16.704C6.8 17.088 7.84 17.28 8.96 17.28ZM9.152 15.048C8.416 15.048 7.712 14.92 7.04 14.664C6.368 14.392 5.768 14.016 5.24 13.536C4.728 13.04 4.312 12.456 3.992 11.784C3.688 11.096 3.536 10.328 3.536 9.48C3.536 8.808 3.648 8.144 3.872 7.488C4.096 6.816 4.432 6.208 4.88 5.664C5.328 5.12 5.896 4.688 6.584 4.368C7.272 4.032 8.08 3.864 9.008 3.864C10.064 3.864 11 4.096 11.816 4.56C12.648 5.008 13.248 5.664 13.616 6.528L12.032 7.032C11.824 6.552 11.536 6.192 11.168 5.952C10.816 5.696 10.448 5.528 10.064 5.448C9.68 5.352 9.328 5.304 9.008 5.304C8.368 5.304 7.808 5.424 7.328 5.664C6.848 5.904 6.448 6.232 6.128 6.648C5.824 7.048 5.592 7.496 5.432 7.992C5.288 8.472 5.216 8.968 5.216 9.48C5.216 10.152 5.328 10.744 5.552 11.256C5.792 11.768 6.096 12.2 6.464 12.552C6.848 12.904 7.264 13.176 7.712 13.368C8.176 13.544 8.624 13.632 9.056 13.632C9.456 13.632 9.864 13.56 10.28 13.416C10.696 13.256 11.08 13.04 11.432 12.768C11.784 12.496 12.04 12.176 12.2 11.808L13.784 12.264C13.624 12.648 13.336 13.056 12.92 13.488C12.504 13.92 11.976 14.288 11.336 14.592C10.696 14.896 9.968 15.048 9.152 15.048ZM37.1819 4.152C36.9419 3.88 36.6619 3.64 36.3419 3.432C36.0219 3.208 35.6619 3.016 35.2619 2.856C34.8619 2.696 34.4299 2.568 33.9659 2.472C33.5179 2.376 33.0379 2.328 32.5259 2.328C31.0379 2.328 29.9419 2.616 29.2379 3.192C28.5499 3.752 28.2059 4.52 28.2059 5.496C28.2059 6.168 28.3659 6.696 28.6859 7.08C29.0219 7.464 29.5419 7.776 30.2459 8.016C30.9499 8.256 31.8459 8.504 32.9339 8.76C34.1499 9.016 35.1979 9.32 36.0779 9.672C36.9579 10.024 37.6379 10.504 38.1179 11.112C38.5979 11.704 38.8379 12.512 38.8379 13.536C38.8379 14.32 38.6859 15 38.3819 15.576C38.0779 16.152 37.6539 16.632 37.1099 17.016C36.5659 17.4 35.9179 17.688 35.1659 17.88C34.4139 18.056 33.5899 18.144 32.6939 18.144C31.8139 18.144 30.9659 18.056 30.1499 17.88C29.3499 17.688 28.5899 17.416 27.8699 17.064C27.1499 16.696 26.4779 16.232 25.8539 15.672L26.6939 14.304C26.9979 14.624 27.3579 14.928 27.7739 15.216C28.2059 15.488 28.6779 15.736 29.1899 15.96C29.7179 16.184 30.2779 16.36 30.8699 16.488C31.4779 16.6 32.1019 16.656 32.7419 16.656C34.1019 16.656 35.1579 16.408 35.9099 15.912C36.6779 15.416 37.0619 14.68 37.0619 13.704C37.0619 13 36.8699 12.44 36.4859 12.024C36.1019 11.592 35.5259 11.24 34.7579 10.968C33.9899 10.696 33.0459 10.432 31.9259 10.176C30.7419 9.904 29.7419 9.6 28.9259 9.264C28.1099 8.928 27.4939 8.488 27.0779 7.944C26.6779 7.384 26.4779 6.648 26.4779 5.736C26.4779 4.68 26.7339 3.792 27.2459 3.072C27.7739 2.336 28.4939 1.784 29.4059 1.416C30.3179 1.032 31.3659 0.839999 32.5499 0.839999C33.3019 0.839999 33.9979 0.919999 34.6379 1.08C35.2939 1.224 35.8939 1.44 36.4379 1.728C36.9979 2.016 37.5179 2.376 37.9979 2.808L37.1819 4.152ZM53.8726 2.448H47.8006V18H46.1206V2.448H40.0486V0.959999H53.8726V2.448ZM60.0644 0.959999H61.4804L68.5604 18H66.7844L64.5764 12.672H56.9204L54.7364 18H52.9364L60.0644 0.959999ZM64.1924 11.352L60.7604 2.928L57.2804 11.352H64.1924ZM71.0032 18V0.959999H78.0592C78.7952 0.959999 79.4672 1.112 80.0752 1.416C80.6992 1.72 81.2352 2.136 81.6832 2.664C82.1312 3.176 82.4832 3.752 82.7392 4.392C82.9952 5.016 83.1232 5.656 83.1232 6.312C83.1232 7.24 82.9152 8.12 82.4992 8.952C82.0992 9.768 81.5312 10.432 80.7952 10.944C80.0592 11.456 79.1952 11.712 78.2032 11.712H72.6832V18H71.0032ZM72.6832 10.224H78.1312C78.8032 10.224 79.3872 10.04 79.8832 9.672C80.3792 9.304 80.7632 8.824 81.0352 8.232C81.3072 7.64 81.4432 7 81.4432 6.312C81.4432 5.608 81.2832 4.96 80.9632 4.368C80.6432 3.776 80.2192 3.312 79.6912 2.976C79.1792 2.624 78.6112 2.448 77.9872 2.448H72.6832V10.224ZM90.2893 9.36C90.2893 8.32 90.4653 7.304 90.8173 6.312C91.1853 5.304 91.7133 4.392 92.4013 3.576C93.0893 2.744 93.9373 2.088 94.9453 1.608C95.9533 1.112 97.0973 0.863999 98.3773 0.863999C99.8973 0.863999 101.193 1.216 102.265 1.92C103.353 2.608 104.153 3.496 104.665 4.584L103.345 5.4C102.977 4.648 102.513 4.056 101.953 3.624C101.393 3.176 100.793 2.856 100.153 2.664C99.5293 2.472 98.9053 2.376 98.2813 2.376C97.2573 2.376 96.3533 2.584 95.5693 3C94.7853 3.4 94.1213 3.944 93.5773 4.632C93.0493 5.304 92.6493 6.064 92.3773 6.912C92.1053 7.744 91.9693 8.592 91.9693 9.456C91.9693 10.4 92.1293 11.304 92.4492 12.168C92.7693 13.032 93.2173 13.8 93.7933 14.472C94.3693 15.128 95.0413 15.656 95.8093 16.056C96.5933 16.44 97.4413 16.632 98.3533 16.632C98.9933 16.632 99.6493 16.52 100.321 16.296C100.993 16.072 101.617 15.728 102.193 15.264C102.785 14.8 103.257 14.2 103.609 13.464L105.001 14.184C104.649 15.032 104.105 15.752 103.369 16.344C102.633 16.936 101.809 17.384 100.897 17.688C100.001 17.992 99.1213 18.144 98.2573 18.144C97.0893 18.144 96.0173 17.896 95.0413 17.4C94.0653 16.888 93.2173 16.216 92.4973 15.384C91.7933 14.536 91.2493 13.592 90.8652 12.552C90.4813 11.496 90.2893 10.432 90.2893 9.36ZM112.862 18.24C111.966 18.24 111.134 18.072 110.366 17.736C109.614 17.384 108.958 16.912 108.398 16.32C107.854 15.712 107.43 15.024 107.126 14.256C106.822 13.472 106.67 12.648 106.67 11.784C106.67 10.888 106.822 10.056 107.126 9.288C107.43 8.504 107.862 7.816 108.422 7.224C108.982 6.616 109.638 6.144 110.39 5.808C111.158 5.456 111.99 5.28 112.886 5.28C113.782 5.28 114.606 5.456 115.358 5.808C116.11 6.144 116.766 6.616 117.326 7.224C117.886 7.816 118.318 8.504 118.622 9.288C118.926 10.056 119.078 10.888 119.078 11.784C119.078 12.648 118.926 13.472 118.622 14.256C118.318 15.024 117.886 15.712 117.326 16.32C116.782 16.912 116.126 17.384 115.358 17.736C114.606 18.072 113.774 18.24 112.862 18.24ZM108.326 11.808C108.326 12.736 108.526 13.584 108.926 14.352C109.342 15.104 109.894 15.704 110.582 16.152C111.27 16.584 112.03 16.8 112.862 16.8C113.694 16.8 114.454 16.576 115.142 16.128C115.83 15.68 116.382 15.072 116.798 14.304C117.214 13.52 117.422 12.672 117.422 11.76C117.422 10.832 117.214 9.984 116.798 9.216C116.382 8.448 115.83 7.84 115.142 7.392C114.454 6.944 113.694 6.72 112.862 6.72C112.03 6.72 111.27 6.952 110.582 7.416C109.91 7.88 109.366 8.496 108.95 9.264C108.534 10.016 108.326 10.864 108.326 11.808ZM128.048 6.936C126.96 6.968 126 7.272 125.168 7.848C124.352 8.424 123.776 9.216 123.44 10.224V18H121.808V5.496H123.344V8.496C123.776 7.616 124.344 6.904 125.048 6.36C125.768 5.816 126.528 5.512 127.328 5.448C127.488 5.432 127.624 5.424 127.736 5.424C127.864 5.424 127.968 5.432 128.048 5.448V6.936ZM136.606 18.24C135.566 18.24 134.63 17.968 133.798 17.424C132.982 16.88 132.334 16.208 131.854 15.408V23.112H130.222V5.496H131.686V7.92C132.182 7.136 132.846 6.504 133.678 6.024C134.51 5.528 135.398 5.28 136.342 5.28C137.206 5.28 137.998 5.464 138.718 5.832C139.438 6.184 140.062 6.664 140.59 7.272C141.118 7.88 141.526 8.576 141.814 9.36C142.118 10.128 142.27 10.928 142.27 11.76C142.27 12.928 142.03 14.008 141.55 15C141.086 15.976 140.43 16.76 139.582 17.352C138.734 17.944 137.742 18.24 136.606 18.24ZM136.15 16.8C136.838 16.8 137.454 16.664 137.998 16.392C138.542 16.104 139.006 15.72 139.39 15.24C139.79 14.76 140.094 14.224 140.302 13.632C140.51 13.024 140.614 12.4 140.614 11.76C140.614 11.088 140.494 10.448 140.254 9.84C140.03 9.232 139.702 8.696 139.27 8.232C138.838 7.768 138.342 7.4 137.782 7.128C137.222 6.856 136.614 6.72 135.958 6.72C135.542 6.72 135.11 6.8 134.662 6.96C134.214 7.12 133.782 7.352 133.366 7.656C132.966 7.944 132.63 8.272 132.358 8.64C132.086 9.008 131.918 9.4 131.854 9.816V13.656C132.11 14.248 132.454 14.784 132.886 15.264C133.318 15.728 133.814 16.104 134.374 16.392C134.95 16.664 135.542 16.8 136.15 16.8ZM150.362 18.24C149.466 18.24 148.634 18.072 147.866 17.736C147.114 17.384 146.458 16.912 145.898 16.32C145.354 15.712 144.93 15.024 144.626 14.256C144.322 13.472 144.17 12.648 144.17 11.784C144.17 10.888 144.322 10.056 144.626 9.288C144.93 8.504 145.362 7.816 145.922 7.224C146.482 6.616 147.138 6.144 147.89 5.808C148.658 5.456 149.49 5.28 150.386 5.28C151.282 5.28 152.106 5.456 152.858 5.808C153.61 6.144 154.266 6.616 154.826 7.224C155.386 7.816 155.818 8.504 156.122 9.288C156.426 10.056 156.578 10.888 156.578 11.784C156.578 12.648 156.426 13.472 156.122 14.256C155.818 15.024 155.386 15.712 154.826 16.32C154.282 16.912 153.626 17.384 152.858 17.736C152.106 18.072 151.274 18.24 150.362 18.24ZM145.826 11.808C145.826 12.736 146.026 13.584 146.426 14.352C146.842 15.104 147.394 15.704 148.082 16.152C148.77 16.584 149.53 16.8 150.362 16.8C151.194 16.8 151.954 16.576 152.642 16.128C153.33 15.68 153.882 15.072 154.298 14.304C154.714 13.52 154.922 12.672 154.922 11.76C154.922 10.832 154.714 9.984 154.298 9.216C153.882 8.448 153.33 7.84 152.642 7.392C151.954 6.944 151.194 6.72 150.362 6.72C149.53 6.72 148.77 6.952 148.082 7.416C147.41 7.88 146.866 8.496 146.45 9.264C146.034 10.016 145.826 10.864 145.826 11.808ZM165.548 6.936C164.46 6.968 163.5 7.272 162.668 7.848C161.852 8.424 161.276 9.216 160.94 10.224V18H159.308V5.496H160.844V8.496C161.276 7.616 161.844 6.904 162.548 6.36C163.268 5.816 164.028 5.512 164.828 5.448C164.988 5.432 165.124 5.424 165.236 5.424C165.364 5.424 165.468 5.432 165.548 5.448V6.936ZM166.667 14.4C166.667 13.616 166.891 12.944 167.339 12.384C167.787 11.808 168.403 11.368 169.187 11.064C169.987 10.744 170.907 10.584 171.947 10.584C172.555 10.584 173.187 10.632 173.843 10.728C174.499 10.824 175.083 10.968 175.595 11.16V10.104C175.595 9.048 175.283 8.208 174.659 7.584C174.035 6.96 173.171 6.648 172.067 6.648C171.395 6.648 170.731 6.776 170.075 7.032C169.435 7.272 168.763 7.632 168.059 8.112L167.435 6.96C168.251 6.4 169.051 5.984 169.835 5.712C170.619 5.424 171.419 5.28 172.235 5.28C173.771 5.28 174.987 5.72 175.883 6.6C176.779 7.48 177.227 8.696 177.227 10.248V16.032C177.227 16.256 177.275 16.424 177.371 16.536C177.467 16.632 177.619 16.688 177.827 16.704V18C177.651 18.016 177.499 18.032 177.371 18.048C177.243 18.064 177.147 18.064 177.083 18.048C176.683 18.032 176.379 17.904 176.171 17.664C175.963 17.424 175.851 17.168 175.835 16.896L175.811 15.984C175.251 16.704 174.523 17.264 173.627 17.664C172.731 18.048 171.819 18.24 170.891 18.24C170.091 18.24 169.363 18.072 168.707 17.736C168.067 17.384 167.563 16.92 167.195 16.344C166.843 15.752 166.667 15.104 166.667 14.4ZM175.043 15.36C175.219 15.136 175.355 14.92 175.451 14.712C175.547 14.504 175.595 14.32 175.595 14.16V12.336C175.051 12.128 174.483 11.968 173.891 11.856C173.315 11.744 172.731 11.688 172.139 11.688C170.971 11.688 170.027 11.92 169.307 12.384C168.587 12.848 168.227 13.48 168.227 14.28C168.227 14.744 168.347 15.184 168.587 15.6C168.827 16 169.179 16.336 169.643 16.608C170.107 16.864 170.651 16.992 171.275 16.992C172.059 16.992 172.787 16.84 173.459 16.536C174.147 16.232 174.675 15.84 175.043 15.36ZM186.659 17.4C186.531 17.448 186.331 17.536 186.059 17.664C185.787 17.792 185.459 17.904 185.075 18C184.691 18.096 184.275 18.144 183.827 18.144C183.363 18.144 182.923 18.056 182.507 17.88C182.107 17.704 181.787 17.44 181.547 17.088C181.307 16.72 181.187 16.272 181.187 15.744V6.792H179.459V5.496H181.187V1.272H182.819V5.496H185.699V6.792H182.819V15.288C182.851 15.736 183.011 16.072 183.299 16.296C183.603 16.52 183.947 16.632 184.331 16.632C184.779 16.632 185.187 16.56 185.555 16.416C185.923 16.256 186.147 16.144 186.227 16.08L186.659 17.4ZM188.698 18V5.496H190.33V18H188.698ZM188.698 2.88V0.48H190.33V2.88H188.698ZM199.253 18.24C198.357 18.24 197.525 18.072 196.757 17.736C196.005 17.384 195.349 16.912 194.789 16.32C194.245 15.712 193.821 15.024 193.517 14.256C193.213 13.472 193.061 12.648 193.061 11.784C193.061 10.888 193.213 10.056 193.517 9.288C193.821 8.504 194.253 7.816 194.813 7.224C195.373 6.616 196.029 6.144 196.781 5.808C197.549 5.456 198.381 5.28 199.277 5.28C200.173 5.28 200.997 5.456 201.749 5.808C202.501 6.144 203.157 6.616 203.717 7.224C204.277 7.816 204.709 8.504 205.013 9.288C205.317 10.056 205.469 10.888 205.469 11.784C205.469 12.648 205.317 13.472 205.013 14.256C204.709 15.024 204.277 15.712 203.717 16.32C203.173 16.912 202.517 17.384 201.749 17.736C200.997 18.072 200.165 18.24 199.253 18.24ZM194.717 11.808C194.717 12.736 194.917 13.584 195.317 14.352C195.733 15.104 196.285 15.704 196.973 16.152C197.661 16.584 198.421 16.8 199.253 16.8C200.085 16.8 200.845 16.576 201.533 16.128C202.221 15.68 202.773 15.072 203.189 14.304C203.605 13.52 203.813 12.672 203.813 11.76C203.813 10.832 203.605 9.984 203.189 9.216C202.773 8.448 202.221 7.84 201.533 7.392C200.845 6.944 200.085 6.72 199.253 6.72C198.421 6.72 197.661 6.952 196.973 7.416C196.301 7.88 195.757 8.496 195.341 9.264C194.925 10.016 194.717 10.864 194.717 11.808ZM218.71 18H217.078V11.016C217.078 9.544 216.862 8.472 216.43 7.8C215.998 7.112 215.318 6.768 214.39 6.768C213.75 6.768 213.118 6.928 212.494 7.248C211.87 7.552 211.318 7.976 210.838 8.52C210.374 9.048 210.038 9.656 209.83 10.344V18H208.198V5.496H209.686V8.328C210.022 7.72 210.462 7.192 211.006 6.744C211.55 6.28 212.166 5.92 212.854 5.664C213.542 5.408 214.254 5.28 214.99 5.28C215.678 5.28 216.262 5.408 216.742 5.664C217.222 5.92 217.606 6.288 217.894 6.768C218.182 7.232 218.39 7.8 218.518 8.472C218.646 9.128 218.71 9.864 218.71 10.68V18ZM227.564 18C227.564 17.456 227.612 16.912 227.708 16.368C227.804 15.808 227.988 15.256 228.26 14.712C228.532 14.168 228.932 13.648 229.46 13.152C229.988 12.64 230.684 12.16 231.548 11.712C232.012 11.472 232.492 11.24 232.988 11.016C233.484 10.776 233.948 10.52 234.38 10.248C234.828 9.96 235.18 9.64 235.436 9.288C235.708 8.92 235.844 8.488 235.844 7.992C235.844 7.592 235.724 7.2 235.484 6.816C235.26 6.432 234.908 6.12 234.428 5.88C233.964 5.64 233.38 5.52 232.676 5.52C232.164 5.52 231.7 5.592 231.284 5.736C230.868 5.88 230.5 6.064 230.18 6.288C229.86 6.496 229.588 6.712 229.364 6.936C229.14 7.144 228.956 7.32 228.812 7.464L227.78 6.336C227.86 6.24 228.036 6.072 228.308 5.832C228.596 5.576 228.956 5.312 229.388 5.04C229.836 4.768 230.356 4.536 230.948 4.344C231.556 4.152 232.22 4.056 232.94 4.056C233.916 4.056 234.748 4.232 235.436 4.584C236.14 4.92 236.676 5.376 237.044 5.952C237.412 6.528 237.596 7.152 237.596 7.824C237.596 8.48 237.452 9.048 237.164 9.528C236.892 9.992 236.532 10.4 236.084 10.752C235.652 11.088 235.196 11.384 234.716 11.64C234.252 11.88 233.828 12.088 233.444 12.264C232.692 12.616 232.06 12.968 231.548 13.32C231.036 13.672 230.628 14.032 230.324 14.4C230.02 14.752 229.78 15.104 229.604 15.456C229.444 15.792 229.332 16.144 229.268 16.512H237.86V18H227.564ZM252.391 10.968C252.391 12.376 252.127 13.632 251.599 14.736C251.087 15.824 250.375 16.68 249.463 17.304C248.551 17.928 247.519 18.24 246.367 18.24C245.215 18.24 244.183 17.928 243.271 17.304C242.375 16.68 241.663 15.824 241.135 14.736C240.607 13.632 240.343 12.376 240.343 10.968C240.343 9.56 240.607 8.312 241.135 7.224C241.663 6.12 242.375 5.256 243.271 4.632C244.183 3.992 245.215 3.672 246.367 3.672C247.519 3.672 248.551 3.992 249.463 4.632C250.375 5.256 251.087 6.12 251.599 7.224C252.127 8.312 252.391 9.56 252.391 10.968ZM250.735 10.968C250.735 9.832 250.551 8.832 250.183 7.968C249.815 7.104 249.303 6.432 248.647 5.952C247.991 5.456 247.231 5.208 246.367 5.208C245.503 5.208 244.743 5.456 244.087 5.952C243.431 6.432 242.911 7.104 242.527 7.968C242.159 8.832 241.975 9.832 241.975 10.968C241.975 12.104 242.159 13.104 242.527 13.968C242.911 14.832 243.431 15.504 244.087 15.984C244.743 16.464 245.503 16.704 246.367 16.704C247.231 16.704 247.991 16.464 248.647 15.984C249.303 15.488 249.815 14.816 250.183 13.968C250.551 13.104 250.735 12.104 250.735 10.968ZM254.775 18C254.775 17.456 254.823 16.912 254.919 16.368C255.015 15.808 255.199 15.256 255.471 14.712C255.743 14.168 256.143 13.648 256.671 13.152C257.199 12.64 257.895 12.16 258.759 11.712C259.223 11.472 259.703 11.24 260.199 11.016C260.695 10.776 261.159 10.52 261.591 10.248C262.039 9.96 262.391 9.64 262.647 9.288C262.919 8.92 263.055 8.488 263.055 7.992C263.055 7.592 262.935 7.2 262.695 6.816C262.471 6.432 262.119 6.12 261.639 5.88C261.175 5.64 260.591 5.52 259.887 5.52C259.375 5.52 258.911 5.592 258.495 5.736C258.079 5.88 257.711 6.064 257.391 6.288C257.071 6.496 256.799 6.712 256.575 6.936C256.351 7.144 256.167 7.32 256.023 7.464L254.991 6.336C255.071 6.24 255.247 6.072 255.519 5.832C255.807 5.576 256.167 5.312 256.599 5.04C257.047 4.768 257.567 4.536 258.159 4.344C258.767 4.152 259.431 4.056 260.151 4.056C261.127 4.056 261.959 4.232 262.647 4.584C263.351 4.92 263.887 5.376 264.255 5.952C264.623 6.528 264.807 7.152 264.807 7.824C264.807 8.48 264.663 9.048 264.375 9.528C264.103 9.992 263.743 10.4 263.295 10.752C262.863 11.088 262.407 11.384 261.927 11.64C261.463 11.88 261.039 12.088 260.655 12.264C259.903 12.616 259.271 12.968 258.759 13.32C258.247 13.672 257.839 14.032 257.535 14.4C257.231 14.752 256.991 15.104 256.815 15.456C256.655 15.792 256.543 16.144 256.479 16.512H265.071V18H254.775ZM274.466 12.336C275.186 12.448 275.802 12.704 276.314 13.104C276.826 13.504 277.226 14.008 277.514 14.616C277.802 15.224 277.946 15.912 277.946 16.68C277.946 17.64 277.714 18.488 277.25 19.224C276.786 19.96 276.138 20.528 275.306 20.928C274.474 21.328 273.506 21.528 272.402 21.528C271.186 21.528 270.122 21.28 269.21 20.784C268.298 20.304 267.61 19.632 267.146 18.768L268.274 17.736C268.626 18.424 269.146 18.976 269.834 19.392C270.522 19.824 271.378 20.04 272.402 20.04C273.586 20.04 274.522 19.744 275.21 19.152C275.914 18.576 276.266 17.744 276.266 16.656C276.266 15.568 275.898 14.704 275.162 14.064C274.442 13.408 273.41 13.08 272.066 13.08H271.466V11.688H272.114C273.346 11.688 274.29 11.4 274.946 10.824C275.602 10.248 275.93 9.512 275.93 8.616C275.93 7.96 275.778 7.416 275.474 6.984C275.17 6.552 274.754 6.224 274.226 6C273.714 5.776 273.122 5.664 272.45 5.664C271.538 5.664 270.73 5.872 270.026 6.288C269.338 6.688 268.818 7.248 268.466 7.968L267.41 6.96C267.682 6.4 268.074 5.912 268.586 5.496C269.098 5.08 269.698 4.76 270.386 4.536C271.074 4.296 271.81 4.176 272.594 4.176C273.586 4.176 274.458 4.36 275.21 4.728C275.962 5.08 276.554 5.576 276.986 6.216C277.418 6.856 277.634 7.608 277.634 8.472C277.634 9.112 277.506 9.704 277.25 10.248C276.994 10.792 276.626 11.248 276.146 11.616C275.682 11.984 275.122 12.224 274.466 12.336Z" fill="#716464"/>
</svg>
