<svg width="589" height="228" viewBox="0 0 589 228" fill="none" xmlns="http://www.w3.org/2000/svg">
<path d="M170.917 62.27C168.877 62.27 167.017 61.97 165.337 61.37C163.657 60.74 162.187 59.87 160.927 58.76C159.667 57.65 158.602 56.345 157.732 54.845L162.862 51.92C163.402 52.91 164.077 53.78 164.887 54.53C165.697 55.25 166.612 55.805 167.632 56.195C168.682 56.585 169.792 56.78 170.962 56.78C172.402 56.78 173.707 56.51 174.877 55.97C176.047 55.4 177.037 54.635 177.847 53.675C178.687 52.685 179.317 51.56 179.737 50.3C180.187 49.01 180.412 47.66 180.412 46.25L182.932 47.96H168.217V43.37H182.797L180.367 45.035C180.307 43.775 180.067 42.56 179.647 41.39C179.227 40.22 178.612 39.185 177.802 38.285C176.992 37.385 176.017 36.68 174.877 36.17C173.737 35.63 172.432 35.36 170.962 35.36C169.822 35.36 168.742 35.555 167.722 35.945C166.702 36.305 165.802 36.845 165.022 37.565C164.242 38.285 163.582 39.17 163.042 40.22L158.137 36.845C159.427 34.805 161.092 33.14 163.132 31.85C165.202 30.53 167.827 29.87 171.007 29.87C173.497 29.87 175.717 30.32 177.667 31.22C179.617 32.12 181.267 33.335 182.617 34.865C183.967 36.395 184.987 38.12 185.677 40.04C186.397 41.96 186.757 43.955 186.757 46.025C186.757 48.185 186.382 50.24 185.632 52.19C184.912 54.14 183.847 55.88 182.437 57.41C181.057 58.91 179.392 60.095 177.442 60.965C175.492 61.835 173.317 62.27 170.917 62.27ZM190.718 62V38.42H196.748V47.33H198.773L205.163 38.42H211.733L203.363 49.805L212.633 62H205.748L198.683 52.64H196.748V62H190.718ZM226.131 62.45C224.211 62.45 222.486 62.135 220.956 61.505C219.426 60.845 218.121 59.945 217.041 58.805C215.961 57.635 215.121 56.315 214.521 54.845C213.951 53.375 213.666 51.83 213.666 50.21C213.666 47.99 214.161 45.965 215.151 44.135C216.171 42.275 217.611 40.79 219.471 39.68C221.331 38.57 223.536 38.015 226.086 38.015C228.636 38.015 230.826 38.57 232.656 39.68C234.486 40.79 235.851 42.245 236.751 44.045L230.856 45.845C230.346 44.975 229.671 44.315 228.831 43.865C227.991 43.385 227.061 43.145 226.041 43.145C224.901 43.145 223.851 43.445 222.891 44.045C221.961 44.615 221.226 45.44 220.686 46.52C220.146 47.57 219.876 48.8 219.876 50.21C219.876 51.59 220.146 52.82 220.686 53.9C221.256 54.95 222.006 55.79 222.936 56.42C223.866 57.02 224.901 57.32 226.041 57.32C226.761 57.32 227.436 57.2 228.066 56.96C228.726 56.72 229.311 56.39 229.821 55.97C230.331 55.55 230.706 55.07 230.946 54.53L236.841 56.33C236.301 57.5 235.506 58.55 234.456 59.48C233.436 60.41 232.221 61.145 230.811 61.685C229.431 62.195 227.871 62.45 226.131 62.45ZM240.552 62V38.42H261.702V62H255.672V43.685H246.582V62H240.552ZM278.118 62.45C276.228 62.45 274.518 62.135 272.988 61.505C271.458 60.845 270.153 59.96 269.073 58.85C267.993 57.71 267.153 56.42 266.553 54.98C265.983 53.51 265.698 51.965 265.698 50.345C265.698 48.095 266.193 46.04 267.183 44.18C268.203 42.32 269.643 40.835 271.503 39.725C273.393 38.585 275.613 38.015 278.163 38.015C280.743 38.015 282.948 38.585 284.778 39.725C286.608 40.835 288.003 42.32 288.963 44.18C289.953 46.01 290.448 47.99 290.448 50.12C290.448 50.48 290.433 50.855 290.403 51.245C290.373 51.605 290.343 51.905 290.313 52.145H272.088C272.208 53.345 272.553 54.395 273.123 55.295C273.723 56.195 274.473 56.885 275.373 57.365C276.303 57.815 277.293 58.04 278.343 58.04C279.543 58.04 280.668 57.755 281.718 57.185C282.798 56.585 283.533 55.805 283.923 54.845L289.098 56.285C288.528 57.485 287.703 58.55 286.623 59.48C285.573 60.41 284.328 61.145 282.888 61.685C281.448 62.195 279.858 62.45 278.118 62.45ZM271.953 48.32H284.283C284.163 47.12 283.818 46.085 283.248 45.215C282.708 44.315 281.988 43.625 281.088 43.145C280.188 42.635 279.183 42.38 278.073 42.38C276.993 42.38 276.003 42.635 275.103 43.145C274.233 43.625 273.513 44.315 272.943 45.215C272.403 46.085 272.073 47.12 271.953 48.32ZM308.251 62.45C306.421 62.45 304.801 62.045 303.391 61.235C302.011 60.395 300.931 59.27 300.151 57.86V71.585H294.121V38.42H299.386V42.47C300.286 41.09 301.426 40.01 302.806 39.23C304.186 38.42 305.761 38.015 307.531 38.015C309.121 38.015 310.576 38.33 311.896 38.96C313.246 39.59 314.416 40.475 315.406 41.615C316.396 42.725 317.161 44.015 317.701 45.485C318.271 46.925 318.556 48.485 318.556 50.165C318.556 52.445 318.106 54.515 317.206 56.375C316.336 58.235 315.121 59.72 313.561 60.83C312.031 61.91 310.261 62.45 308.251 62.45ZM306.226 57.32C307.156 57.32 307.996 57.125 308.746 56.735C309.496 56.345 310.141 55.82 310.681 55.16C311.251 54.47 311.671 53.705 311.941 52.865C312.241 51.995 312.391 51.095 312.391 50.165C312.391 49.175 312.226 48.26 311.896 47.42C311.596 46.58 311.146 45.845 310.546 45.215C309.946 44.555 309.241 44.045 308.431 43.685C307.651 43.325 306.796 43.145 305.866 43.145C305.296 43.145 304.711 43.25 304.111 43.46C303.541 43.64 302.986 43.91 302.446 44.27C301.906 44.63 301.426 45.05 301.006 45.53C300.616 46.01 300.331 46.535 300.151 47.105V52.64C300.511 53.51 300.991 54.305 301.591 55.025C302.221 55.745 302.941 56.315 303.751 56.735C304.561 57.125 305.386 57.32 306.226 57.32ZM328.086 62V43.685H320.616V38.42H341.631V43.685H334.116V62H328.086ZM343.302 55.025C343.302 53.495 343.722 52.16 344.562 51.02C345.432 49.85 346.632 48.95 348.162 48.32C349.692 47.69 351.447 47.375 353.427 47.375C354.417 47.375 355.422 47.45 356.442 47.6C357.462 47.75 358.347 47.99 359.097 48.32V47.06C359.097 45.56 358.647 44.405 357.747 43.595C356.877 42.785 355.572 42.38 353.832 42.38C352.542 42.38 351.312 42.605 350.142 43.055C348.972 43.505 347.742 44.165 346.452 45.035L344.517 41.075C346.077 40.055 347.667 39.29 349.287 38.78C350.937 38.27 352.662 38.015 354.462 38.015C357.822 38.015 360.432 38.855 362.292 40.535C364.182 42.215 365.127 44.615 365.127 47.735V55.25C365.127 55.88 365.232 56.33 365.442 56.6C365.682 56.87 366.057 57.035 366.567 57.095V62C366.027 62.09 365.532 62.165 365.082 62.225C364.662 62.285 364.302 62.315 364.002 62.315C362.802 62.315 361.887 62.045 361.257 61.505C360.657 60.965 360.282 60.305 360.132 59.525L359.997 58.31C358.977 59.63 357.702 60.65 356.172 61.37C354.642 62.09 353.082 62.45 351.492 62.45C349.932 62.45 348.522 62.135 347.262 61.505C346.032 60.845 345.057 59.96 344.337 58.85C343.647 57.71 343.302 56.435 343.302 55.025ZM357.972 56.24C358.302 55.88 358.572 55.52 358.782 55.16C358.992 54.8 359.097 54.47 359.097 54.17V51.785C358.377 51.485 357.597 51.26 356.757 51.11C355.917 50.93 355.122 50.84 354.372 50.84C352.812 50.84 351.522 51.185 350.502 51.875C349.512 52.535 349.017 53.42 349.017 54.53C349.017 55.13 349.182 55.7 349.512 56.24C349.842 56.78 350.322 57.215 350.952 57.545C351.582 57.875 352.332 58.04 353.202 58.04C354.102 58.04 354.987 57.875 355.857 57.545C356.727 57.185 357.432 56.75 357.972 56.24ZM370.762 62V38.42H377.062L384.442 52.055L391.867 38.42H398.077V62H392.362V46.745L386.332 57.815H382.552L376.477 46.745V62H370.762Z" fill="white"/>
<rect x="0.5" y="0.5" width="588" height="227" rx="19.5" stroke="white"/>
<path d="M113.854 127.05V125.9C114.304 125.9 114.713 125.775 115.079 125.525C115.446 125.258 115.771 124.817 116.054 124.2C116.338 123.583 116.563 122.733 116.729 121.65C116.913 120.55 117.029 119.167 117.079 117.5L117.204 114H125.304V127H124.054V115.125H118.329L118.279 117.575C118.213 119.408 118.071 120.942 117.854 122.175C117.654 123.392 117.371 124.358 117.004 125.075C116.638 125.775 116.188 126.283 115.654 126.6C115.138 126.9 114.538 127.05 113.854 127.05ZM139.143 127.25C138.01 127.25 137.01 126.992 136.143 126.475C135.276 125.942 134.585 125.208 134.068 124.275C133.551 123.325 133.26 122.25 133.193 121.05H130.443V127H129.193V114H130.443V119.95H133.193C133.276 118.7 133.576 117.617 134.093 116.7C134.626 115.783 135.326 115.067 136.193 114.55C137.076 114.033 138.06 113.775 139.143 113.775C140.393 113.775 141.476 114.075 142.393 114.675C143.31 115.275 144.018 116.083 144.518 117.1C145.035 118.1 145.293 119.242 145.293 120.525C145.293 121.858 145.026 123.033 144.493 124.05C143.976 125.05 143.251 125.833 142.318 126.4C141.401 126.967 140.343 127.25 139.143 127.25ZM139.143 126.125C140.126 126.125 140.976 125.883 141.693 125.4C142.426 124.917 142.993 124.258 143.393 123.425C143.81 122.575 144.018 121.608 144.018 120.525C144.018 119.375 143.801 118.383 143.368 117.55C142.951 116.7 142.376 116.05 141.643 115.6C140.91 115.133 140.076 114.9 139.143 114.9C138.21 114.9 137.385 115.142 136.668 115.625C135.968 116.092 135.418 116.75 135.018 117.6C134.618 118.45 134.418 119.425 134.418 120.525C134.418 121.658 134.618 122.65 135.018 123.5C135.435 124.333 136.001 124.983 136.718 125.45C137.435 125.9 138.243 126.125 139.143 126.125ZM154.135 127.25C152.052 127.25 150.485 126.608 149.435 125.325C148.402 124.042 147.885 122.3 147.885 120.1C147.885 118.467 148.01 117.092 148.26 115.975C148.527 114.842 148.91 113.917 149.41 113.2C149.927 112.467 150.552 111.867 151.285 111.4C152.035 110.933 152.885 110.542 153.835 110.225L159.26 108.325L159.435 109.425L154.235 111.225C153.152 111.608 152.252 112.075 151.535 112.625C150.835 113.175 150.285 113.883 149.885 114.75C149.502 115.6 149.252 116.7 149.135 118.05C149.568 117.017 150.243 116.225 151.16 115.675C152.093 115.125 153.168 114.85 154.385 114.85C155.668 114.85 156.76 115.108 157.66 115.625C158.56 116.142 159.235 116.867 159.685 117.8C160.152 118.717 160.385 119.775 160.385 120.975C160.385 122.258 160.143 123.367 159.66 124.3C159.177 125.233 158.468 125.958 157.535 126.475C156.618 126.992 155.485 127.25 154.135 127.25ZM154.135 126.125C155.735 126.125 156.96 125.667 157.81 124.75C158.677 123.817 159.11 122.575 159.11 121.025C159.11 119.525 158.685 118.3 157.835 117.35C157.002 116.4 155.768 115.925 154.135 115.925C153.202 115.925 152.36 116.125 151.61 116.525C150.86 116.908 150.26 117.483 149.81 118.25C149.377 119 149.16 119.925 149.16 121.025C149.16 121.992 149.352 122.867 149.735 123.65C150.118 124.417 150.677 125.025 151.41 125.475C152.143 125.908 153.052 126.125 154.135 126.125ZM168.823 127.25C167.906 127.25 167.056 127.075 166.273 126.725C165.506 126.375 164.84 125.892 164.273 125.275C163.706 124.642 163.265 123.917 162.948 123.1C162.631 122.283 162.473 121.425 162.473 120.525C162.473 119.608 162.631 118.75 162.948 117.95C163.265 117.133 163.706 116.417 164.273 115.8C164.856 115.167 165.531 114.675 166.298 114.325C167.081 113.958 167.923 113.775 168.823 113.775C169.723 113.775 170.556 113.958 171.323 114.325C172.09 114.675 172.765 115.167 173.348 115.8C173.931 116.417 174.381 117.133 174.698 117.95C175.015 118.75 175.173 119.608 175.173 120.525C175.173 121.425 175.015 122.283 174.698 123.1C174.381 123.917 173.931 124.642 173.348 125.275C172.781 125.892 172.106 126.375 171.323 126.725C170.556 127.075 169.723 127.25 168.823 127.25ZM163.723 120.575C163.723 121.592 163.948 122.525 164.398 123.375C164.865 124.208 165.481 124.875 166.248 125.375C167.015 125.875 167.865 126.125 168.798 126.125C169.731 126.125 170.581 125.875 171.348 125.375C172.131 124.858 172.748 124.175 173.198 123.325C173.665 122.458 173.898 121.517 173.898 120.5C173.898 119.483 173.665 118.55 173.198 117.7C172.748 116.85 172.131 116.175 171.348 115.675C170.581 115.158 169.74 114.9 168.823 114.9C167.89 114.9 167.04 115.158 166.273 115.675C165.506 116.192 164.89 116.875 164.423 117.725C163.956 118.575 163.723 119.525 163.723 120.575ZM178.168 127V114.025H179.418V125.3L187.868 114H189.018V127H187.768V115.9L179.418 127H178.168ZM183.593 112.2C182.526 112.2 181.684 111.95 181.068 111.45C180.468 110.933 180.168 110.283 180.168 109.5H181.118C181.118 110.05 181.334 110.5 181.768 110.85C182.201 111.2 182.809 111.375 183.593 111.375C184.393 111.375 185.001 111.208 185.418 110.875C185.834 110.525 186.051 110.067 186.068 109.5H187.018C187.018 110.283 186.709 110.933 186.093 111.45C185.493 111.95 184.659 112.2 183.593 112.2ZM199.31 127V114H200.56V119.775H208.585V114H209.835V127H208.585V120.9H200.56V127H199.31ZM213.739 127V114.025H214.989V125.3L223.439 114H224.589V127H223.339V115.9L214.989 127H213.739ZM228.461 127V114H229.711V125.875H235.661V114H236.911V125.875H242.861V114H244.111V127H228.461ZM248.016 127V114.025H249.266V125.3L257.716 114H258.866V127H257.616V115.9L249.266 127H248.016ZM263.213 129.025L263.588 127.05H263.138V124.875H264.413V127.05L263.888 129.025H263.213ZM275.116 127V114H276.366V119.775H278.766L283.366 114H284.841L279.766 120.325L285.516 127H283.991L278.766 120.925H276.366V127H275.116ZM292.871 127.25C291.954 127.25 291.104 127.075 290.321 126.725C289.554 126.375 288.887 125.892 288.321 125.275C287.754 124.642 287.312 123.917 286.996 123.1C286.679 122.283 286.521 121.425 286.521 120.525C286.521 119.608 286.679 118.75 286.996 117.95C287.312 117.133 287.754 116.417 288.321 115.8C288.904 115.167 289.579 114.675 290.346 114.325C291.129 113.958 291.971 113.775 292.871 113.775C293.771 113.775 294.604 113.958 295.371 114.325C296.137 114.675 296.812 115.167 297.396 115.8C297.979 116.417 298.429 117.133 298.746 117.95C299.062 118.75 299.221 119.608 299.221 120.525C299.221 121.425 299.062 122.283 298.746 123.1C298.429 123.917 297.979 124.642 297.396 125.275C296.829 125.892 296.154 126.375 295.371 126.725C294.604 127.075 293.771 127.25 292.871 127.25ZM287.771 120.575C287.771 121.592 287.996 122.525 288.446 123.375C288.912 124.208 289.529 124.875 290.296 125.375C291.062 125.875 291.912 126.125 292.846 126.125C293.779 126.125 294.629 125.875 295.396 125.375C296.179 124.858 296.796 124.175 297.246 123.325C297.712 122.458 297.946 121.517 297.946 120.5C297.946 119.483 297.712 118.55 297.246 117.7C296.796 116.85 296.179 116.175 295.396 115.675C294.629 115.158 293.787 114.9 292.871 114.9C291.937 114.9 291.087 115.158 290.321 115.675C289.554 116.192 288.937 116.875 288.471 117.725C288.004 118.575 287.771 119.525 287.771 120.575ZM305.541 127V115.125H300.766V114H311.591V115.125H306.791V127H305.541ZM319.458 127.25C318.541 127.25 317.691 127.075 316.908 126.725C316.141 126.375 315.474 125.892 314.908 125.275C314.341 124.642 313.899 123.917 313.583 123.1C313.266 122.283 313.108 121.425 313.108 120.525C313.108 119.608 313.266 118.75 313.583 117.95C313.899 117.133 314.341 116.417 314.908 115.8C315.491 115.167 316.166 114.675 316.933 114.325C317.716 113.958 318.558 113.775 319.458 113.775C320.358 113.775 321.191 113.958 321.958 114.325C322.724 114.675 323.399 115.167 323.983 115.8C324.566 116.417 325.016 117.133 325.333 117.95C325.649 118.75 325.808 119.608 325.808 120.525C325.808 121.425 325.649 122.283 325.333 123.1C325.016 123.917 324.566 124.642 323.983 125.275C323.416 125.892 322.741 126.375 321.958 126.725C321.191 127.075 320.358 127.25 319.458 127.25ZM314.358 120.575C314.358 121.592 314.583 122.525 315.033 123.375C315.499 124.208 316.116 124.875 316.883 125.375C317.649 125.875 318.499 126.125 319.433 126.125C320.366 126.125 321.216 125.875 321.983 125.375C322.766 124.858 323.383 124.175 323.833 123.325C324.299 122.458 324.533 121.517 324.533 120.5C324.533 119.483 324.299 118.55 323.833 117.7C323.383 116.85 322.766 116.175 321.983 115.675C321.216 115.158 320.374 114.9 319.458 114.9C318.524 114.9 317.674 115.158 316.908 115.675C316.141 116.192 315.524 116.875 315.058 117.725C314.591 118.575 314.358 119.525 314.358 120.575ZM335.153 127.25C334.036 127.25 333.036 126.958 332.153 126.375C331.286 125.775 330.586 125.05 330.053 124.2V132.325H328.803V114H329.953V116.6C330.486 115.767 331.194 115.092 332.078 114.575C332.961 114.042 333.894 113.775 334.878 113.775C335.794 113.775 336.628 113.967 337.378 114.35C338.128 114.717 338.778 115.225 339.328 115.875C339.894 116.508 340.328 117.225 340.628 118.025C340.944 118.825 341.103 119.658 341.103 120.525C341.103 121.725 340.853 122.842 340.353 123.875C339.853 124.892 339.153 125.708 338.253 126.325C337.369 126.942 336.336 127.25 335.153 127.25ZM334.853 126.125C335.619 126.125 336.303 125.967 336.903 125.65C337.519 125.333 338.044 124.908 338.478 124.375C338.911 123.842 339.244 123.242 339.478 122.575C339.711 121.908 339.828 121.225 339.828 120.525C339.828 119.775 339.694 119.067 339.428 118.4C339.161 117.717 338.786 117.117 338.303 116.6C337.836 116.083 337.286 115.675 336.653 115.375C336.036 115.058 335.361 114.9 334.628 114.9C334.178 114.9 333.694 114.992 333.178 115.175C332.678 115.358 332.194 115.617 331.728 115.95C331.278 116.283 330.903 116.667 330.603 117.1C330.303 117.517 330.119 117.95 330.053 118.4V122.675C330.353 123.308 330.736 123.892 331.203 124.425C331.686 124.942 332.244 125.358 332.878 125.675C333.511 125.975 334.169 126.125 334.853 126.125ZM344.11 127V114H345.36V118.725H348.56C350.01 118.725 351.093 119.1 351.81 119.85C352.543 120.6 352.91 121.575 352.91 122.775C352.91 123.542 352.752 124.25 352.435 124.9C352.118 125.55 351.643 126.067 351.01 126.45C350.393 126.817 349.61 127 348.66 127H344.11ZM345.36 125.975H348.535C349.268 125.975 349.86 125.825 350.31 125.525C350.777 125.225 351.11 124.833 351.31 124.35C351.527 123.867 351.635 123.35 351.635 122.8C351.635 122.267 351.543 121.767 351.36 121.3C351.177 120.833 350.852 120.458 350.385 120.175C349.935 119.892 349.302 119.75 348.485 119.75H345.36V125.975ZM355.385 127V114.025H356.635V127H355.385ZM366.09 127.25C365.174 127.25 364.324 127.075 363.54 126.725C362.757 126.358 362.074 125.867 361.49 125.25C360.924 124.617 360.474 123.892 360.14 123.075C359.824 122.242 359.665 121.367 359.665 120.45C359.665 119.217 359.94 118.1 360.49 117.1C361.04 116.1 361.799 115.3 362.765 114.7C363.732 114.083 364.815 113.775 366.015 113.775C367.249 113.775 368.34 114.083 369.29 114.7C370.24 115.317 370.99 116.133 371.54 117.15C372.107 118.15 372.39 119.25 372.39 120.45C372.39 120.55 372.39 120.65 372.39 120.75C372.39 120.85 372.382 120.933 372.365 121H360.965C361.032 121.983 361.307 122.875 361.79 123.675C362.274 124.475 362.89 125.108 363.64 125.575C364.407 126.025 365.24 126.25 366.14 126.25C367.04 126.25 367.89 126.017 368.69 125.55C369.49 125.083 370.049 124.483 370.365 123.75L371.465 124.05C371.215 124.667 370.815 125.217 370.265 125.7C369.732 126.183 369.099 126.567 368.365 126.85C367.649 127.117 366.89 127.25 366.09 127.25ZM360.915 120.025H371.19C371.124 119.008 370.857 118.108 370.39 117.325C369.924 116.542 369.307 115.925 368.54 115.475C367.79 115.025 366.957 114.8 366.04 114.8C365.124 114.8 364.29 115.025 363.54 115.475C362.79 115.925 362.182 116.542 361.715 117.325C361.249 118.108 360.982 119.008 360.915 120.025ZM381.461 114L385.611 119.375L385.811 119.725L386.011 119.375L390.136 114H391.586L386.536 120.525L391.561 127H390.111L386.011 121.65L385.811 121.325L385.611 121.65L381.486 127H380.061L385.061 120.525L380.036 114H381.461ZM399.414 127.25C398.497 127.25 397.647 127.075 396.864 126.725C396.097 126.375 395.43 125.892 394.864 125.275C394.297 124.642 393.855 123.917 393.539 123.1C393.222 122.283 393.064 121.425 393.064 120.525C393.064 119.608 393.222 118.75 393.539 117.95C393.855 117.133 394.297 116.417 394.864 115.8C395.447 115.167 396.122 114.675 396.889 114.325C397.672 113.958 398.514 113.775 399.414 113.775C400.314 113.775 401.147 113.958 401.914 114.325C402.68 114.675 403.355 115.167 403.939 115.8C404.522 116.417 404.972 117.133 405.289 117.95C405.605 118.75 405.764 119.608 405.764 120.525C405.764 121.425 405.605 122.283 405.289 123.1C404.972 123.917 404.522 124.642 403.939 125.275C403.372 125.892 402.697 126.375 401.914 126.725C401.147 127.075 400.314 127.25 399.414 127.25ZM394.314 120.575C394.314 121.592 394.539 122.525 394.989 123.375C395.455 124.208 396.072 124.875 396.839 125.375C397.605 125.875 398.455 126.125 399.389 126.125C400.322 126.125 401.172 125.875 401.939 125.375C402.722 124.858 403.339 124.175 403.789 123.325C404.255 122.458 404.489 121.517 404.489 120.5C404.489 119.483 404.255 118.55 403.789 117.7C403.339 116.85 402.722 116.175 401.939 115.675C401.172 115.158 400.33 114.9 399.414 114.9C398.48 114.9 397.63 115.158 396.864 115.675C396.097 116.192 395.48 116.875 395.014 117.725C394.547 118.575 394.314 119.525 394.314 120.575ZM412.084 127V115.125H407.309V114H418.134V115.125H413.334V127H412.084ZM419.234 127L423.284 121.625C422.35 121.525 421.6 121.15 421.034 120.5C420.484 119.833 420.209 118.933 420.209 117.8C420.209 117.083 420.375 116.442 420.709 115.875C421.059 115.308 421.542 114.85 422.159 114.5C422.792 114.15 423.534 113.975 424.384 113.975H429.034V127H427.784V121.8H424.559L420.659 127H419.234ZM424.209 120.8H427.784V115H424.559C423.625 115 422.875 115.267 422.309 115.8C421.742 116.333 421.459 117.008 421.459 117.825C421.459 118.642 421.684 119.342 422.134 119.925C422.6 120.508 423.292 120.8 424.209 120.8ZM436.254 127V115.125H431.479V114H442.304V115.125H437.504V127H436.254ZM127.316 161.25C126.199 161.25 125.199 160.958 124.316 160.375C123.449 159.775 122.749 159.05 122.216 158.2V166.325H120.966V148H122.116V150.6C122.649 149.767 123.357 149.092 124.241 148.575C125.124 148.042 126.057 147.775 127.041 147.775C127.957 147.775 128.791 147.967 129.541 148.35C130.291 148.717 130.941 149.225 131.491 149.875C132.057 150.508 132.491 151.225 132.791 152.025C133.107 152.825 133.266 153.658 133.266 154.525C133.266 155.725 133.016 156.842 132.516 157.875C132.016 158.892 131.316 159.708 130.416 160.325C129.532 160.942 128.499 161.25 127.316 161.25ZM127.016 160.125C127.782 160.125 128.466 159.967 129.066 159.65C129.682 159.333 130.207 158.908 130.641 158.375C131.074 157.842 131.407 157.242 131.641 156.575C131.874 155.908 131.991 155.225 131.991 154.525C131.991 153.775 131.857 153.067 131.591 152.4C131.324 151.717 130.949 151.117 130.466 150.6C129.999 150.083 129.449 149.675 128.816 149.375C128.199 149.058 127.524 148.9 126.791 148.9C126.341 148.9 125.857 148.992 125.341 149.175C124.841 149.358 124.357 149.617 123.891 149.95C123.441 150.283 123.066 150.667 122.766 151.1C122.466 151.517 122.282 151.95 122.216 152.4V156.675C122.516 157.308 122.899 157.892 123.366 158.425C123.849 158.942 124.407 159.358 125.041 159.675C125.674 159.975 126.332 160.125 127.016 160.125ZM135.198 157.25C135.198 156.467 135.432 155.792 135.898 155.225C136.365 154.642 137.007 154.192 137.823 153.875C138.64 153.542 139.582 153.375 140.648 153.375C141.315 153.375 142.007 153.433 142.723 153.55C143.44 153.667 144.082 153.825 144.648 154.025V152.8C144.648 151.6 144.298 150.642 143.598 149.925C142.915 149.208 141.965 148.85 140.748 148.85C140.098 148.85 139.423 148.983 138.723 149.25C138.023 149.517 137.307 149.9 136.573 150.4L136.048 149.5C136.898 148.933 137.715 148.508 138.498 148.225C139.298 147.925 140.09 147.775 140.873 147.775C142.423 147.775 143.648 148.233 144.548 149.15C145.448 150.067 145.898 151.317 145.898 152.9V159.35C145.898 159.55 145.94 159.7 146.023 159.8C146.123 159.9 146.265 159.958 146.448 159.975V161C146.298 161.017 146.173 161.025 146.073 161.025C145.973 161.025 145.89 161.025 145.823 161.025C145.507 160.975 145.257 160.842 145.073 160.625C144.907 160.408 144.815 160.167 144.798 159.9V158.875C144.198 159.625 143.423 160.208 142.473 160.625C141.54 161.042 140.557 161.25 139.523 161.25C138.707 161.25 137.965 161.075 137.298 160.725C136.648 160.375 136.132 159.9 135.748 159.3C135.382 158.683 135.198 158 135.198 157.25ZM144.148 158.325C144.315 158.108 144.44 157.9 144.523 157.7C144.607 157.5 144.648 157.317 144.648 157.15V155C144.048 154.767 143.423 154.592 142.773 154.475C142.123 154.358 141.457 154.3 140.773 154.3C139.473 154.3 138.415 154.558 137.598 155.075C136.798 155.592 136.398 156.292 136.398 157.175C136.398 157.725 136.54 158.233 136.823 158.7C137.107 159.167 137.498 159.542 137.998 159.825C138.515 160.108 139.107 160.25 139.773 160.25C140.707 160.25 141.565 160.075 142.348 159.725C143.148 159.358 143.748 158.892 144.148 158.325ZM155.226 161.25C154.326 161.25 153.484 161.075 152.701 160.725C151.918 160.358 151.234 159.867 150.651 159.25C150.068 158.617 149.609 157.892 149.276 157.075C148.959 156.258 148.801 155.383 148.801 154.45C148.801 153.2 149.076 152.075 149.626 151.075C150.176 150.075 150.934 149.275 151.901 148.675C152.868 148.075 153.968 147.775 155.201 147.775C156.384 147.775 157.426 148.05 158.326 148.6C159.226 149.133 159.901 149.867 160.351 150.8L159.126 151.2C158.743 150.483 158.193 149.925 157.476 149.525C156.776 149.108 156.001 148.9 155.151 148.9C154.201 148.9 153.343 149.142 152.576 149.625C151.809 150.108 151.193 150.775 150.726 151.625C150.276 152.458 150.051 153.4 150.051 154.45C150.051 155.483 150.284 156.433 150.751 157.3C151.218 158.167 151.834 158.858 152.601 159.375C153.384 159.875 154.243 160.125 155.176 160.125C155.776 160.125 156.359 160.017 156.926 159.8C157.509 159.567 158.009 159.267 158.426 158.9C158.859 158.533 159.143 158.142 159.276 157.725L160.501 158.075C160.284 158.692 159.909 159.242 159.376 159.725C158.843 160.192 158.218 160.567 157.501 160.85C156.801 161.117 156.043 161.25 155.226 161.25ZM168.727 161.25C167.827 161.25 166.985 161.075 166.202 160.725C165.419 160.358 164.735 159.867 164.152 159.25C163.569 158.617 163.11 157.892 162.777 157.075C162.46 156.258 162.302 155.383 162.302 154.45C162.302 153.2 162.577 152.075 163.127 151.075C163.677 150.075 164.435 149.275 165.402 148.675C166.369 148.075 167.469 147.775 168.702 147.775C169.885 147.775 170.927 148.05 171.827 148.6C172.727 149.133 173.402 149.867 173.852 150.8L172.627 151.2C172.244 150.483 171.694 149.925 170.977 149.525C170.277 149.108 169.502 148.9 168.652 148.9C167.702 148.9 166.844 149.142 166.077 149.625C165.31 150.108 164.694 150.775 164.227 151.625C163.777 152.458 163.552 153.4 163.552 154.45C163.552 155.483 163.785 156.433 164.252 157.3C164.719 158.167 165.335 158.858 166.102 159.375C166.885 159.875 167.744 160.125 168.677 160.125C169.277 160.125 169.86 160.017 170.427 159.8C171.01 159.567 171.51 159.267 171.927 158.9C172.36 158.533 172.644 158.142 172.777 157.725L174.002 158.075C173.785 158.692 173.41 159.242 172.877 159.725C172.344 160.192 171.719 160.567 171.002 160.85C170.302 161.117 169.544 161.25 168.727 161.25ZM176.825 161V148H178.075V153.775H180.475L185.075 148H186.55L181.475 154.325L187.225 161H185.7L180.475 154.925H178.075V161H176.825ZM188.641 157.25C188.641 156.467 188.874 155.792 189.341 155.225C189.807 154.642 190.449 154.192 191.266 153.875C192.082 153.542 193.024 153.375 194.091 153.375C194.757 153.375 195.449 153.433 196.166 153.55C196.882 153.667 197.524 153.825 198.091 154.025V152.8C198.091 151.6 197.741 150.642 197.041 149.925C196.357 149.208 195.407 148.85 194.191 148.85C193.541 148.85 192.866 148.983 192.166 149.25C191.466 149.517 190.749 149.9 190.016 150.4L189.491 149.5C190.341 148.933 191.157 148.508 191.941 148.225C192.741 147.925 193.532 147.775 194.316 147.775C195.866 147.775 197.091 148.233 197.991 149.15C198.891 150.067 199.341 151.317 199.341 152.9V159.35C199.341 159.55 199.382 159.7 199.466 159.8C199.566 159.9 199.707 159.958 199.891 159.975V161C199.741 161.017 199.616 161.025 199.516 161.025C199.416 161.025 199.332 161.025 199.266 161.025C198.949 160.975 198.699 160.842 198.516 160.625C198.349 160.408 198.257 160.167 198.241 159.9V158.875C197.641 159.625 196.866 160.208 195.916 160.625C194.982 161.042 193.999 161.25 192.966 161.25C192.149 161.25 191.407 161.075 190.741 160.725C190.091 160.375 189.574 159.9 189.191 159.3C188.824 158.683 188.641 158 188.641 157.25ZM197.591 158.325C197.757 158.108 197.882 157.9 197.966 157.7C198.049 157.5 198.091 157.317 198.091 157.15V155C197.491 154.767 196.866 154.592 196.216 154.475C195.566 154.358 194.899 154.3 194.216 154.3C192.916 154.3 191.857 154.558 191.041 155.075C190.241 155.592 189.841 156.292 189.841 157.175C189.841 157.725 189.982 158.233 190.266 158.7C190.549 159.167 190.941 159.542 191.441 159.825C191.957 160.108 192.549 160.25 193.216 160.25C194.149 160.25 195.007 160.075 195.791 159.725C196.591 159.358 197.191 158.892 197.591 158.325ZM206.643 161.15C205.51 161.15 204.527 160.925 203.693 160.475C202.86 160.008 202.235 159.367 201.818 158.55L202.868 158.1C203.185 158.717 203.66 159.2 204.293 159.55C204.943 159.9 205.718 160.075 206.618 160.075C207.702 160.075 208.568 159.825 209.218 159.325C209.885 158.808 210.218 158.117 210.218 157.25C210.218 156.483 209.96 155.858 209.443 155.375C208.927 154.892 208.218 154.642 207.318 154.625H205.993V153.7H207.418C207.802 153.7 208.152 153.592 208.468 153.375C208.785 153.158 209.035 152.867 209.218 152.5C209.402 152.133 209.493 151.725 209.493 151.275C209.493 150.558 209.243 149.983 208.743 149.55C208.26 149.1 207.543 148.875 206.593 148.875C205.827 148.875 205.177 149.033 204.643 149.35C204.127 149.667 203.718 150.125 203.418 150.725L202.443 150.225C202.81 149.458 203.352 148.867 204.068 148.45C204.802 148.017 205.652 147.8 206.618 147.8C207.418 147.8 208.118 147.942 208.718 148.225C209.318 148.492 209.793 148.875 210.143 149.375C210.493 149.858 210.668 150.45 210.668 151.15C210.668 151.8 210.51 152.392 210.193 152.925C209.893 153.442 209.485 153.833 208.968 154.1C209.735 154.333 210.327 154.742 210.743 155.325C211.177 155.908 211.393 156.6 211.393 157.4C211.393 158.167 211.193 158.833 210.793 159.4C210.393 159.95 209.835 160.383 209.118 160.7C208.418 161 207.593 161.15 206.643 161.15ZM213.323 157.25C213.323 156.467 213.557 155.792 214.023 155.225C214.49 154.642 215.132 154.192 215.948 153.875C216.765 153.542 217.707 153.375 218.773 153.375C219.44 153.375 220.132 153.433 220.848 153.55C221.565 153.667 222.207 153.825 222.773 154.025V152.8C222.773 151.6 222.423 150.642 221.723 149.925C221.04 149.208 220.09 148.85 218.873 148.85C218.223 148.85 217.548 148.983 216.848 149.25C216.148 149.517 215.432 149.9 214.698 150.4L214.173 149.5C215.023 148.933 215.84 148.508 216.623 148.225C217.423 147.925 218.215 147.775 218.998 147.775C220.548 147.775 221.773 148.233 222.673 149.15C223.573 150.067 224.023 151.317 224.023 152.9V159.35C224.023 159.55 224.065 159.7 224.148 159.8C224.248 159.9 224.39 159.958 224.573 159.975V161C224.423 161.017 224.298 161.025 224.198 161.025C224.098 161.025 224.015 161.025 223.948 161.025C223.632 160.975 223.382 160.842 223.198 160.625C223.032 160.408 222.94 160.167 222.923 159.9V158.875C222.323 159.625 221.548 160.208 220.598 160.625C219.665 161.042 218.682 161.25 217.648 161.25C216.832 161.25 216.09 161.075 215.423 160.725C214.773 160.375 214.257 159.9 213.873 159.3C213.507 158.683 213.323 158 213.323 157.25ZM222.273 158.325C222.44 158.108 222.565 157.9 222.648 157.7C222.732 157.5 222.773 157.317 222.773 157.15V155C222.173 154.767 221.548 154.592 220.898 154.475C220.248 154.358 219.582 154.3 218.898 154.3C217.598 154.3 216.54 154.558 215.723 155.075C214.923 155.592 214.523 156.292 214.523 157.175C214.523 157.725 214.665 158.233 214.948 158.7C215.232 159.167 215.623 159.542 216.123 159.825C216.64 160.108 217.232 160.25 217.898 160.25C218.832 160.25 219.69 160.075 220.473 159.725C221.273 159.358 221.873 158.892 222.273 158.325ZM230.882 161V149.125H226.107V148H236.932V149.125H232.132V161H230.882ZM239.349 161V148H240.599V152.725H244.074C245.524 152.725 246.608 153.1 247.324 153.85C248.041 154.6 248.399 155.575 248.399 156.775C248.399 157.542 248.241 158.25 247.924 158.9C247.608 159.55 247.133 160.067 246.499 160.45C245.883 160.817 245.108 161 244.174 161H239.349ZM240.599 159.975H244.024C244.774 159.975 245.374 159.825 245.824 159.525C246.291 159.225 246.624 158.833 246.824 158.35C247.041 157.867 247.149 157.35 247.149 156.8C247.149 156.267 247.049 155.767 246.849 155.3C246.666 154.833 246.341 154.458 245.874 154.175C245.424 153.892 244.791 153.75 243.974 153.75H240.599V159.975ZM263.134 161.25C262.218 161.25 261.368 161.075 260.584 160.725C259.818 160.375 259.151 159.892 258.584 159.275C258.018 158.642 257.576 157.917 257.259 157.1C256.943 156.283 256.784 155.425 256.784 154.525C256.784 153.608 256.943 152.75 257.259 151.95C257.576 151.133 258.018 150.417 258.584 149.8C259.168 149.167 259.843 148.675 260.609 148.325C261.393 147.958 262.234 147.775 263.134 147.775C264.034 147.775 264.868 147.958 265.634 148.325C266.401 148.675 267.076 149.167 267.659 149.8C268.243 150.417 268.693 151.133 269.009 151.95C269.326 152.75 269.484 153.608 269.484 154.525C269.484 155.425 269.326 156.283 269.009 157.1C268.693 157.917 268.243 158.642 267.659 159.275C267.093 159.892 266.418 160.375 265.634 160.725C264.868 161.075 264.034 161.25 263.134 161.25ZM258.034 154.575C258.034 155.592 258.259 156.525 258.709 157.375C259.176 158.208 259.793 158.875 260.559 159.375C261.326 159.875 262.176 160.125 263.109 160.125C264.043 160.125 264.893 159.875 265.659 159.375C266.443 158.858 267.059 158.175 267.509 157.325C267.976 156.458 268.209 155.517 268.209 154.5C268.209 153.483 267.976 152.55 267.509 151.7C267.059 150.85 266.443 150.175 265.659 149.675C264.893 149.158 264.051 148.9 263.134 148.9C262.201 148.9 261.351 149.158 260.584 149.675C259.818 150.192 259.201 150.875 258.734 151.725C258.268 152.575 258.034 153.525 258.034 154.575ZM284.425 161.25C283.525 161.25 282.684 161.075 281.9 160.725C281.117 160.358 280.434 159.867 279.85 159.25C279.267 158.617 278.809 157.892 278.475 157.075C278.159 156.258 278 155.383 278 154.45C278 153.2 278.275 152.075 278.825 151.075C279.375 150.075 280.134 149.275 281.1 148.675C282.067 148.075 283.167 147.775 284.4 147.775C285.584 147.775 286.625 148.05 287.525 148.6C288.425 149.133 289.1 149.867 289.55 150.8L288.325 151.2C287.942 150.483 287.392 149.925 286.675 149.525C285.975 149.108 285.2 148.9 284.35 148.9C283.4 148.9 282.542 149.142 281.775 149.625C281.009 150.108 280.392 150.775 279.925 151.625C279.475 152.458 279.25 153.4 279.25 154.45C279.25 155.483 279.484 156.433 279.95 157.3C280.417 158.167 281.034 158.858 281.8 159.375C282.584 159.875 283.442 160.125 284.375 160.125C284.975 160.125 285.559 160.017 286.125 159.8C286.709 159.567 287.209 159.267 287.625 158.9C288.059 158.533 288.342 158.142 288.475 157.725L289.7 158.075C289.484 158.692 289.109 159.242 288.575 159.725C288.042 160.192 287.417 160.567 286.7 160.85C286 161.117 285.242 161.25 284.425 161.25ZM297.926 161.25C297.01 161.25 296.16 161.075 295.376 160.725C294.593 160.358 293.91 159.867 293.326 159.25C292.76 158.617 292.31 157.892 291.976 157.075C291.66 156.242 291.501 155.367 291.501 154.45C291.501 153.217 291.776 152.1 292.326 151.1C292.876 150.1 293.635 149.3 294.601 148.7C295.568 148.083 296.651 147.775 297.851 147.775C299.085 147.775 300.176 148.083 301.126 148.7C302.076 149.317 302.826 150.133 303.376 151.15C303.943 152.15 304.226 153.25 304.226 154.45C304.226 154.55 304.226 154.65 304.226 154.75C304.226 154.85 304.218 154.933 304.201 155H292.801C292.868 155.983 293.143 156.875 293.626 157.675C294.11 158.475 294.726 159.108 295.476 159.575C296.243 160.025 297.076 160.25 297.976 160.25C298.876 160.25 299.726 160.017 300.526 159.55C301.326 159.083 301.885 158.483 302.201 157.75L303.301 158.05C303.051 158.667 302.651 159.217 302.101 159.7C301.568 160.183 300.935 160.567 300.201 160.85C299.485 161.117 298.726 161.25 297.926 161.25ZM292.751 154.025H303.026C302.96 153.008 302.693 152.108 302.226 151.325C301.76 150.542 301.143 149.925 300.376 149.475C299.626 149.025 298.793 148.8 297.876 148.8C296.96 148.8 296.126 149.025 295.376 149.475C294.626 149.925 294.018 150.542 293.551 151.325C293.085 152.108 292.818 153.008 292.751 154.025ZM312.826 161.25C310.743 161.25 309.176 160.608 308.126 159.325C307.093 158.042 306.576 156.3 306.576 154.1C306.576 152.467 306.701 151.092 306.951 149.975C307.218 148.842 307.601 147.917 308.101 147.2C308.618 146.467 309.243 145.867 309.976 145.4C310.726 144.933 311.576 144.542 312.526 144.225L317.951 142.325L318.126 143.425L312.926 145.225C311.843 145.608 310.943 146.075 310.226 146.625C309.526 147.175 308.976 147.883 308.576 148.75C308.193 149.6 307.943 150.7 307.826 152.05C308.26 151.017 308.935 150.225 309.851 149.675C310.785 149.125 311.86 148.85 313.076 148.85C314.36 148.85 315.451 149.108 316.351 149.625C317.251 150.142 317.926 150.867 318.376 151.8C318.843 152.717 319.076 153.775 319.076 154.975C319.076 156.258 318.835 157.367 318.351 158.3C317.868 159.233 317.16 159.958 316.226 160.475C315.31 160.992 314.176 161.25 312.826 161.25ZM312.826 160.125C314.426 160.125 315.651 159.667 316.501 158.75C317.368 157.817 317.801 156.575 317.801 155.025C317.801 153.525 317.376 152.3 316.526 151.35C315.693 150.4 314.46 149.925 312.826 149.925C311.893 149.925 311.051 150.125 310.301 150.525C309.551 150.908 308.951 151.483 308.501 152.25C308.068 153 307.851 153.925 307.851 155.025C307.851 155.992 308.043 156.867 308.426 157.65C308.81 158.417 309.368 159.025 310.101 159.475C310.835 159.908 311.743 160.125 312.826 160.125ZM327.589 161.25C326.673 161.25 325.823 161.075 325.039 160.725C324.256 160.358 323.573 159.867 322.989 159.25C322.423 158.617 321.973 157.892 321.639 157.075C321.323 156.242 321.164 155.367 321.164 154.45C321.164 153.217 321.439 152.1 321.989 151.1C322.539 150.1 323.298 149.3 324.264 148.7C325.231 148.083 326.314 147.775 327.514 147.775C328.748 147.775 329.839 148.083 330.789 148.7C331.739 149.317 332.489 150.133 333.039 151.15C333.606 152.15 333.889 153.25 333.889 154.45C333.889 154.55 333.889 154.65 333.889 154.75C333.889 154.85 333.881 154.933 333.864 155H322.464C322.531 155.983 322.806 156.875 323.289 157.675C323.773 158.475 324.389 159.108 325.139 159.575C325.906 160.025 326.739 160.25 327.639 160.25C328.539 160.25 329.389 160.017 330.189 159.55C330.989 159.083 331.548 158.483 331.864 157.75L332.964 158.05C332.714 158.667 332.314 159.217 331.764 159.7C331.231 160.183 330.598 160.567 329.864 160.85C329.148 161.117 328.389 161.25 327.589 161.25ZM322.414 154.025H332.689C332.623 153.008 332.356 152.108 331.889 151.325C331.423 150.542 330.806 149.925 330.039 149.475C329.289 149.025 328.456 148.8 327.539 148.8C326.623 148.8 325.789 149.025 325.039 149.475C324.289 149.925 323.681 150.542 323.214 151.325C322.748 152.108 322.481 153.008 322.414 154.025ZM337.114 163.025L337.489 161.05H337.039V158.875H338.314V161.05L337.789 163.025H337.114ZM354.467 161.25C353.551 161.25 352.701 161.075 351.917 160.725C351.151 160.375 350.484 159.892 349.917 159.275C349.351 158.642 348.909 157.917 348.592 157.1C348.276 156.283 348.117 155.425 348.117 154.525C348.117 153.608 348.276 152.75 348.592 151.95C348.909 151.133 349.351 150.417 349.917 149.8C350.501 149.167 351.176 148.675 351.942 148.325C352.726 147.958 353.567 147.775 354.467 147.775C355.367 147.775 356.201 147.958 356.967 148.325C357.734 148.675 358.409 149.167 358.992 149.8C359.576 150.417 360.026 151.133 360.342 151.95C360.659 152.75 360.817 153.608 360.817 154.525C360.817 155.425 360.659 156.283 360.342 157.1C360.026 157.917 359.576 158.642 358.992 159.275C358.426 159.892 357.751 160.375 356.967 160.725C356.201 161.075 355.367 161.25 354.467 161.25ZM349.367 154.575C349.367 155.592 349.592 156.525 350.042 157.375C350.509 158.208 351.126 158.875 351.892 159.375C352.659 159.875 353.509 160.125 354.442 160.125C355.376 160.125 356.226 159.875 356.992 159.375C357.776 158.858 358.392 158.175 358.842 157.325C359.309 156.458 359.542 155.517 359.542 154.5C359.542 153.483 359.309 152.55 358.842 151.7C358.392 150.85 357.776 150.175 356.992 149.675C356.226 149.158 355.384 148.9 354.467 148.9C353.534 148.9 352.684 149.158 351.917 149.675C351.151 150.192 350.534 150.875 350.067 151.725C349.601 152.575 349.367 153.525 349.367 154.575ZM375.758 161.25C374.858 161.25 374.017 161.075 373.233 160.725C372.45 160.358 371.767 159.867 371.183 159.25C370.6 158.617 370.142 157.892 369.808 157.075C369.492 156.258 369.333 155.383 369.333 154.45C369.333 153.2 369.608 152.075 370.158 151.075C370.708 150.075 371.467 149.275 372.433 148.675C373.4 148.075 374.5 147.775 375.733 147.775C376.917 147.775 377.958 148.05 378.858 148.6C379.758 149.133 380.433 149.867 380.883 150.8L379.658 151.2C379.275 150.483 378.725 149.925 378.008 149.525C377.308 149.108 376.533 148.9 375.683 148.9C374.733 148.9 373.875 149.142 373.108 149.625C372.342 150.108 371.725 150.775 371.258 151.625C370.808 152.458 370.583 153.4 370.583 154.45C370.583 155.483 370.817 156.433 371.283 157.3C371.75 158.167 372.367 158.858 373.133 159.375C373.917 159.875 374.775 160.125 375.708 160.125C376.308 160.125 376.892 160.017 377.458 159.8C378.042 159.567 378.542 159.267 378.958 158.9C379.392 158.533 379.675 158.142 379.808 157.725L381.033 158.075C380.817 158.692 380.442 159.242 379.908 159.725C379.375 160.192 378.75 160.567 378.033 160.85C377.333 161.117 376.575 161.25 375.758 161.25ZM383.856 161V148H390.131C390.831 148 391.415 148.158 391.881 148.475C392.365 148.775 392.731 149.175 392.981 149.675C393.248 150.158 393.381 150.667 393.381 151.2C393.381 151.883 393.206 152.508 392.856 153.075C392.523 153.642 392.056 154.058 391.456 154.325C392.206 154.542 392.806 154.942 393.256 155.525C393.706 156.108 393.931 156.792 393.931 157.575C393.931 158.242 393.765 158.833 393.431 159.35C393.115 159.867 392.673 160.275 392.106 160.575C391.556 160.858 390.923 161 390.206 161H383.856ZM385.056 160.05H390.181C390.665 160.05 391.098 159.925 391.481 159.675C391.865 159.425 392.165 159.108 392.381 158.725C392.615 158.325 392.731 157.908 392.731 157.475C392.731 157.008 392.623 156.583 392.406 156.2C392.19 155.817 391.898 155.508 391.531 155.275C391.165 155.025 390.748 154.9 390.281 154.9H385.056V160.05ZM385.056 154H389.781C390.265 154 390.681 153.875 391.031 153.625C391.381 153.358 391.656 153.025 391.856 152.625C392.056 152.225 392.156 151.808 392.156 151.375C392.156 150.725 391.948 150.158 391.531 149.675C391.115 149.192 390.565 148.95 389.881 148.95H385.056V154ZM402.465 161.25C401.549 161.25 400.699 161.075 399.915 160.725C399.149 160.375 398.482 159.892 397.915 159.275C397.349 158.642 396.907 157.917 396.59 157.1C396.274 156.283 396.115 155.425 396.115 154.525C396.115 153.608 396.274 152.75 396.59 151.95C396.907 151.133 397.349 150.417 397.915 149.8C398.499 149.167 399.174 148.675 399.94 148.325C400.724 147.958 401.565 147.775 402.465 147.775C403.365 147.775 404.199 147.958 404.965 148.325C405.732 148.675 406.407 149.167 406.99 149.8C407.574 150.417 408.024 151.133 408.34 151.95C408.657 152.75 408.815 153.608 408.815 154.525C408.815 155.425 408.657 156.283 408.34 157.1C408.024 157.917 407.574 158.642 406.99 159.275C406.424 159.892 405.749 160.375 404.965 160.725C404.199 161.075 403.365 161.25 402.465 161.25ZM397.365 154.575C397.365 155.592 397.59 156.525 398.04 157.375C398.507 158.208 399.124 158.875 399.89 159.375C400.657 159.875 401.507 160.125 402.44 160.125C403.374 160.125 404.224 159.875 404.99 159.375C405.774 158.858 406.39 158.175 406.84 157.325C407.307 156.458 407.54 155.517 407.54 154.5C407.54 153.483 407.307 152.55 406.84 151.7C406.39 150.85 405.774 150.175 404.99 149.675C404.224 149.158 403.382 148.9 402.465 148.9C401.532 148.9 400.682 149.158 399.915 149.675C399.149 150.192 398.532 150.875 398.065 151.725C397.599 152.575 397.365 153.525 397.365 154.575ZM411.81 161V148.025H413.06V159.3L421.51 148H422.66V161H421.41V149.9L413.06 161H411.81ZM426.432 148L430.582 153.375L430.782 153.725L430.982 153.375L435.107 148H436.557L431.507 154.525L436.532 161H435.082L430.982 155.65L430.782 155.325L430.582 155.65L426.457 161H425.032L430.032 154.525L425.007 148H426.432ZM236.18 200.425C235.914 200.425 235.63 200.375 235.33 200.275C235.047 200.192 234.755 200.058 234.455 199.875L234.93 198.95C235.147 199.083 235.347 199.183 235.53 199.25C235.714 199.333 235.914 199.375 236.13 199.375C236.614 199.375 237.055 199.133 237.455 198.65C237.855 198.167 238.239 197.475 238.605 196.575L239.305 194.95L233.405 182H234.73L239.88 193.675L244.655 182H245.93L239.605 197C239.255 197.817 238.905 198.475 238.555 198.975C238.205 199.475 237.839 199.842 237.455 200.075C237.072 200.308 236.647 200.425 236.18 200.425ZM253.517 195.25C252.617 195.25 251.775 195.075 250.992 194.725C250.209 194.358 249.525 193.867 248.942 193.25C248.359 192.617 247.9 191.892 247.567 191.075C247.25 190.258 247.092 189.383 247.092 188.45C247.092 187.2 247.367 186.075 247.917 185.075C248.467 184.075 249.225 183.275 250.192 182.675C251.159 182.075 252.259 181.775 253.492 181.775C254.675 181.775 255.717 182.05 256.617 182.6C257.517 183.133 258.192 183.867 258.642 184.8L257.417 185.2C257.034 184.483 256.484 183.925 255.767 183.525C255.067 183.108 254.292 182.9 253.442 182.9C252.492 182.9 251.634 183.142 250.867 183.625C250.1 184.108 249.484 184.775 249.017 185.625C248.567 186.458 248.342 187.4 248.342 188.45C248.342 189.483 248.575 190.433 249.042 191.3C249.509 192.167 250.125 192.858 250.892 193.375C251.675 193.875 252.534 194.125 253.467 194.125C254.067 194.125 254.65 194.017 255.217 193.8C255.8 193.567 256.3 193.267 256.717 192.9C257.15 192.533 257.434 192.142 257.567 191.725L258.792 192.075C258.575 192.692 258.2 193.242 257.667 193.725C257.134 194.192 256.509 194.567 255.792 194.85C255.092 195.117 254.334 195.25 253.517 195.25ZM260.29 195.05V193.9C260.74 193.9 261.148 193.775 261.515 193.525C261.882 193.258 262.207 192.817 262.49 192.2C262.773 191.583 262.998 190.733 263.165 189.65C263.348 188.55 263.465 187.167 263.515 185.5L263.64 182H271.74V195H270.49V183.125H264.765L264.715 185.575C264.648 187.408 264.507 188.942 264.29 190.175C264.09 191.392 263.807 192.358 263.44 193.075C263.073 193.775 262.623 194.283 262.09 194.6C261.573 194.9 260.973 195.05 260.29 195.05ZM276.879 200.425C276.612 200.425 276.329 200.375 276.029 200.275C275.745 200.192 275.454 200.058 275.154 199.875L275.629 198.95C275.845 199.083 276.045 199.183 276.229 199.25C276.412 199.333 276.612 199.375 276.829 199.375C277.312 199.375 277.754 199.133 278.154 198.65C278.554 198.167 278.937 197.475 279.304 196.575L280.004 194.95L274.104 182H275.429L280.579 193.675L285.354 182H286.629L280.304 197C279.954 197.817 279.604 198.475 279.254 198.975C278.904 199.475 278.537 199.842 278.154 200.075C277.77 200.308 277.345 200.425 276.879 200.425ZM289.13 195V182H296.655V183.125H290.38V195H289.13ZM298.064 191.25C298.064 190.467 298.298 189.792 298.764 189.225C299.231 188.642 299.873 188.192 300.689 187.875C301.506 187.542 302.448 187.375 303.514 187.375C304.181 187.375 304.873 187.433 305.589 187.55C306.306 187.667 306.948 187.825 307.514 188.025V186.8C307.514 185.6 307.164 184.642 306.464 183.925C305.781 183.208 304.831 182.85 303.614 182.85C302.964 182.85 302.289 182.983 301.589 183.25C300.889 183.517 300.173 183.9 299.439 184.4L298.914 183.5C299.764 182.933 300.581 182.508 301.364 182.225C302.164 181.925 302.956 181.775 303.739 181.775C305.289 181.775 306.514 182.233 307.414 183.15C308.314 184.067 308.764 185.317 308.764 186.9V193.35C308.764 193.55 308.806 193.7 308.889 193.8C308.989 193.9 309.131 193.958 309.314 193.975V195C309.164 195.017 309.039 195.025 308.939 195.025C308.839 195.025 308.756 195.025 308.689 195.025C308.373 194.975 308.123 194.842 307.939 194.625C307.773 194.408 307.681 194.167 307.664 193.9V192.875C307.064 193.625 306.289 194.208 305.339 194.625C304.406 195.042 303.423 195.25 302.389 195.25C301.573 195.25 300.831 195.075 300.164 194.725C299.514 194.375 298.998 193.9 298.614 193.3C298.248 192.683 298.064 192 298.064 191.25ZM307.014 192.325C307.181 192.108 307.306 191.9 307.389 191.7C307.473 191.5 307.514 191.317 307.514 191.15V189C306.914 188.767 306.289 188.592 305.639 188.475C304.989 188.358 304.323 188.3 303.639 188.3C302.339 188.3 301.281 188.558 300.464 189.075C299.664 189.592 299.264 190.292 299.264 191.175C299.264 191.725 299.406 192.233 299.689 192.7C299.973 193.167 300.364 193.542 300.864 193.825C301.381 194.108 301.973 194.25 302.639 194.25C303.573 194.25 304.431 194.075 305.214 193.725C306.014 193.358 306.614 192.892 307.014 192.325ZM312.467 182L316.617 187.375L316.817 187.725L317.017 187.375L321.142 182H322.592L317.542 188.525L322.567 195H321.117L317.017 189.65L316.817 189.325L316.617 189.65L312.492 195H311.067L316.067 188.525L311.042 182H312.467Z" fill="white"/>
</svg>
