<svg width="589" height="228" viewBox="0 0 589 228" fill="none" xmlns="http://www.w3.org/2000/svg">
<path d="M130.004 62V30.05H136.169V53.27L151.649 30.05H157.409V62H151.244V39.05L135.944 62H130.004ZM163.691 62V38.42H169.721V47.42H179.261V38.42H185.291V62H179.261V52.46H169.721V62H163.691ZM201.786 71.585V62H201.111C198.621 62 196.491 61.46 194.721 60.38C192.981 59.27 191.646 57.83 190.716 56.06C189.786 54.26 189.321 52.325 189.321 50.255C189.321 48.125 189.786 46.175 190.716 44.405C191.676 42.605 193.026 41.165 194.766 40.085C196.536 39.005 198.651 38.465 201.111 38.465H201.786V29.15H207.816V38.465H208.536C210.996 38.465 213.111 39.005 214.881 40.085C216.651 41.165 218.001 42.605 218.931 44.405C219.861 46.175 220.326 48.125 220.326 50.255C220.326 52.325 219.861 54.26 218.931 56.06C218.001 57.83 216.651 59.27 214.881 60.38C213.141 61.46 211.026 62 208.536 62H207.816V71.585H201.786ZM201.111 57.185H202.101V43.28H201.111C199.971 43.28 198.951 43.58 198.051 44.18C197.181 44.78 196.491 45.605 195.981 46.655C195.471 47.705 195.216 48.905 195.216 50.255C195.216 51.605 195.471 52.805 195.981 53.855C196.491 54.905 197.181 55.73 198.051 56.33C198.921 56.9 199.941 57.185 201.111 57.185ZM207.546 57.185H208.536C209.706 57.185 210.726 56.9 211.596 56.33C212.496 55.73 213.186 54.905 213.666 53.855C214.176 52.805 214.431 51.605 214.431 50.255C214.431 48.905 214.176 47.705 213.666 46.655C213.156 45.605 212.466 44.78 211.596 44.18C210.726 43.58 209.706 43.28 208.536 43.28H207.546V57.185ZM235.226 62.45C233.306 62.45 231.581 62.135 230.051 61.505C228.521 60.845 227.216 59.945 226.136 58.805C225.086 57.665 224.276 56.36 223.706 54.89C223.136 53.42 222.851 51.875 222.851 50.255C222.851 48.605 223.136 47.045 223.706 45.575C224.276 44.105 225.086 42.8 226.136 41.66C227.216 40.52 228.521 39.635 230.051 39.005C231.581 38.345 233.306 38.015 235.226 38.015C237.146 38.015 238.856 38.345 240.356 39.005C241.886 39.635 243.191 40.52 244.271 41.66C245.351 42.8 246.161 44.105 246.701 45.575C247.271 47.045 247.556 48.605 247.556 50.255C247.556 51.875 247.271 53.42 246.701 54.89C246.161 56.36 245.351 57.665 244.271 58.805C243.221 59.945 241.931 60.845 240.401 61.505C238.871 62.135 237.146 62.45 235.226 62.45ZM229.061 50.255C229.061 51.635 229.331 52.865 229.871 53.945C230.411 54.995 231.146 55.82 232.076 56.42C233.006 57.02 234.056 57.32 235.226 57.32C236.366 57.32 237.401 57.02 238.331 56.42C239.261 55.79 239.996 54.95 240.536 53.9C241.106 52.82 241.391 51.59 241.391 50.21C241.391 48.86 241.106 47.645 240.536 46.565C239.996 45.485 239.261 44.645 238.331 44.045C237.401 43.445 236.366 43.145 235.226 43.145C234.056 43.145 233.006 43.46 232.076 44.09C231.146 44.69 230.411 45.53 229.871 46.61C229.331 47.66 229.061 48.875 229.061 50.255ZM263.371 62.45C259.321 62.45 256.246 61.265 254.146 58.895C252.076 56.495 251.041 53 251.041 48.41C251.041 45.53 251.296 43.1 251.806 41.12C252.316 39.14 253.066 37.505 254.056 36.215C255.046 34.925 256.291 33.875 257.791 33.065C259.321 32.255 261.076 31.61 263.056 31.13L273.181 28.565L273.271 33.47L263.281 36.08C261.841 36.5 260.581 37.085 259.501 37.835C258.421 38.555 257.551 39.5 256.891 40.67C256.261 41.81 255.856 43.25 255.676 44.99C256.576 43.52 257.806 42.365 259.366 41.525C260.926 40.655 262.816 40.22 265.036 40.22C267.136 40.22 268.981 40.67 270.571 41.57C272.161 42.47 273.391 43.715 274.261 45.305C275.161 46.895 275.611 48.74 275.611 50.84C275.611 53.09 275.131 55.1 274.171 56.87C273.241 58.61 271.861 59.975 270.031 60.965C268.231 61.955 266.011 62.45 263.371 62.45ZM263.371 57.32C265.231 57.32 266.701 56.765 267.781 55.655C268.891 54.515 269.446 53.015 269.446 51.155C269.446 49.355 268.906 47.885 267.826 46.745C266.746 45.605 265.261 45.035 263.371 45.035C262.201 45.035 261.151 45.275 260.221 45.755C259.321 46.235 258.601 46.94 258.061 47.87C257.521 48.77 257.251 49.865 257.251 51.155C257.251 52.355 257.491 53.42 257.971 54.35C258.451 55.28 259.141 56.015 260.041 56.555C260.971 57.065 262.081 57.32 263.371 57.32ZM279.619 62V38.465H285.649V53.945L296.224 38.42H301.714V62H295.684V46.88L285.244 62H279.619ZM315.632 62.36C313.112 62.36 311.012 61.91 309.332 61.01C307.652 60.11 306.332 58.865 305.372 57.275L310.232 55.07C310.742 55.85 311.402 56.465 312.212 56.915C313.052 57.335 314.087 57.545 315.317 57.545C316.727 57.545 317.807 57.275 318.557 56.735C319.337 56.165 319.727 55.43 319.727 54.53C319.727 53.69 319.412 53.015 318.782 52.505C318.152 51.995 317.222 51.74 315.992 51.74H313.562V48.005H316.037C316.607 48.005 317.087 47.9 317.477 47.69C317.897 47.45 318.212 47.135 318.422 46.745C318.662 46.355 318.782 45.905 318.782 45.395C318.782 44.645 318.482 44.03 317.882 43.55C317.312 43.07 316.397 42.83 315.137 42.83C314.087 42.83 313.217 43.025 312.527 43.415C311.867 43.805 311.312 44.39 310.862 45.17L306.317 42.74C307.157 41.27 308.357 40.115 309.917 39.275C311.507 38.435 313.352 38.015 315.452 38.015C317.102 38.015 318.572 38.27 319.862 38.78C321.182 39.29 322.217 40.025 322.967 40.985C323.717 41.945 324.092 43.145 324.092 44.585C324.092 45.605 323.837 46.595 323.327 47.555C322.847 48.515 322.052 49.22 320.942 49.67C322.382 50.09 323.462 50.81 324.182 51.83C324.932 52.85 325.307 54.05 325.307 55.43C325.307 56.93 324.887 58.205 324.047 59.255C323.207 60.275 322.067 61.055 320.627 61.595C319.187 62.105 317.522 62.36 315.632 62.36ZM329.541 62V38.42H335.571V47.42H345.111V38.42H351.141V62H345.111V52.46H335.571V62H329.541ZM367.59 62.45C365.7 62.45 363.99 62.135 362.46 61.505C360.93 60.845 359.625 59.96 358.545 58.85C357.465 57.71 356.625 56.42 356.025 54.98C355.455 53.51 355.17 51.965 355.17 50.345C355.17 48.095 355.665 46.04 356.655 44.18C357.675 42.32 359.115 40.835 360.975 39.725C362.865 38.585 365.085 38.015 367.635 38.015C370.215 38.015 372.42 38.585 374.25 39.725C376.08 40.835 377.475 42.32 378.435 44.18C379.425 46.01 379.92 47.99 379.92 50.12C379.92 50.48 379.905 50.855 379.875 51.245C379.845 51.605 379.815 51.905 379.785 52.145H361.56C361.68 53.345 362.025 54.395 362.595 55.295C363.195 56.195 363.945 56.885 364.845 57.365C365.775 57.815 366.765 58.04 367.815 58.04C369.015 58.04 370.14 57.755 371.19 57.185C372.27 56.585 373.005 55.805 373.395 54.845L378.57 56.285C378 57.485 377.175 58.55 376.095 59.48C375.045 60.41 373.8 61.145 372.36 61.685C370.92 62.195 369.33 62.45 367.59 62.45ZM361.425 48.32H373.755C373.635 47.12 373.29 46.085 372.72 45.215C372.18 44.315 371.46 43.625 370.56 43.145C369.66 42.635 368.655 42.38 367.545 42.38C366.465 42.38 365.475 42.635 364.575 43.145C363.705 43.625 362.985 44.315 362.415 45.215C361.875 46.085 361.545 47.12 361.425 48.32ZM394.574 62.45C392.654 62.45 390.929 62.135 389.399 61.505C387.869 60.845 386.564 59.945 385.484 58.805C384.404 57.635 383.564 56.315 382.964 54.845C382.394 53.375 382.109 51.83 382.109 50.21C382.109 47.99 382.604 45.965 383.594 44.135C384.614 42.275 386.054 40.79 387.914 39.68C389.774 38.57 391.979 38.015 394.529 38.015C397.079 38.015 399.269 38.57 401.099 39.68C402.929 40.79 404.294 42.245 405.194 44.045L399.299 45.845C398.789 44.975 398.114 44.315 397.274 43.865C396.434 43.385 395.504 43.145 394.484 43.145C393.344 43.145 392.294 43.445 391.334 44.045C390.404 44.615 389.669 45.44 389.129 46.52C388.589 47.57 388.319 48.8 388.319 50.21C388.319 51.59 388.589 52.82 389.129 53.9C389.699 54.95 390.449 55.79 391.379 56.42C392.309 57.02 393.344 57.32 394.484 57.32C395.204 57.32 395.879 57.2 396.509 56.96C397.169 56.72 397.754 56.39 398.264 55.97C398.774 55.55 399.149 55.07 399.389 54.53L405.284 56.33C404.744 57.5 403.949 58.55 402.899 59.48C401.879 60.41 400.664 61.145 399.254 61.685C397.874 62.195 396.314 62.45 394.574 62.45ZM412.065 72.17C411.435 72.17 410.79 72.095 410.13 71.945C409.5 71.795 408.765 71.57 407.925 71.27L409.095 66.5C409.545 66.71 409.965 66.86 410.355 66.95C410.775 67.04 411.15 67.085 411.48 67.085C412.23 67.085 412.89 66.815 413.46 66.275C414.06 65.735 414.54 64.91 414.9 63.8L415.62 61.865L406.08 38.42H412.335L418.68 55.835L424.26 38.42H430.02L420.39 65.375C419.88 66.815 419.205 68.03 418.365 69.02C417.525 70.04 416.565 70.82 415.485 71.36C414.405 71.9 413.265 72.17 412.065 72.17Z" fill="white"/>
<rect x="0.5" y="0.5" width="588" height="227" rx="19.5" stroke="white"/>
<path d="M186.664 122V109H187.914L193.389 118.35L198.864 109H200.089V122H198.889V110.975L193.789 119.675H192.964L187.864 111V122H186.664ZM202.923 118.25C202.923 117.467 203.156 116.792 203.623 116.225C204.09 115.642 204.731 115.192 205.548 114.875C206.365 114.542 207.306 114.375 208.373 114.375C209.04 114.375 209.731 114.433 210.448 114.55C211.165 114.667 211.806 114.825 212.373 115.025V113.8C212.373 112.6 212.023 111.642 211.323 110.925C210.64 110.208 209.69 109.85 208.473 109.85C207.823 109.85 207.148 109.983 206.448 110.25C205.748 110.517 205.031 110.9 204.298 111.4L203.773 110.5C204.623 109.933 205.44 109.508 206.223 109.225C207.023 108.925 207.815 108.775 208.598 108.775C210.148 108.775 211.373 109.233 212.273 110.15C213.173 111.067 213.623 112.317 213.623 113.9V120.35C213.623 120.55 213.665 120.7 213.748 120.8C213.848 120.9 213.99 120.958 214.173 120.975V122C214.023 122.017 213.898 122.025 213.798 122.025C213.698 122.025 213.615 122.025 213.548 122.025C213.231 121.975 212.981 121.842 212.798 121.625C212.631 121.408 212.54 121.167 212.523 120.9V119.875C211.923 120.625 211.148 121.208 210.198 121.625C209.265 122.042 208.281 122.25 207.248 122.25C206.431 122.25 205.69 122.075 205.023 121.725C204.373 121.375 203.856 120.9 203.473 120.3C203.106 119.683 202.923 119 202.923 118.25ZM211.873 119.325C212.04 119.108 212.165 118.9 212.248 118.7C212.331 118.5 212.373 118.317 212.373 118.15V116C211.773 115.767 211.148 115.592 210.498 115.475C209.848 115.358 209.181 115.3 208.498 115.3C207.198 115.3 206.14 115.558 205.323 116.075C204.523 116.592 204.123 117.292 204.123 118.175C204.123 118.725 204.265 119.233 204.548 119.7C204.831 120.167 205.223 120.542 205.723 120.825C206.24 121.108 206.831 121.25 207.498 121.25C208.431 121.25 209.29 121.075 210.073 120.725C210.873 120.358 211.473 119.892 211.873 119.325ZM222.951 122.25C222.051 122.25 221.209 122.075 220.426 121.725C219.642 121.358 218.959 120.867 218.376 120.25C217.792 119.617 217.334 118.892 217.001 118.075C216.684 117.258 216.526 116.383 216.526 115.45C216.526 114.2 216.801 113.075 217.351 112.075C217.901 111.075 218.659 110.275 219.626 109.675C220.592 109.075 221.692 108.775 222.926 108.775C224.109 108.775 225.151 109.05 226.051 109.6C226.951 110.133 227.626 110.867 228.076 111.8L226.851 112.2C226.467 111.483 225.917 110.925 225.201 110.525C224.501 110.108 223.726 109.9 222.876 109.9C221.926 109.9 221.067 110.142 220.301 110.625C219.534 111.108 218.917 111.775 218.451 112.625C218.001 113.458 217.776 114.4 217.776 115.45C217.776 116.483 218.009 117.433 218.476 118.3C218.942 119.167 219.559 119.858 220.326 120.375C221.109 120.875 221.967 121.125 222.901 121.125C223.501 121.125 224.084 121.017 224.651 120.8C225.234 120.567 225.734 120.267 226.151 119.9C226.584 119.533 226.867 119.142 227.001 118.725L228.226 119.075C228.009 119.692 227.634 120.242 227.101 120.725C226.567 121.192 225.942 121.567 225.226 121.85C224.526 122.117 223.767 122.25 222.951 122.25ZM234.374 122V110.125H229.599V109H240.424V110.125H235.624V122H234.374ZM248.366 122.25C247.449 122.25 246.599 122.075 245.816 121.725C245.032 121.358 244.349 120.867 243.766 120.25C243.199 119.617 242.749 118.892 242.416 118.075C242.099 117.242 241.941 116.367 241.941 115.45C241.941 114.217 242.216 113.1 242.766 112.1C243.316 111.1 244.074 110.3 245.041 109.7C246.007 109.083 247.091 108.775 248.291 108.775C249.524 108.775 250.616 109.083 251.566 109.7C252.516 110.317 253.266 111.133 253.816 112.15C254.382 113.15 254.666 114.25 254.666 115.45C254.666 115.55 254.666 115.65 254.666 115.75C254.666 115.85 254.657 115.933 254.641 116H243.241C243.307 116.983 243.582 117.875 244.066 118.675C244.549 119.475 245.166 120.108 245.916 120.575C246.682 121.025 247.516 121.25 248.416 121.25C249.316 121.25 250.166 121.017 250.966 120.55C251.766 120.083 252.324 119.483 252.641 118.75L253.741 119.05C253.491 119.667 253.091 120.217 252.541 120.7C252.007 121.183 251.374 121.567 250.641 121.85C249.924 122.117 249.166 122.25 248.366 122.25ZM243.191 115.025H253.466C253.399 114.008 253.132 113.108 252.666 112.325C252.199 111.542 251.582 110.925 250.816 110.475C250.066 110.025 249.232 109.8 248.316 109.8C247.399 109.8 246.566 110.025 245.816 110.475C245.066 110.925 244.457 111.542 243.991 112.325C243.524 113.108 243.257 114.008 243.191 115.025ZM263.766 122.25C262.649 122.25 261.649 121.958 260.766 121.375C259.899 120.775 259.199 120.05 258.666 119.2V127.325H257.416V109H258.566V111.6C259.099 110.767 259.807 110.092 260.691 109.575C261.574 109.042 262.507 108.775 263.491 108.775C264.407 108.775 265.241 108.967 265.991 109.35C266.741 109.717 267.391 110.225 267.941 110.875C268.507 111.508 268.941 112.225 269.241 113.025C269.557 113.825 269.716 114.658 269.716 115.525C269.716 116.725 269.466 117.842 268.966 118.875C268.466 119.892 267.766 120.708 266.866 121.325C265.982 121.942 264.949 122.25 263.766 122.25ZM263.466 121.125C264.232 121.125 264.916 120.967 265.516 120.65C266.132 120.333 266.657 119.908 267.091 119.375C267.524 118.842 267.857 118.242 268.091 117.575C268.324 116.908 268.441 116.225 268.441 115.525C268.441 114.775 268.307 114.067 268.041 113.4C267.774 112.717 267.399 112.117 266.916 111.6C266.449 111.083 265.899 110.675 265.266 110.375C264.649 110.058 263.974 109.9 263.241 109.9C262.791 109.9 262.307 109.992 261.791 110.175C261.291 110.358 260.807 110.617 260.341 110.95C259.891 111.283 259.516 111.667 259.216 112.1C258.916 112.517 258.732 112.95 258.666 113.4V117.675C258.966 118.308 259.349 118.892 259.816 119.425C260.299 119.942 260.857 120.358 261.491 120.675C262.124 120.975 262.782 121.125 263.466 121.125ZM272.448 115.775V114.625H279.648V115.775H272.448ZM283.27 122V109H284.52V114.775H286.92L291.52 109H292.995L287.92 115.325L293.67 122H292.145L286.92 115.925H284.52V122H283.27ZM294.934 122.05V120.9C295.384 120.9 295.792 120.775 296.159 120.525C296.525 120.258 296.85 119.817 297.134 119.2C297.417 118.583 297.642 117.733 297.809 116.65C297.992 115.55 298.109 114.167 298.159 112.5L298.284 109H306.384V122H305.134V110.125H299.409L299.359 112.575C299.292 114.408 299.15 115.942 298.934 117.175C298.734 118.392 298.45 119.358 298.084 120.075C297.717 120.775 297.267 121.283 296.734 121.6C296.217 121.9 295.617 122.05 294.934 122.05ZM309.197 118.25C309.197 117.467 309.431 116.792 309.897 116.225C310.364 115.642 311.006 115.192 311.822 114.875C312.639 114.542 313.581 114.375 314.647 114.375C315.314 114.375 316.006 114.433 316.722 114.55C317.439 114.667 318.081 114.825 318.647 115.025V113.8C318.647 112.6 318.297 111.642 317.597 110.925C316.914 110.208 315.964 109.85 314.747 109.85C314.097 109.85 313.422 109.983 312.722 110.25C312.022 110.517 311.306 110.9 310.572 111.4L310.047 110.5C310.897 109.933 311.714 109.508 312.497 109.225C313.297 108.925 314.089 108.775 314.872 108.775C316.422 108.775 317.647 109.233 318.547 110.15C319.447 111.067 319.897 112.317 319.897 113.9V120.35C319.897 120.55 319.939 120.7 320.022 120.8C320.122 120.9 320.264 120.958 320.447 120.975V122C320.297 122.017 320.172 122.025 320.072 122.025C319.972 122.025 319.889 122.025 319.822 122.025C319.506 121.975 319.256 121.842 319.072 121.625C318.906 121.408 318.814 121.167 318.797 120.9V119.875C318.197 120.625 317.422 121.208 316.472 121.625C315.539 122.042 314.556 122.25 313.522 122.25C312.706 122.25 311.964 122.075 311.297 121.725C310.647 121.375 310.131 120.9 309.747 120.3C309.381 119.683 309.197 119 309.197 118.25ZM318.147 119.325C318.314 119.108 318.439 118.9 318.522 118.7C318.606 118.5 318.647 118.317 318.647 118.15V116C318.047 115.767 317.422 115.592 316.772 115.475C316.122 115.358 315.456 115.3 314.772 115.3C313.472 115.3 312.414 115.558 311.597 116.075C310.797 116.592 310.397 117.292 310.397 118.175C310.397 118.725 310.539 119.233 310.822 119.7C311.106 120.167 311.497 120.542 311.997 120.825C312.514 121.108 313.106 121.25 313.772 121.25C314.706 121.25 315.564 121.075 316.347 120.725C317.147 120.358 317.747 119.892 318.147 119.325ZM329.225 122.25C328.325 122.25 327.483 122.075 326.7 121.725C325.917 121.358 325.233 120.867 324.65 120.25C324.067 119.617 323.608 118.892 323.275 118.075C322.958 117.258 322.8 116.383 322.8 115.45C322.8 114.2 323.075 113.075 323.625 112.075C324.175 111.075 324.933 110.275 325.9 109.675C326.867 109.075 327.967 108.775 329.2 108.775C330.383 108.775 331.425 109.05 332.325 109.6C333.225 110.133 333.9 110.867 334.35 111.8L333.125 112.2C332.742 111.483 332.192 110.925 331.475 110.525C330.775 110.108 330 109.9 329.15 109.9C328.2 109.9 327.342 110.142 326.575 110.625C325.808 111.108 325.192 111.775 324.725 112.625C324.275 113.458 324.05 114.4 324.05 115.45C324.05 116.483 324.283 117.433 324.75 118.3C325.217 119.167 325.833 119.858 326.6 120.375C327.383 120.875 328.242 121.125 329.175 121.125C329.775 121.125 330.358 121.017 330.925 120.8C331.508 120.567 332.008 120.267 332.425 119.9C332.858 119.533 333.142 119.142 333.275 118.725L334.5 119.075C334.283 119.692 333.908 120.242 333.375 120.725C332.842 121.192 332.217 121.567 331.5 121.85C330.8 122.117 330.042 122.25 329.225 122.25ZM342.726 122.25C341.826 122.25 340.984 122.075 340.201 121.725C339.418 121.358 338.734 120.867 338.151 120.25C337.568 119.617 337.109 118.892 336.776 118.075C336.459 117.258 336.301 116.383 336.301 115.45C336.301 114.2 336.576 113.075 337.126 112.075C337.676 111.075 338.434 110.275 339.401 109.675C340.368 109.075 341.468 108.775 342.701 108.775C343.884 108.775 344.926 109.05 345.826 109.6C346.726 110.133 347.401 110.867 347.851 111.8L346.626 112.2C346.243 111.483 345.693 110.925 344.976 110.525C344.276 110.108 343.501 109.9 342.651 109.9C341.701 109.9 340.843 110.142 340.076 110.625C339.309 111.108 338.693 111.775 338.226 112.625C337.776 113.458 337.551 114.4 337.551 115.45C337.551 116.483 337.784 117.433 338.251 118.3C338.718 119.167 339.334 119.858 340.101 120.375C340.884 120.875 341.743 121.125 342.676 121.125C343.276 121.125 343.859 121.017 344.426 120.8C345.009 120.567 345.509 120.267 345.926 119.9C346.359 119.533 346.643 119.142 346.776 118.725L348.001 119.075C347.784 119.692 347.409 120.242 346.876 120.725C346.343 121.192 345.718 121.567 345.001 121.85C344.301 122.117 343.543 122.25 342.726 122.25ZM350.824 122V109H352.074V113.725H355.274C356.724 113.725 357.807 114.1 358.524 114.85C359.257 115.6 359.624 116.575 359.624 117.775C359.624 118.542 359.466 119.25 359.149 119.9C358.832 120.55 358.357 121.067 357.724 121.45C357.107 121.817 356.324 122 355.374 122H350.824ZM352.074 120.975H355.249C355.982 120.975 356.574 120.825 357.024 120.525C357.491 120.225 357.824 119.833 358.024 119.35C358.241 118.867 358.349 118.35 358.349 117.8C358.349 117.267 358.257 116.767 358.074 116.3C357.891 115.833 357.566 115.458 357.099 115.175C356.649 114.892 356.016 114.75 355.199 114.75H352.074V120.975ZM362.099 122V109.025H363.349V122H362.099ZM367.754 124.025L368.129 122.05H367.679V119.875H368.954V122.05L368.429 124.025H367.754ZM171.234 159V146H172.484V151.775H174.884L179.484 146H180.959L175.884 152.325L181.634 159H180.109L174.884 152.925H172.484V159H171.234ZM185.472 164.425C185.206 164.425 184.922 164.375 184.622 164.275C184.339 164.192 184.047 164.058 183.747 163.875L184.222 162.95C184.439 163.083 184.639 163.183 184.822 163.25C185.006 163.333 185.206 163.375 185.422 163.375C185.906 163.375 186.347 163.133 186.747 162.65C187.147 162.167 187.531 161.475 187.897 160.575L188.597 158.95L182.697 146H184.022L189.172 157.675L193.947 146H195.222L188.897 161C188.547 161.817 188.197 162.475 187.847 162.975C187.497 163.475 187.131 163.842 186.747 164.075C186.364 164.308 185.939 164.425 185.472 164.425ZM204.073 159.25C202.957 159.25 201.957 158.958 201.073 158.375C200.207 157.775 199.507 157.05 198.973 156.2V164.325H197.723V146H198.873V148.6C199.407 147.767 200.115 147.092 200.998 146.575C201.882 146.042 202.815 145.775 203.798 145.775C204.715 145.775 205.548 145.967 206.298 146.35C207.048 146.717 207.698 147.225 208.248 147.875C208.815 148.508 209.248 149.225 209.548 150.025C209.865 150.825 210.023 151.658 210.023 152.525C210.023 153.725 209.773 154.842 209.273 155.875C208.773 156.892 208.073 157.708 207.173 158.325C206.29 158.942 205.257 159.25 204.073 159.25ZM203.773 158.125C204.54 158.125 205.223 157.967 205.823 157.65C206.44 157.333 206.965 156.908 207.398 156.375C207.832 155.842 208.165 155.242 208.398 154.575C208.632 153.908 208.748 153.225 208.748 152.525C208.748 151.775 208.615 151.067 208.348 150.4C208.082 149.717 207.707 149.117 207.223 148.6C206.757 148.083 206.207 147.675 205.573 147.375C204.957 147.058 204.282 146.9 203.548 146.9C203.098 146.9 202.615 146.992 202.098 147.175C201.598 147.358 201.115 147.617 200.648 147.95C200.198 148.283 199.823 148.667 199.523 149.1C199.223 149.517 199.04 149.95 198.973 150.4V154.675C199.273 155.308 199.657 155.892 200.123 156.425C200.607 156.942 201.165 157.358 201.798 157.675C202.432 157.975 203.09 158.125 203.773 158.125ZM218.556 159.25C217.656 159.25 216.814 159.075 216.031 158.725C215.248 158.358 214.564 157.867 213.981 157.25C213.398 156.617 212.939 155.892 212.606 155.075C212.289 154.258 212.131 153.383 212.131 152.45C212.131 151.2 212.406 150.075 212.956 149.075C213.506 148.075 214.264 147.275 215.231 146.675C216.198 146.075 217.298 145.775 218.531 145.775C219.714 145.775 220.756 146.05 221.656 146.6C222.556 147.133 223.231 147.867 223.681 148.8L222.456 149.2C222.073 148.483 221.523 147.925 220.806 147.525C220.106 147.108 219.331 146.9 218.481 146.9C217.531 146.9 216.673 147.142 215.906 147.625C215.139 148.108 214.523 148.775 214.056 149.625C213.606 150.458 213.381 151.4 213.381 152.45C213.381 153.483 213.614 154.433 214.081 155.3C214.548 156.167 215.164 156.858 215.931 157.375C216.714 157.875 217.573 158.125 218.506 158.125C219.106 158.125 219.689 158.017 220.256 157.8C220.839 157.567 221.339 157.267 221.756 156.9C222.189 156.533 222.473 156.142 222.606 155.725L223.831 156.075C223.614 156.692 223.239 157.242 222.706 157.725C222.173 158.192 221.548 158.567 220.831 158.85C220.131 159.117 219.373 159.25 218.556 159.25ZM226.654 159V146H227.904V150.725H231.104C232.554 150.725 233.637 151.1 234.354 151.85C235.087 152.6 235.454 153.575 235.454 154.775C235.454 155.542 235.296 156.25 234.979 156.9C234.662 157.55 234.187 158.067 233.554 158.45C232.937 158.817 232.154 159 231.204 159H226.654ZM227.904 157.975H231.079C231.812 157.975 232.404 157.825 232.854 157.525C233.321 157.225 233.654 156.833 233.854 156.35C234.071 155.867 234.179 155.35 234.179 154.8C234.179 154.267 234.087 153.767 233.904 153.3C233.721 152.833 233.396 152.458 232.929 152.175C232.479 151.892 231.846 151.75 231.029 151.75H227.904V157.975ZM237.929 159V146.025H239.179V159H237.929ZM249.53 159V146.025H250.78V157.3L259.23 146H260.38V159H259.13V147.9L250.78 159H249.53ZM276.123 159.25C275.206 159.25 274.356 159.075 273.573 158.725C272.806 158.375 272.139 157.892 271.573 157.275C271.006 156.642 270.564 155.917 270.248 155.1C269.931 154.283 269.773 153.425 269.773 152.525C269.773 151.608 269.931 150.75 270.248 149.95C270.564 149.133 271.006 148.417 271.573 147.8C272.156 147.167 272.831 146.675 273.598 146.325C274.381 145.958 275.223 145.775 276.123 145.775C277.023 145.775 277.856 145.958 278.623 146.325C279.389 146.675 280.064 147.167 280.648 147.8C281.231 148.417 281.681 149.133 281.998 149.95C282.314 150.75 282.473 151.608 282.473 152.525C282.473 153.425 282.314 154.283 281.998 155.1C281.681 155.917 281.231 156.642 280.648 157.275C280.081 157.892 279.406 158.375 278.623 158.725C277.856 159.075 277.023 159.25 276.123 159.25ZM271.023 152.575C271.023 153.592 271.248 154.525 271.698 155.375C272.164 156.208 272.781 156.875 273.548 157.375C274.314 157.875 275.164 158.125 276.098 158.125C277.031 158.125 277.881 157.875 278.648 157.375C279.431 156.858 280.048 156.175 280.498 155.325C280.964 154.458 281.198 153.517 281.198 152.5C281.198 151.483 280.964 150.55 280.498 149.7C280.048 148.85 279.431 148.175 278.648 147.675C277.881 147.158 277.039 146.9 276.123 146.9C275.189 146.9 274.339 147.158 273.573 147.675C272.806 148.192 272.189 148.875 271.723 149.725C271.256 150.575 271.023 151.525 271.023 152.575ZM291.318 159.25C289.234 159.25 287.668 158.608 286.618 157.325C285.584 156.042 285.068 154.3 285.068 152.1C285.068 150.467 285.193 149.092 285.443 147.975C285.709 146.842 286.093 145.917 286.593 145.2C287.109 144.467 287.734 143.867 288.468 143.4C289.218 142.933 290.068 142.542 291.018 142.225L296.443 140.325L296.618 141.425L291.418 143.225C290.334 143.608 289.434 144.075 288.718 144.625C288.018 145.175 287.468 145.883 287.068 146.75C286.684 147.6 286.434 148.7 286.318 150.05C286.751 149.017 287.426 148.225 288.343 147.675C289.276 147.125 290.351 146.85 291.568 146.85C292.851 146.85 293.943 147.108 294.843 147.625C295.743 148.142 296.418 148.867 296.868 149.8C297.334 150.717 297.568 151.775 297.568 152.975C297.568 154.258 297.326 155.367 296.843 156.3C296.359 157.233 295.651 157.958 294.718 158.475C293.801 158.992 292.668 159.25 291.318 159.25ZM291.318 158.125C292.918 158.125 294.143 157.667 294.993 156.75C295.859 155.817 296.293 154.575 296.293 153.025C296.293 151.525 295.868 150.3 295.018 149.35C294.184 148.4 292.951 147.925 291.318 147.925C290.384 147.925 289.543 148.125 288.793 148.525C288.043 148.908 287.443 149.483 286.993 150.25C286.559 151 286.343 151.925 286.343 153.025C286.343 153.992 286.534 154.867 286.918 155.65C287.301 156.417 287.859 157.025 288.593 157.475C289.326 157.908 290.234 158.125 291.318 158.125ZM301.366 164.425C301.099 164.425 300.816 164.375 300.516 164.275C300.233 164.192 299.941 164.058 299.641 163.875L300.116 162.95C300.333 163.083 300.533 163.183 300.716 163.25C300.899 163.333 301.099 163.375 301.316 163.375C301.799 163.375 302.241 163.133 302.641 162.65C303.041 162.167 303.424 161.475 303.791 160.575L304.491 158.95L298.591 146H299.916L305.066 157.675L309.841 146H311.116L304.791 161C304.441 161.817 304.091 162.475 303.741 162.975C303.391 163.475 303.024 163.842 302.641 164.075C302.258 164.308 301.833 164.425 301.366 164.425ZM321.117 159V153.35C320.567 153.617 319.992 153.817 319.392 153.95C318.792 154.067 318.15 154.125 317.467 154.125C316.017 154.125 314.942 153.758 314.242 153.025C313.542 152.292 313.192 151.158 313.192 149.625V146H314.442V149.475C314.442 150.742 314.7 151.667 315.217 152.25C315.734 152.817 316.55 153.1 317.667 153.1C318.317 153.1 318.959 153.025 319.592 152.875C320.225 152.725 320.734 152.542 321.117 152.325V146H322.367V159H321.117ZM331.788 159.25C330.872 159.25 330.022 159.075 329.238 158.725C328.455 158.358 327.772 157.867 327.188 157.25C326.622 156.617 326.172 155.892 325.838 155.075C325.522 154.242 325.363 153.367 325.363 152.45C325.363 151.217 325.638 150.1 326.188 149.1C326.738 148.1 327.497 147.3 328.463 146.7C329.43 146.083 330.513 145.775 331.713 145.775C332.947 145.775 334.038 146.083 334.988 146.7C335.938 147.317 336.688 148.133 337.238 149.15C337.805 150.15 338.088 151.25 338.088 152.45C338.088 152.55 338.088 152.65 338.088 152.75C338.088 152.85 338.08 152.933 338.063 153H326.663C326.73 153.983 327.005 154.875 327.488 155.675C327.972 156.475 328.588 157.108 329.338 157.575C330.105 158.025 330.938 158.25 331.838 158.25C332.738 158.25 333.588 158.017 334.388 157.55C335.188 157.083 335.747 156.483 336.063 155.75L337.163 156.05C336.913 156.667 336.513 157.217 335.963 157.7C335.43 158.183 334.797 158.567 334.063 158.85C333.347 159.117 332.588 159.25 331.788 159.25ZM326.613 152.025H336.888C336.822 151.008 336.555 150.108 336.088 149.325C335.622 148.542 335.005 147.925 334.238 147.475C333.488 147.025 332.655 146.8 331.738 146.8C330.822 146.8 329.988 147.025 329.238 147.475C328.488 147.925 327.88 148.542 327.413 149.325C326.947 150.108 326.68 151.008 326.613 152.025ZM340.839 159V146H342.089V151.775H350.114V146H351.364V159H350.114V152.9H342.089V159H340.839ZM355.267 159V146.025H356.517V157.3L364.967 146H366.117V159H364.867V147.9L356.517 159H355.267ZM369.014 159L373.064 153.625C372.131 153.525 371.381 153.15 370.814 152.5C370.264 151.833 369.989 150.933 369.989 149.8C369.989 149.083 370.156 148.442 370.489 147.875C370.839 147.308 371.322 146.85 371.939 146.5C372.572 146.15 373.314 145.975 374.164 145.975H378.814V159H377.564V153.8H374.339L370.439 159H369.014ZM373.989 152.8H377.564V147H374.339C373.406 147 372.656 147.267 372.089 147.8C371.522 148.333 371.239 149.008 371.239 149.825C371.239 150.642 371.464 151.342 371.914 151.925C372.381 152.508 373.072 152.8 373.989 152.8ZM383.184 161.025L383.559 159.05H383.109V156.875H384.384V159.05L383.859 161.025H383.184ZM133.789 196.25C132.872 196.25 132.022 196.075 131.239 195.725C130.472 195.375 129.805 194.892 129.239 194.275C128.672 193.642 128.23 192.917 127.914 192.1C127.597 191.283 127.439 190.425 127.439 189.525C127.439 188.608 127.597 187.75 127.914 186.95C128.23 186.133 128.672 185.417 129.239 184.8C129.822 184.167 130.497 183.675 131.264 183.325C132.047 182.958 132.889 182.775 133.789 182.775C134.689 182.775 135.522 182.958 136.289 183.325C137.055 183.675 137.73 184.167 138.314 184.8C138.897 185.417 139.347 186.133 139.664 186.95C139.98 187.75 140.139 188.608 140.139 189.525C140.139 190.425 139.98 191.283 139.664 192.1C139.347 192.917 138.897 193.642 138.314 194.275C137.747 194.892 137.072 195.375 136.289 195.725C135.522 196.075 134.689 196.25 133.789 196.25ZM128.689 189.575C128.689 190.592 128.914 191.525 129.364 192.375C129.83 193.208 130.447 193.875 131.214 194.375C131.98 194.875 132.83 195.125 133.764 195.125C134.697 195.125 135.547 194.875 136.314 194.375C137.097 193.858 137.714 193.175 138.164 192.325C138.63 191.458 138.864 190.517 138.864 189.5C138.864 188.483 138.63 187.55 138.164 186.7C137.714 185.85 137.097 185.175 136.314 184.675C135.547 184.158 134.705 183.9 133.789 183.9C132.855 183.9 132.005 184.158 131.239 184.675C130.472 185.192 129.855 185.875 129.389 186.725C128.922 187.575 128.689 188.525 128.689 189.575ZM143.134 196V183H144.384V188.775H152.409V183H153.659V196H152.409V189.9H144.384V196H143.134ZM156.237 196.05V194.9C156.687 194.9 157.096 194.775 157.462 194.525C157.829 194.258 158.154 193.817 158.437 193.2C158.721 192.583 158.946 191.733 159.112 190.65C159.296 189.55 159.412 188.167 159.462 186.5L159.587 183H167.687V196H166.437V184.125H160.712L160.662 186.575C160.596 188.408 160.454 189.942 160.237 191.175C160.037 192.392 159.754 193.358 159.387 194.075C159.021 194.775 158.571 195.283 158.037 195.6C157.521 195.9 156.921 196.05 156.237 196.05ZM170.501 192.25C170.501 191.467 170.734 190.792 171.201 190.225C171.668 189.642 172.309 189.192 173.126 188.875C173.943 188.542 174.884 188.375 175.951 188.375C176.618 188.375 177.309 188.433 178.026 188.55C178.743 188.667 179.384 188.825 179.951 189.025V187.8C179.951 186.6 179.601 185.642 178.901 184.925C178.218 184.208 177.268 183.85 176.051 183.85C175.401 183.85 174.726 183.983 174.026 184.25C173.326 184.517 172.609 184.9 171.876 185.4L171.351 184.5C172.201 183.933 173.018 183.508 173.801 183.225C174.601 182.925 175.393 182.775 176.176 182.775C177.726 182.775 178.951 183.233 179.851 184.15C180.751 185.067 181.201 186.317 181.201 187.9V194.35C181.201 194.55 181.243 194.7 181.326 194.8C181.426 194.9 181.568 194.958 181.751 194.975V196C181.601 196.017 181.476 196.025 181.376 196.025C181.276 196.025 181.193 196.025 181.126 196.025C180.809 195.975 180.559 195.842 180.376 195.625C180.209 195.408 180.118 195.167 180.101 194.9V193.875C179.501 194.625 178.726 195.208 177.776 195.625C176.843 196.042 175.859 196.25 174.826 196.25C174.009 196.25 173.268 196.075 172.601 195.725C171.951 195.375 171.434 194.9 171.051 194.3C170.684 193.683 170.501 193 170.501 192.25ZM179.451 193.325C179.618 193.108 179.743 192.9 179.826 192.7C179.909 192.5 179.951 192.317 179.951 192.15V190C179.351 189.767 178.726 189.592 178.076 189.475C177.426 189.358 176.759 189.3 176.076 189.3C174.776 189.3 173.718 189.558 172.901 190.075C172.101 190.592 171.701 191.292 171.701 192.175C171.701 192.725 171.843 193.233 172.126 193.7C172.409 194.167 172.801 194.542 173.301 194.825C173.818 195.108 174.409 195.25 175.076 195.25C176.009 195.25 176.868 195.075 177.651 194.725C178.451 194.358 179.051 193.892 179.451 193.325ZM185.004 196V183.025H186.254V194.3L194.704 183H195.854V196H194.604V184.9L186.254 196H185.004ZM190.429 181.2C189.362 181.2 188.52 180.95 187.904 180.45C187.304 179.933 187.004 179.283 187.004 178.5H187.954C187.954 179.05 188.17 179.5 188.604 179.85C189.037 180.2 189.645 180.375 190.429 180.375C191.229 180.375 191.837 180.208 192.254 179.875C192.67 179.525 192.887 179.067 192.904 178.5H193.854C193.854 179.283 193.545 179.933 192.929 180.45C192.329 180.95 191.495 181.2 190.429 181.2ZM199.725 196V183H200.975V188.775H209V183H210.25V196H209V189.9H200.975V196H199.725ZM220.575 196V183H221.825V194.875H227.775V183H229.025V194.875H234.975V183H236.225V196H220.575ZM240.131 196V183H241.381V188.775H243.781L248.381 183H249.856L244.781 189.325L250.531 196H249.006L243.781 189.925H241.381V196H240.131ZM257.885 196.25C256.969 196.25 256.119 196.075 255.335 195.725C254.569 195.375 253.902 194.892 253.335 194.275C252.769 193.642 252.327 192.917 252.01 192.1C251.694 191.283 251.535 190.425 251.535 189.525C251.535 188.608 251.694 187.75 252.01 186.95C252.327 186.133 252.769 185.417 253.335 184.8C253.919 184.167 254.594 183.675 255.36 183.325C256.144 182.958 256.985 182.775 257.885 182.775C258.785 182.775 259.619 182.958 260.385 183.325C261.152 183.675 261.827 184.167 262.41 184.8C262.994 185.417 263.444 186.133 263.76 186.95C264.077 187.75 264.235 188.608 264.235 189.525C264.235 190.425 264.077 191.283 263.76 192.1C263.444 192.917 262.994 193.642 262.41 194.275C261.844 194.892 261.169 195.375 260.385 195.725C259.619 196.075 258.785 196.25 257.885 196.25ZM252.785 189.575C252.785 190.592 253.01 191.525 253.46 192.375C253.927 193.208 254.544 193.875 255.31 194.375C256.077 194.875 256.927 195.125 257.86 195.125C258.794 195.125 259.644 194.875 260.41 194.375C261.194 193.858 261.81 193.175 262.26 192.325C262.727 191.458 262.96 190.517 262.96 189.5C262.96 188.483 262.727 187.55 262.26 186.7C261.81 185.85 261.194 185.175 260.41 184.675C259.644 184.158 258.802 183.9 257.885 183.9C256.952 183.9 256.102 184.158 255.335 184.675C254.569 185.192 253.952 185.875 253.485 186.725C253.019 187.575 252.785 188.525 252.785 189.575ZM265.905 196.05V194.9C266.355 194.9 266.764 194.775 267.13 194.525C267.497 194.258 267.822 193.817 268.105 193.2C268.389 192.583 268.614 191.733 268.78 190.65C268.964 189.55 269.08 188.167 269.13 186.5L269.255 183H277.355V196H276.105V184.125H270.38L270.33 186.575C270.264 188.408 270.122 189.942 269.905 191.175C269.705 192.392 269.422 193.358 269.055 194.075C268.689 194.775 268.239 195.283 267.705 195.6C267.189 195.9 266.589 196.05 265.905 196.05ZM281.244 196V183H282.494V187.725H285.694C287.144 187.725 288.227 188.1 288.944 188.85C289.677 189.6 290.044 190.575 290.044 191.775C290.044 192.542 289.886 193.25 289.569 193.9C289.252 194.55 288.777 195.067 288.144 195.45C287.527 195.817 286.744 196 285.794 196H281.244ZM282.494 194.975H285.669C286.402 194.975 286.994 194.825 287.444 194.525C287.911 194.225 288.244 193.833 288.444 193.35C288.661 192.867 288.769 192.35 288.769 191.8C288.769 191.267 288.677 190.767 288.494 190.3C288.311 189.833 287.986 189.458 287.519 189.175C287.069 188.892 286.436 188.75 285.619 188.75H282.494V194.975ZM292.519 196V183.025H293.769V196H292.519ZM298.174 198.025L298.549 196.05H298.099V193.875H299.374V196.05L298.849 198.025H298.174ZM303.656 196V183.025H304.906V194.3L313.356 183H314.506V196H313.256V184.9L304.906 196H303.656ZM318.378 196V183H319.628V188.775H327.653V183H328.903V196H327.653V189.9H319.628V196H318.378ZM336.131 196V184.125H331.356V183H342.181V184.125H337.381V196H336.131ZM350.123 196.25C349.207 196.25 348.357 196.075 347.573 195.725C346.79 195.358 346.107 194.867 345.523 194.25C344.957 193.617 344.507 192.892 344.173 192.075C343.857 191.242 343.698 190.367 343.698 189.45C343.698 188.217 343.973 187.1 344.523 186.1C345.073 185.1 345.832 184.3 346.798 183.7C347.765 183.083 348.848 182.775 350.048 182.775C351.282 182.775 352.373 183.083 353.323 183.7C354.273 184.317 355.023 185.133 355.573 186.15C356.14 187.15 356.423 188.25 356.423 189.45C356.423 189.55 356.423 189.65 356.423 189.75C356.423 189.85 356.415 189.933 356.398 190H344.998C345.065 190.983 345.34 191.875 345.823 192.675C346.307 193.475 346.923 194.108 347.673 194.575C348.44 195.025 349.273 195.25 350.173 195.25C351.073 195.25 351.923 195.017 352.723 194.55C353.523 194.083 354.082 193.483 354.398 192.75L355.498 193.05C355.248 193.667 354.848 194.217 354.298 194.7C353.765 195.183 353.132 195.567 352.398 195.85C351.682 196.117 350.923 196.25 350.123 196.25ZM344.948 189.025H355.223C355.157 188.008 354.89 187.108 354.423 186.325C353.957 185.542 353.34 184.925 352.573 184.475C351.823 184.025 350.99 183.8 350.073 183.8C349.157 183.8 348.323 184.025 347.573 184.475C346.823 184.925 346.215 185.542 345.748 186.325C345.282 187.108 345.015 188.008 344.948 189.025ZM359.174 196V183H360.424V188.775H368.449V183H369.699V196H368.449V189.9H360.424V196H359.174ZM379.127 196.25C378.227 196.25 377.386 196.075 376.602 195.725C375.819 195.358 375.136 194.867 374.552 194.25C373.969 193.617 373.511 192.892 373.177 192.075C372.861 191.258 372.702 190.383 372.702 189.45C372.702 188.2 372.977 187.075 373.527 186.075C374.077 185.075 374.836 184.275 375.802 183.675C376.769 183.075 377.869 182.775 379.102 182.775C380.286 182.775 381.327 183.05 382.227 183.6C383.127 184.133 383.802 184.867 384.252 185.8L383.027 186.2C382.644 185.483 382.094 184.925 381.377 184.525C380.677 184.108 379.902 183.9 379.052 183.9C378.102 183.9 377.244 184.142 376.477 184.625C375.711 185.108 375.094 185.775 374.627 186.625C374.177 187.458 373.952 188.4 373.952 189.45C373.952 190.483 374.186 191.433 374.652 192.3C375.119 193.167 375.736 193.858 376.502 194.375C377.286 194.875 378.144 195.125 379.077 195.125C379.677 195.125 380.261 195.017 380.827 194.8C381.411 194.567 381.911 194.267 382.327 193.9C382.761 193.533 383.044 193.142 383.177 192.725L384.402 193.075C384.186 193.692 383.811 194.242 383.277 194.725C382.744 195.192 382.119 195.567 381.402 195.85C380.702 196.117 379.944 196.25 379.127 196.25ZM387.225 196V183.025H388.475V194.3L396.925 183H398.075V196H396.825V184.9L388.475 196H387.225ZM401.947 196V183H408.222C408.922 183 409.505 183.158 409.972 183.475C410.455 183.775 410.822 184.175 411.072 184.675C411.339 185.158 411.472 185.667 411.472 186.2C411.472 186.883 411.297 187.508 410.947 188.075C410.614 188.642 410.147 189.058 409.547 189.325C410.297 189.542 410.897 189.942 411.347 190.525C411.797 191.108 412.022 191.792 412.022 192.575C412.022 193.242 411.855 193.833 411.522 194.35C411.205 194.867 410.764 195.275 410.197 195.575C409.647 195.858 409.014 196 408.297 196H401.947ZM403.147 195.05H408.272C408.755 195.05 409.189 194.925 409.572 194.675C409.955 194.425 410.255 194.108 410.472 193.725C410.705 193.325 410.822 192.908 410.822 192.475C410.822 192.008 410.714 191.583 410.497 191.2C410.28 190.817 409.989 190.508 409.622 190.275C409.255 190.025 408.839 189.9 408.372 189.9H403.147V195.05ZM403.147 189H407.872C408.355 189 408.772 188.875 409.122 188.625C409.472 188.358 409.747 188.025 409.947 187.625C410.147 187.225 410.247 186.808 410.247 186.375C410.247 185.725 410.039 185.158 409.622 184.675C409.205 184.192 408.655 183.95 407.972 183.95H403.147V189ZM415.106 196V183H416.356V187.725H419.556C421.006 187.725 422.09 188.1 422.806 188.85C423.54 189.6 423.906 190.575 423.906 191.775C423.906 192.542 423.748 193.25 423.431 193.9C423.115 194.55 422.64 195.067 422.006 195.45C421.39 195.817 420.606 196 419.656 196H415.106ZM416.356 194.975H419.531C420.265 194.975 420.856 194.825 421.306 194.525C421.773 194.225 422.106 193.833 422.306 193.35C422.523 192.867 422.631 192.35 422.631 191.8C422.631 191.267 422.54 190.767 422.356 190.3C422.173 189.833 421.848 189.458 421.381 189.175C420.931 188.892 420.298 188.75 419.481 188.75H416.356V194.975ZM426.381 196V183.025H427.631V196H426.381Z" fill="white"/>
</svg>
