<svg width="589" height="228" viewBox="0 0 589 228" fill="none" xmlns="http://www.w3.org/2000/svg">
<path d="M149.017 62.225C146.677 62.225 144.547 61.775 142.627 60.875C140.737 59.975 139.102 58.76 137.722 57.23C136.372 55.67 135.322 53.93 134.572 52.01C133.822 50.06 133.447 48.065 133.447 46.025C133.447 43.895 133.837 41.87 134.617 39.95C135.427 38 136.522 36.275 137.902 34.775C139.312 33.245 140.962 32.045 142.852 31.175C144.772 30.275 146.872 29.825 149.152 29.825C151.462 29.825 153.562 30.29 155.452 31.22C157.372 32.15 159.007 33.395 160.357 34.955C161.707 36.515 162.757 38.255 163.507 40.175C164.257 42.095 164.632 44.075 164.632 46.115C164.632 48.215 164.242 50.24 163.462 52.19C162.682 54.11 161.587 55.835 160.177 57.365C158.797 58.865 157.147 60.05 155.227 60.92C153.337 61.79 151.267 62.225 149.017 62.225ZM139.747 46.025C139.747 47.405 139.957 48.74 140.377 50.03C140.797 51.32 141.397 52.475 142.177 53.495C142.987 54.485 143.962 55.28 145.102 55.88C146.272 56.45 147.592 56.735 149.062 56.735C150.562 56.735 151.897 56.435 153.067 55.835C154.237 55.205 155.212 54.38 155.992 53.36C156.772 52.31 157.357 51.155 157.747 49.895C158.167 48.605 158.377 47.315 158.377 46.025C158.377 44.645 158.152 43.325 157.702 42.065C157.282 40.775 156.667 39.635 155.857 38.645C155.077 37.625 154.102 36.83 152.932 36.26C151.792 35.66 150.502 35.36 149.062 35.36C147.532 35.36 146.182 35.675 145.012 36.305C143.872 36.905 142.912 37.715 142.132 38.735C141.352 39.755 140.752 40.895 140.332 42.155C139.942 43.415 139.747 44.705 139.747 46.025ZM182.721 62.45C180.891 62.45 179.271 62.045 177.861 61.235C176.481 60.395 175.401 59.27 174.621 57.86V71.585H168.591V38.42H173.856V42.47C174.756 41.09 175.896 40.01 177.276 39.23C178.656 38.42 180.231 38.015 182.001 38.015C183.591 38.015 185.046 38.33 186.366 38.96C187.716 39.59 188.886 40.475 189.876 41.615C190.866 42.725 191.631 44.015 192.171 45.485C192.741 46.925 193.026 48.485 193.026 50.165C193.026 52.445 192.576 54.515 191.676 56.375C190.806 58.235 189.591 59.72 188.031 60.83C186.501 61.91 184.731 62.45 182.721 62.45ZM180.696 57.32C181.626 57.32 182.466 57.125 183.216 56.735C183.966 56.345 184.611 55.82 185.151 55.16C185.721 54.47 186.141 53.705 186.411 52.865C186.711 51.995 186.861 51.095 186.861 50.165C186.861 49.175 186.696 48.26 186.366 47.42C186.066 46.58 185.616 45.845 185.016 45.215C184.416 44.555 183.711 44.045 182.901 43.685C182.121 43.325 181.266 43.145 180.336 43.145C179.766 43.145 179.181 43.25 178.581 43.46C178.011 43.64 177.456 43.91 176.916 44.27C176.376 44.63 175.896 45.05 175.476 45.53C175.086 46.01 174.801 46.535 174.621 47.105V52.64C174.981 53.51 175.461 54.305 176.061 55.025C176.691 55.745 177.411 56.315 178.221 56.735C179.031 57.125 179.856 57.32 180.696 57.32ZM197.112 62V38.42H212.727V43.685H203.142V62H197.112ZM214.564 55.025C214.564 53.495 214.984 52.16 215.824 51.02C216.694 49.85 217.894 48.95 219.424 48.32C220.954 47.69 222.709 47.375 224.689 47.375C225.679 47.375 226.684 47.45 227.704 47.6C228.724 47.75 229.609 47.99 230.359 48.32V47.06C230.359 45.56 229.909 44.405 229.009 43.595C228.139 42.785 226.834 42.38 225.094 42.38C223.804 42.38 222.574 42.605 221.404 43.055C220.234 43.505 219.004 44.165 217.714 45.035L215.779 41.075C217.339 40.055 218.929 39.29 220.549 38.78C222.199 38.27 223.924 38.015 225.724 38.015C229.084 38.015 231.694 38.855 233.554 40.535C235.444 42.215 236.389 44.615 236.389 47.735V55.25C236.389 55.88 236.494 56.33 236.704 56.6C236.944 56.87 237.319 57.035 237.829 57.095V62C237.289 62.09 236.794 62.165 236.344 62.225C235.924 62.285 235.564 62.315 235.264 62.315C234.064 62.315 233.149 62.045 232.519 61.505C231.919 60.965 231.544 60.305 231.394 59.525L231.259 58.31C230.239 59.63 228.964 60.65 227.434 61.37C225.904 62.09 224.344 62.45 222.754 62.45C221.194 62.45 219.784 62.135 218.524 61.505C217.294 60.845 216.319 59.96 215.599 58.85C214.909 57.71 214.564 56.435 214.564 55.025ZM229.234 56.24C229.564 55.88 229.834 55.52 230.044 55.16C230.254 54.8 230.359 54.47 230.359 54.17V51.785C229.639 51.485 228.859 51.26 228.019 51.11C227.179 50.93 226.384 50.84 225.634 50.84C224.074 50.84 222.784 51.185 221.764 51.875C220.774 52.535 220.279 53.42 220.279 54.53C220.279 55.13 220.444 55.7 220.774 56.24C221.104 56.78 221.584 57.215 222.214 57.545C222.844 57.875 223.594 58.04 224.464 58.04C225.364 58.04 226.249 57.875 227.119 57.545C227.989 57.185 228.694 56.75 229.234 56.24ZM242.024 62V38.42H248.054V47.42H257.594V38.42H263.624V62H257.594V52.46H248.054V62H242.024ZM269.138 62V38.465H275.168V53.945L285.743 38.42H291.233V62H285.203V46.88L274.763 62H269.138ZM305.151 62.36C302.631 62.36 300.531 61.91 298.851 61.01C297.171 60.11 295.851 58.865 294.891 57.275L299.751 55.07C300.261 55.85 300.921 56.465 301.731 56.915C302.571 57.335 303.606 57.545 304.836 57.545C306.246 57.545 307.326 57.275 308.076 56.735C308.856 56.165 309.246 55.43 309.246 54.53C309.246 53.69 308.931 53.015 308.301 52.505C307.671 51.995 306.741 51.74 305.511 51.74H303.081V48.005H305.556C306.126 48.005 306.606 47.9 306.996 47.69C307.416 47.45 307.731 47.135 307.941 46.745C308.181 46.355 308.301 45.905 308.301 45.395C308.301 44.645 308.001 44.03 307.401 43.55C306.831 43.07 305.916 42.83 304.656 42.83C303.606 42.83 302.736 43.025 302.046 43.415C301.386 43.805 300.831 44.39 300.381 45.17L295.836 42.74C296.676 41.27 297.876 40.115 299.436 39.275C301.026 38.435 302.871 38.015 304.971 38.015C306.621 38.015 308.091 38.27 309.381 38.78C310.701 39.29 311.736 40.025 312.486 40.985C313.236 41.945 313.611 43.145 313.611 44.585C313.611 45.605 313.356 46.595 312.846 47.555C312.366 48.515 311.571 49.22 310.461 49.67C311.901 50.09 312.981 50.81 313.701 51.83C314.451 52.85 314.826 54.05 314.826 55.43C314.826 56.93 314.406 58.205 313.566 59.255C312.726 60.275 311.586 61.055 310.146 61.595C308.706 62.105 307.041 62.36 305.151 62.36ZM317.44 55.025C317.44 53.495 317.86 52.16 318.7 51.02C319.57 49.85 320.77 48.95 322.3 48.32C323.83 47.69 325.585 47.375 327.565 47.375C328.555 47.375 329.56 47.45 330.58 47.6C331.6 47.75 332.485 47.99 333.235 48.32V47.06C333.235 45.56 332.785 44.405 331.885 43.595C331.015 42.785 329.71 42.38 327.97 42.38C326.68 42.38 325.45 42.605 324.28 43.055C323.11 43.505 321.88 44.165 320.59 45.035L318.655 41.075C320.215 40.055 321.805 39.29 323.425 38.78C325.075 38.27 326.8 38.015 328.6 38.015C331.96 38.015 334.57 38.855 336.43 40.535C338.32 42.215 339.265 44.615 339.265 47.735V55.25C339.265 55.88 339.37 56.33 339.58 56.6C339.82 56.87 340.195 57.035 340.705 57.095V62C340.165 62.09 339.67 62.165 339.22 62.225C338.8 62.285 338.44 62.315 338.14 62.315C336.94 62.315 336.025 62.045 335.395 61.505C334.795 60.965 334.42 60.305 334.27 59.525L334.135 58.31C333.115 59.63 331.84 60.65 330.31 61.37C328.78 62.09 327.22 62.45 325.63 62.45C324.07 62.45 322.66 62.135 321.4 61.505C320.17 60.845 319.195 59.96 318.475 58.85C317.785 57.71 317.44 56.435 317.44 55.025ZM332.11 56.24C332.44 55.88 332.71 55.52 332.92 55.16C333.13 54.8 333.235 54.47 333.235 54.17V51.785C332.515 51.485 331.735 51.26 330.895 51.11C330.055 50.93 329.26 50.84 328.51 50.84C326.95 50.84 325.66 51.185 324.64 51.875C323.65 52.535 323.155 53.42 323.155 54.53C323.155 55.13 323.32 55.7 323.65 56.24C323.98 56.78 324.46 57.215 325.09 57.545C325.72 57.875 326.47 58.04 327.34 58.04C328.24 58.04 329.125 57.875 329.995 57.545C330.865 57.185 331.57 56.75 332.11 56.24ZM363.26 67.715V62H344.9V38.42H350.93V56.735H359.21V38.42H365.24V56.735H368.57V67.715H363.26ZM372.497 62V38.465H378.527V53.945L389.102 38.42H394.592V62H388.562V46.88L378.122 62H372.497ZM400.095 62V38.465H406.125V53.945L416.7 38.42H422.19V62H416.16V46.88L405.72 62H400.095Z" fill="white"/>
<rect x="0.5" y="0.5" width="588" height="227" rx="19.5" stroke="white"/>
<path d="M34.7679 127V114H36.0179V119.775H38.4179L43.0179 114H44.4929L39.4179 120.325L45.1679 127H43.6429L38.4179 120.925H36.0179V127H34.7679ZM52.5226 127.25C51.6059 127.25 50.7559 127.075 49.9726 126.725C49.2059 126.375 48.5392 125.892 47.9726 125.275C47.4059 124.642 46.9642 123.917 46.6476 123.1C46.3309 122.283 46.1726 121.425 46.1726 120.525C46.1726 119.608 46.3309 118.75 46.6476 117.95C46.9642 117.133 47.4059 116.417 47.9726 115.8C48.5559 115.167 49.2309 114.675 49.9976 114.325C50.7809 113.958 51.6226 113.775 52.5226 113.775C53.4226 113.775 54.2559 113.958 55.0226 114.325C55.7892 114.675 56.4642 115.167 57.0476 115.8C57.6309 116.417 58.0809 117.133 58.3976 117.95C58.7142 118.75 58.8726 119.608 58.8726 120.525C58.8726 121.425 58.7142 122.283 58.3976 123.1C58.0809 123.917 57.6309 124.642 57.0476 125.275C56.4809 125.892 55.8059 126.375 55.0226 126.725C54.2559 127.075 53.4226 127.25 52.5226 127.25ZM47.4226 120.575C47.4226 121.592 47.6476 122.525 48.0976 123.375C48.5642 124.208 49.1809 124.875 49.9476 125.375C50.7142 125.875 51.5642 126.125 52.4976 126.125C53.4309 126.125 54.2809 125.875 55.0476 125.375C55.8309 124.858 56.4476 124.175 56.8976 123.325C57.3642 122.458 57.5976 121.517 57.5976 120.5C57.5976 119.483 57.3642 118.55 56.8976 117.7C56.4476 116.85 55.8309 116.175 55.0476 115.675C54.2809 115.158 53.4392 114.9 52.5226 114.9C51.5892 114.9 50.7392 115.158 49.9726 115.675C49.2059 116.192 48.5892 116.875 48.1226 117.725C47.6559 118.575 47.4226 119.525 47.4226 120.575ZM65.1925 127V115.125H60.4175V114H71.2425V115.125H66.4425V127H65.1925ZM79.1095 127.25C78.1928 127.25 77.3428 127.075 76.5595 126.725C75.7928 126.375 75.1261 125.892 74.5595 125.275C73.9928 124.642 73.5511 123.917 73.2345 123.1C72.9178 122.283 72.7595 121.425 72.7595 120.525C72.7595 119.608 72.9178 118.75 73.2345 117.95C73.5511 117.133 73.9928 116.417 74.5595 115.8C75.1428 115.167 75.8178 114.675 76.5845 114.325C77.3678 113.958 78.2095 113.775 79.1095 113.775C80.0095 113.775 80.8428 113.958 81.6095 114.325C82.3761 114.675 83.0511 115.167 83.6345 115.8C84.2178 116.417 84.6678 117.133 84.9845 117.95C85.3011 118.75 85.4595 119.608 85.4595 120.525C85.4595 121.425 85.3011 122.283 84.9845 123.1C84.6678 123.917 84.2178 124.642 83.6345 125.275C83.0678 125.892 82.3928 126.375 81.6095 126.725C80.8428 127.075 80.0095 127.25 79.1095 127.25ZM74.0095 120.575C74.0095 121.592 74.2345 122.525 74.6845 123.375C75.1511 124.208 75.7678 124.875 76.5345 125.375C77.3011 125.875 78.1511 126.125 79.0845 126.125C80.0178 126.125 80.8678 125.875 81.6345 125.375C82.4178 124.858 83.0345 124.175 83.4845 123.325C83.9511 122.458 84.1845 121.517 84.1845 120.5C84.1845 119.483 83.9511 118.55 83.4845 117.7C83.0345 116.85 82.4178 116.175 81.6345 115.675C80.8678 115.158 80.0261 114.9 79.1095 114.9C78.1761 114.9 77.3261 115.158 76.5595 115.675C75.7928 116.192 75.1761 116.875 74.7095 117.725C74.2428 118.575 74.0095 119.525 74.0095 120.575ZM94.8044 127.25C93.6877 127.25 92.6877 126.958 91.8044 126.375C90.9377 125.775 90.2377 125.05 89.7044 124.2V132.325H88.4544V114H89.6044V116.6C90.1377 115.767 90.8461 115.092 91.7294 114.575C92.6127 114.042 93.5461 113.775 94.5294 113.775C95.4461 113.775 96.2794 113.967 97.0294 114.35C97.7794 114.717 98.4294 115.225 98.9794 115.875C99.5461 116.508 99.9794 117.225 100.279 118.025C100.596 118.825 100.754 119.658 100.754 120.525C100.754 121.725 100.504 122.842 100.004 123.875C99.5044 124.892 98.8044 125.708 97.9044 126.325C97.0211 126.942 95.9877 127.25 94.8044 127.25ZM94.5044 126.125C95.2711 126.125 95.9544 125.967 96.5544 125.65C97.1711 125.333 97.6961 124.908 98.1294 124.375C98.5627 123.842 98.8961 123.242 99.1294 122.575C99.3627 121.908 99.4794 121.225 99.4794 120.525C99.4794 119.775 99.3461 119.067 99.0794 118.4C98.8127 117.717 98.4377 117.117 97.9544 116.6C97.4877 116.083 96.9377 115.675 96.3044 115.375C95.6877 115.058 95.0127 114.9 94.2794 114.9C93.8294 114.9 93.3461 114.992 92.8294 115.175C92.3294 115.358 91.8461 115.617 91.3794 115.95C90.9294 116.283 90.5544 116.667 90.2544 117.1C89.9544 117.517 89.7711 117.95 89.7044 118.4V122.675C90.0044 123.308 90.3877 123.892 90.8544 124.425C91.3377 124.942 91.8961 125.358 92.5294 125.675C93.1627 125.975 93.8211 126.125 94.5044 126.125ZM103.762 127V114H105.012V118.725H108.212C109.662 118.725 110.745 119.1 111.462 119.85C112.195 120.6 112.562 121.575 112.562 122.775C112.562 123.542 112.404 124.25 112.087 124.9C111.77 125.55 111.295 126.067 110.662 126.45C110.045 126.817 109.262 127 108.312 127H103.762ZM105.012 125.975H108.187C108.92 125.975 109.512 125.825 109.962 125.525C110.429 125.225 110.762 124.833 110.962 124.35C111.179 123.867 111.287 123.35 111.287 122.8C111.287 122.267 111.195 121.767 111.012 121.3C110.829 120.833 110.504 120.458 110.037 120.175C109.587 119.892 108.954 119.75 108.137 119.75H105.012V125.975ZM115.037 127V114.025H116.287V127H115.037ZM125.742 127.25C124.825 127.25 123.975 127.075 123.192 126.725C122.409 126.358 121.725 125.867 121.142 125.25C120.575 124.617 120.125 123.892 119.792 123.075C119.475 122.242 119.317 121.367 119.317 120.45C119.317 119.217 119.592 118.1 120.142 117.1C120.692 116.1 121.45 115.3 122.417 114.7C123.384 114.083 124.467 113.775 125.667 113.775C126.9 113.775 127.992 114.083 128.942 114.7C129.892 115.317 130.642 116.133 131.192 117.15C131.759 118.15 132.042 119.25 132.042 120.45C132.042 120.55 132.042 120.65 132.042 120.75C132.042 120.85 132.034 120.933 132.017 121H120.617C120.684 121.983 120.959 122.875 121.442 123.675C121.925 124.475 122.542 125.108 123.292 125.575C124.059 126.025 124.892 126.25 125.792 126.25C126.692 126.25 127.542 126.017 128.342 125.55C129.142 125.083 129.7 124.483 130.017 123.75L131.117 124.05C130.867 124.667 130.467 125.217 129.917 125.7C129.384 126.183 128.75 126.567 128.017 126.85C127.3 127.117 126.542 127.25 125.742 127.25ZM120.567 120.025H130.842C130.775 119.008 130.509 118.108 130.042 117.325C129.575 116.542 128.959 115.925 128.192 115.475C127.442 115.025 126.609 114.8 125.692 114.8C124.775 114.8 123.942 115.025 123.192 115.475C122.442 115.925 121.834 116.542 121.367 117.325C120.9 118.108 120.634 119.008 120.567 120.025ZM135.267 129.025L135.642 127.05H135.192V124.875H136.467V127.05L135.942 129.025H135.267ZM139.824 127L144.774 120.325L140.324 114H141.774L145.849 119.8H147.824V114H149.099V119.8H151.124L155.149 114H156.599L152.149 120.325L157.124 127H155.674L151.124 120.9H149.099V127H147.824V120.9H145.874L141.274 127H139.824ZM165.635 127.25C164.718 127.25 163.868 127.075 163.085 126.725C162.301 126.358 161.618 125.867 161.035 125.25C160.468 124.617 160.018 123.892 159.685 123.075C159.368 122.242 159.21 121.367 159.21 120.45C159.21 119.217 159.485 118.1 160.035 117.1C160.585 116.1 161.343 115.3 162.31 114.7C163.276 114.083 164.36 113.775 165.56 113.775C166.793 113.775 167.885 114.083 168.835 114.7C169.785 115.317 170.535 116.133 171.085 117.15C171.651 118.15 171.935 119.25 171.935 120.45C171.935 120.55 171.935 120.65 171.935 120.75C171.935 120.85 171.926 120.933 171.91 121H160.51C160.576 121.983 160.851 122.875 161.335 123.675C161.818 124.475 162.435 125.108 163.185 125.575C163.951 126.025 164.785 126.25 165.685 126.25C166.585 126.25 167.435 126.017 168.235 125.55C169.035 125.083 169.593 124.483 169.91 123.75L171.01 124.05C170.76 124.667 170.36 125.217 169.81 125.7C169.276 126.183 168.643 126.567 167.91 126.85C167.193 127.117 166.435 127.25 165.635 127.25ZM160.46 120.025H170.735C170.668 119.008 170.401 118.108 169.935 117.325C169.468 116.542 168.851 115.925 168.085 115.475C167.335 115.025 166.501 114.8 165.585 114.8C164.668 114.8 163.835 115.025 163.085 115.475C162.335 115.925 161.726 116.542 161.26 117.325C160.793 118.108 160.526 119.008 160.46 120.025ZM173.36 127.05V125.9C173.81 125.9 174.218 125.775 174.585 125.525C174.952 125.258 175.277 124.817 175.56 124.2C175.843 123.583 176.068 122.733 176.235 121.65C176.418 120.55 176.535 119.167 176.585 117.5L176.71 114H184.81V127H183.56V115.125H177.835L177.785 117.575C177.718 119.408 177.577 120.942 177.36 122.175C177.16 123.392 176.877 124.358 176.51 125.075C176.143 125.775 175.693 126.283 175.16 126.6C174.643 126.9 174.043 127.05 173.36 127.05ZM187.624 123.25C187.624 122.467 187.857 121.792 188.324 121.225C188.79 120.642 189.432 120.192 190.249 119.875C191.065 119.542 192.007 119.375 193.074 119.375C193.74 119.375 194.432 119.433 195.149 119.55C195.865 119.667 196.507 119.825 197.074 120.025V118.8C197.074 117.6 196.724 116.642 196.024 115.925C195.34 115.208 194.39 114.85 193.174 114.85C192.524 114.85 191.849 114.983 191.149 115.25C190.449 115.517 189.732 115.9 188.999 116.4L188.474 115.5C189.324 114.933 190.14 114.508 190.924 114.225C191.724 113.925 192.515 113.775 193.299 113.775C194.849 113.775 196.074 114.233 196.974 115.15C197.874 116.067 198.324 117.317 198.324 118.9V125.35C198.324 125.55 198.365 125.7 198.449 125.8C198.549 125.9 198.69 125.958 198.874 125.975V127C198.724 127.017 198.599 127.025 198.499 127.025C198.399 127.025 198.315 127.025 198.249 127.025C197.932 126.975 197.682 126.842 197.499 126.625C197.332 126.408 197.24 126.167 197.224 125.9V124.875C196.624 125.625 195.849 126.208 194.899 126.625C193.965 127.042 192.982 127.25 191.949 127.25C191.132 127.25 190.39 127.075 189.724 126.725C189.074 126.375 188.557 125.9 188.174 125.3C187.807 124.683 187.624 124 187.624 123.25ZM196.574 124.325C196.74 124.108 196.865 123.9 196.949 123.7C197.032 123.5 197.074 123.317 197.074 123.15V121C196.474 120.767 195.849 120.592 195.199 120.475C194.549 120.358 193.882 120.3 193.199 120.3C191.899 120.3 190.84 120.558 190.024 121.075C189.224 121.592 188.824 122.292 188.824 123.175C188.824 123.725 188.965 124.233 189.249 124.7C189.532 125.167 189.924 125.542 190.424 125.825C190.94 126.108 191.532 126.25 192.199 126.25C193.132 126.25 193.99 126.075 194.774 125.725C195.574 125.358 196.174 124.892 196.574 124.325ZM212.076 127.25C210.943 127.25 209.943 126.992 209.076 126.475C208.21 125.942 207.518 125.208 207.001 124.275C206.485 123.325 206.193 122.25 206.126 121.05H203.376V127H202.126V114H203.376V119.95H206.126C206.21 118.7 206.51 117.617 207.026 116.7C207.56 115.783 208.26 115.067 209.126 114.55C210.01 114.033 210.993 113.775 212.076 113.775C213.326 113.775 214.41 114.075 215.326 114.675C216.243 115.275 216.951 116.083 217.451 117.1C217.968 118.1 218.226 119.242 218.226 120.525C218.226 121.858 217.96 123.033 217.426 124.05C216.91 125.05 216.185 125.833 215.251 126.4C214.335 126.967 213.276 127.25 212.076 127.25ZM212.076 126.125C213.06 126.125 213.91 125.883 214.626 125.4C215.36 124.917 215.926 124.258 216.326 123.425C216.743 122.575 216.951 121.608 216.951 120.525C216.951 119.375 216.735 118.383 216.301 117.55C215.885 116.7 215.31 116.05 214.576 115.6C213.843 115.133 213.01 114.9 212.076 114.9C211.143 114.9 210.318 115.142 209.601 115.625C208.901 116.092 208.351 116.75 207.951 117.6C207.551 118.45 207.351 119.425 207.351 120.525C207.351 121.658 207.551 122.65 207.951 123.5C208.368 124.333 208.935 124.983 209.651 125.45C210.368 125.9 211.176 126.125 212.076 126.125ZM224.543 127V115.125H219.768V114H230.593V115.125H225.793V127H224.543ZM239.431 127V114H249.556V127H248.306V115.125H240.681V127H239.431ZM259.819 127.25C258.702 127.25 257.702 126.958 256.819 126.375C255.952 125.775 255.252 125.05 254.719 124.2V132.325H253.469V114H254.619V116.6C255.152 115.767 255.861 115.092 256.744 114.575C257.627 114.042 258.561 113.775 259.544 113.775C260.461 113.775 261.294 113.967 262.044 114.35C262.794 114.717 263.444 115.225 263.994 115.875C264.561 116.508 264.994 117.225 265.294 118.025C265.611 118.825 265.769 119.658 265.769 120.525C265.769 121.725 265.519 122.842 265.019 123.875C264.519 124.892 263.819 125.708 262.919 126.325C262.036 126.942 261.002 127.25 259.819 127.25ZM259.519 126.125C260.286 126.125 260.969 125.967 261.569 125.65C262.186 125.333 262.711 124.908 263.144 124.375C263.577 123.842 263.911 123.242 264.144 122.575C264.377 121.908 264.494 121.225 264.494 120.525C264.494 119.775 264.361 119.067 264.094 118.4C263.827 117.717 263.452 117.117 262.969 116.6C262.502 116.083 261.952 115.675 261.319 115.375C260.702 115.058 260.027 114.9 259.294 114.9C258.844 114.9 258.361 114.992 257.844 115.175C257.344 115.358 256.861 115.617 256.394 115.95C255.944 116.283 255.569 116.667 255.269 117.1C254.969 117.517 254.786 117.95 254.719 118.4V122.675C255.019 123.308 255.402 123.892 255.869 124.425C256.352 124.942 256.911 125.358 257.544 125.675C258.177 125.975 258.836 126.125 259.519 126.125ZM274.227 127.25C273.31 127.25 272.46 127.075 271.677 126.725C270.91 126.375 270.243 125.892 269.677 125.275C269.11 124.642 268.668 123.917 268.352 123.1C268.035 122.283 267.877 121.425 267.877 120.525C267.877 119.608 268.035 118.75 268.352 117.95C268.668 117.133 269.11 116.417 269.677 115.8C270.26 115.167 270.935 114.675 271.702 114.325C272.485 113.958 273.327 113.775 274.227 113.775C275.127 113.775 275.96 113.958 276.727 114.325C277.493 114.675 278.168 115.167 278.752 115.8C279.335 116.417 279.785 117.133 280.102 117.95C280.418 118.75 280.577 119.608 280.577 120.525C280.577 121.425 280.418 122.283 280.102 123.1C279.785 123.917 279.335 124.642 278.752 125.275C278.185 125.892 277.51 126.375 276.727 126.725C275.96 127.075 275.127 127.25 274.227 127.25ZM269.127 120.575C269.127 121.592 269.352 122.525 269.802 123.375C270.268 124.208 270.885 124.875 271.652 125.375C272.418 125.875 273.268 126.125 274.202 126.125C275.135 126.125 275.985 125.875 276.752 125.375C277.535 124.858 278.152 124.175 278.602 123.325C279.068 122.458 279.302 121.517 279.302 120.5C279.302 119.483 279.068 118.55 278.602 117.7C278.152 116.85 277.535 116.175 276.752 115.675C275.985 115.158 275.143 114.9 274.227 114.9C273.293 114.9 272.443 115.158 271.677 115.675C270.91 116.192 270.293 116.875 269.827 117.725C269.36 118.575 269.127 119.525 269.127 120.575ZM282.122 130V125.85H282.322C282.722 125.85 283.08 125.725 283.397 125.475C283.73 125.225 284.022 124.792 284.272 124.175C284.522 123.558 284.722 122.708 284.872 121.625C285.038 120.542 285.147 119.167 285.197 117.5L285.297 114H293.397V125.85H295.147V130H293.997V127H283.247V130H282.122ZM284.447 125.85H292.147V115.125H286.447L286.372 117.575C286.322 119.258 286.213 120.667 286.047 121.8C285.88 122.917 285.663 123.8 285.397 124.45C285.147 125.083 284.83 125.55 284.447 125.85ZM297.805 127V114H304.08C304.78 114 305.363 114.158 305.83 114.475C306.313 114.775 306.68 115.175 306.93 115.675C307.197 116.158 307.33 116.667 307.33 117.2C307.33 117.883 307.155 118.508 306.805 119.075C306.472 119.642 306.005 120.058 305.405 120.325C306.155 120.542 306.755 120.942 307.205 121.525C307.655 122.108 307.88 122.792 307.88 123.575C307.88 124.242 307.713 124.833 307.38 125.35C307.063 125.867 306.622 126.275 306.055 126.575C305.505 126.858 304.872 127 304.155 127H297.805ZM299.005 126.05H304.13C304.613 126.05 305.047 125.925 305.43 125.675C305.813 125.425 306.113 125.108 306.33 124.725C306.563 124.325 306.68 123.908 306.68 123.475C306.68 123.008 306.572 122.583 306.355 122.2C306.138 121.817 305.847 121.508 305.48 121.275C305.113 121.025 304.697 120.9 304.23 120.9H299.005V126.05ZM299.005 120H303.73C304.213 120 304.63 119.875 304.98 119.625C305.33 119.358 305.605 119.025 305.805 118.625C306.005 118.225 306.105 117.808 306.105 117.375C306.105 116.725 305.897 116.158 305.48 115.675C305.063 115.192 304.513 114.95 303.83 114.95H299.005V120ZM310.964 127V114.025H312.214V125.3L320.664 114H321.814V127H320.564V115.9L312.214 127H310.964ZM325.686 127V114H326.936V119.775H334.961V114H336.211V127H334.961V120.9H326.936V127H325.686ZM341.096 132.425C340.829 132.425 340.546 132.375 340.246 132.275C339.963 132.192 339.671 132.058 339.371 131.875L339.846 130.95C340.063 131.083 340.263 131.183 340.446 131.25C340.629 131.333 340.829 131.375 341.046 131.375C341.529 131.375 341.971 131.133 342.371 130.65C342.771 130.167 343.154 129.475 343.521 128.575L344.221 126.95L338.321 114H339.646L344.796 125.675L349.571 114H350.846L344.521 129C344.171 129.817 343.821 130.475 343.471 130.975C343.121 131.475 342.754 131.842 342.371 132.075C341.988 132.308 341.563 132.425 341.096 132.425ZM356.672 127V115.125H351.897V114H362.722V115.125H357.922V127H356.672ZM365.139 127V114H366.389V118.725H369.864C371.314 118.725 372.397 119.1 373.114 119.85C373.831 120.6 374.189 121.575 374.189 122.775C374.189 123.542 374.031 124.25 373.714 124.9C373.397 125.55 372.922 126.067 372.289 126.45C371.672 126.817 370.897 127 369.964 127H365.139ZM366.389 125.975H369.814C370.564 125.975 371.164 125.825 371.614 125.525C372.081 125.225 372.414 124.833 372.614 124.35C372.831 123.867 372.939 123.35 372.939 122.8C372.939 122.267 372.839 121.767 372.639 121.3C372.456 120.833 372.131 120.458 371.664 120.175C371.214 119.892 370.581 119.75 369.764 119.75H366.389V125.975ZM382.578 127.25C381.678 127.25 380.836 127.075 380.053 126.725C379.27 126.358 378.586 125.867 378.003 125.25C377.42 124.617 376.961 123.892 376.628 123.075C376.311 122.258 376.153 121.383 376.153 120.45C376.153 119.2 376.428 118.075 376.978 117.075C377.528 116.075 378.286 115.275 379.253 114.675C380.22 114.075 381.32 113.775 382.553 113.775C383.736 113.775 384.778 114.05 385.678 114.6C386.578 115.133 387.253 115.867 387.703 116.8L386.478 117.2C386.095 116.483 385.545 115.925 384.828 115.525C384.128 115.108 383.353 114.9 382.503 114.9C381.553 114.9 380.695 115.142 379.928 115.625C379.161 116.108 378.545 116.775 378.078 117.625C377.628 118.458 377.403 119.4 377.403 120.45C377.403 121.483 377.636 122.433 378.103 123.3C378.57 124.167 379.186 124.858 379.953 125.375C380.736 125.875 381.595 126.125 382.528 126.125C383.128 126.125 383.711 126.017 384.278 125.8C384.861 125.567 385.361 125.267 385.778 124.9C386.211 124.533 386.495 124.142 386.628 123.725L387.853 124.075C387.636 124.692 387.261 125.242 386.728 125.725C386.195 126.192 385.57 126.567 384.853 126.85C384.153 127.117 383.395 127.25 382.578 127.25ZM390.676 127V114H396.951C397.651 114 398.234 114.158 398.701 114.475C399.184 114.775 399.551 115.175 399.801 115.675C400.068 116.158 400.201 116.667 400.201 117.2C400.201 117.883 400.026 118.508 399.676 119.075C399.343 119.642 398.876 120.058 398.276 120.325C399.026 120.542 399.626 120.942 400.076 121.525C400.526 122.108 400.751 122.792 400.751 123.575C400.751 124.242 400.584 124.833 400.251 125.35C399.934 125.867 399.493 126.275 398.926 126.575C398.376 126.858 397.743 127 397.026 127H390.676ZM391.876 126.05H397.001C397.484 126.05 397.918 125.925 398.301 125.675C398.684 125.425 398.984 125.108 399.201 124.725C399.434 124.325 399.551 123.908 399.551 123.475C399.551 123.008 399.443 122.583 399.226 122.2C399.009 121.817 398.718 121.508 398.351 121.275C397.984 121.025 397.568 120.9 397.101 120.9H391.876V126.05ZM391.876 120H396.601C397.084 120 397.501 119.875 397.851 119.625C398.201 119.358 398.476 119.025 398.676 118.625C398.876 118.225 398.976 117.808 398.976 117.375C398.976 116.725 398.768 116.158 398.351 115.675C397.934 115.192 397.384 114.95 396.701 114.95H391.876V120ZM409.285 127.25C408.369 127.25 407.519 127.075 406.735 126.725C405.969 126.375 405.302 125.892 404.735 125.275C404.169 124.642 403.727 123.917 403.41 123.1C403.094 122.283 402.935 121.425 402.935 120.525C402.935 119.608 403.094 118.75 403.41 117.95C403.727 117.133 404.169 116.417 404.735 115.8C405.319 115.167 405.994 114.675 406.76 114.325C407.544 113.958 408.385 113.775 409.285 113.775C410.185 113.775 411.019 113.958 411.785 114.325C412.552 114.675 413.227 115.167 413.81 115.8C414.394 116.417 414.844 117.133 415.16 117.95C415.477 118.75 415.635 119.608 415.635 120.525C415.635 121.425 415.477 122.283 415.16 123.1C414.844 123.917 414.394 124.642 413.81 125.275C413.244 125.892 412.569 126.375 411.785 126.725C411.019 127.075 410.185 127.25 409.285 127.25ZM404.185 120.575C404.185 121.592 404.41 122.525 404.86 123.375C405.327 124.208 405.944 124.875 406.71 125.375C407.477 125.875 408.327 126.125 409.26 126.125C410.194 126.125 411.044 125.875 411.81 125.375C412.594 124.858 413.21 124.175 413.66 123.325C414.127 122.458 414.36 121.517 414.36 120.5C414.36 119.483 414.127 118.55 413.66 117.7C413.21 116.85 412.594 116.175 411.81 115.675C411.044 115.158 410.202 114.9 409.285 114.9C408.352 114.9 407.502 115.158 406.735 115.675C405.969 116.192 405.352 116.875 404.885 117.725C404.419 118.575 404.185 119.525 404.185 120.575ZM418.63 127V114.025H419.88V125.3L428.33 114H429.48V127H428.23V115.9L419.88 127H418.63ZM424.055 112.2C422.989 112.2 422.147 111.95 421.53 111.45C420.93 110.933 420.63 110.283 420.63 109.5H421.58C421.58 110.05 421.797 110.5 422.23 110.85C422.664 111.2 423.272 111.375 424.055 111.375C424.855 111.375 425.464 111.208 425.88 110.875C426.297 110.525 426.514 110.067 426.53 109.5H427.48C427.48 110.283 427.172 110.933 426.555 111.45C425.955 111.95 425.122 112.2 424.055 112.2ZM443.098 127V115.125H438.323V114H449.148V115.125H444.348V127H443.098ZM457.015 127.25C456.098 127.25 455.248 127.075 454.465 126.725C453.698 126.375 453.031 125.892 452.465 125.275C451.898 124.642 451.456 123.917 451.14 123.1C450.823 122.283 450.665 121.425 450.665 120.525C450.665 119.608 450.823 118.75 451.14 117.95C451.456 117.133 451.898 116.417 452.465 115.8C453.048 115.167 453.723 114.675 454.49 114.325C455.273 113.958 456.115 113.775 457.015 113.775C457.915 113.775 458.748 113.958 459.515 114.325C460.281 114.675 460.956 115.167 461.54 115.8C462.123 116.417 462.573 117.133 462.89 117.95C463.206 118.75 463.365 119.608 463.365 120.525C463.365 121.425 463.206 122.283 462.89 123.1C462.573 123.917 462.123 124.642 461.54 125.275C460.973 125.892 460.298 126.375 459.515 126.725C458.748 127.075 457.915 127.25 457.015 127.25ZM451.915 120.575C451.915 121.592 452.14 122.525 452.59 123.375C453.056 124.208 453.673 124.875 454.44 125.375C455.206 125.875 456.056 126.125 456.99 126.125C457.923 126.125 458.773 125.875 459.54 125.375C460.323 124.858 460.94 124.175 461.39 123.325C461.856 122.458 462.09 121.517 462.09 120.5C462.09 119.483 461.856 118.55 461.39 117.7C460.94 116.85 460.323 116.175 459.54 115.675C458.773 115.158 457.931 114.9 457.015 114.9C456.081 114.9 455.231 115.158 454.465 115.675C453.698 116.192 453.081 116.875 452.615 117.725C452.148 118.575 451.915 119.525 451.915 120.575ZM466.36 127V114H472.635C473.335 114 473.918 114.158 474.385 114.475C474.868 114.775 475.235 115.175 475.485 115.675C475.751 116.158 475.885 116.667 475.885 117.2C475.885 117.883 475.71 118.508 475.36 119.075C475.026 119.642 474.56 120.058 473.96 120.325C474.71 120.542 475.31 120.942 475.76 121.525C476.21 122.108 476.435 122.792 476.435 123.575C476.435 124.242 476.268 124.833 475.935 125.35C475.618 125.867 475.176 126.275 474.61 126.575C474.06 126.858 473.426 127 472.71 127H466.36ZM467.56 126.05H472.685C473.168 126.05 473.601 125.925 473.985 125.675C474.368 125.425 474.668 125.108 474.885 124.725C475.118 124.325 475.235 123.908 475.235 123.475C475.235 123.008 475.126 122.583 474.91 122.2C474.693 121.817 474.401 121.508 474.035 121.275C473.668 121.025 473.251 120.9 472.785 120.9H467.56V126.05ZM467.56 120H472.285C472.768 120 473.185 119.875 473.535 119.625C473.885 119.358 474.16 119.025 474.36 118.625C474.56 118.225 474.66 117.808 474.66 117.375C474.66 116.725 474.451 116.158 474.035 115.675C473.618 115.192 473.068 114.95 472.385 114.95H467.56V120ZM478.444 123.25C478.444 122.467 478.677 121.792 479.144 121.225C479.611 120.642 480.252 120.192 481.069 119.875C481.886 119.542 482.827 119.375 483.894 119.375C484.561 119.375 485.252 119.433 485.969 119.55C486.686 119.667 487.327 119.825 487.894 120.025V118.8C487.894 117.6 487.544 116.642 486.844 115.925C486.161 115.208 485.211 114.85 483.994 114.85C483.344 114.85 482.669 114.983 481.969 115.25C481.269 115.517 480.552 115.9 479.819 116.4L479.294 115.5C480.144 114.933 480.961 114.508 481.744 114.225C482.544 113.925 483.336 113.775 484.119 113.775C485.669 113.775 486.894 114.233 487.794 115.15C488.694 116.067 489.144 117.317 489.144 118.9V125.35C489.144 125.55 489.186 125.7 489.269 125.8C489.369 125.9 489.511 125.958 489.694 125.975V127C489.544 127.017 489.419 127.025 489.319 127.025C489.219 127.025 489.136 127.025 489.069 127.025C488.752 126.975 488.502 126.842 488.319 126.625C488.152 126.408 488.061 126.167 488.044 125.9V124.875C487.444 125.625 486.669 126.208 485.719 126.625C484.786 127.042 483.802 127.25 482.769 127.25C481.952 127.25 481.211 127.075 480.544 126.725C479.894 126.375 479.377 125.9 478.994 125.3C478.627 124.683 478.444 124 478.444 123.25ZM487.394 124.325C487.561 124.108 487.686 123.9 487.769 123.7C487.852 123.5 487.894 123.317 487.894 123.15V121C487.294 120.767 486.669 120.592 486.019 120.475C485.369 120.358 484.702 120.3 484.019 120.3C482.719 120.3 481.661 120.558 480.844 121.075C480.044 121.592 479.644 122.292 479.644 123.175C479.644 123.725 479.786 124.233 480.069 124.7C480.352 125.167 480.744 125.542 481.244 125.825C481.761 126.108 482.352 126.25 483.019 126.25C483.952 126.25 484.811 126.075 485.594 125.725C486.394 125.358 486.994 124.892 487.394 124.325ZM499.297 127.25C498.18 127.25 497.18 126.958 496.297 126.375C495.43 125.775 494.73 125.05 494.197 124.2V132.325H492.947V114H494.097V116.6C494.63 115.767 495.338 115.092 496.222 114.575C497.105 114.042 498.038 113.775 499.022 113.775C499.938 113.775 500.772 113.967 501.522 114.35C502.272 114.717 502.922 115.225 503.472 115.875C504.038 116.508 504.472 117.225 504.772 118.025C505.088 118.825 505.247 119.658 505.247 120.525C505.247 121.725 504.997 122.842 504.497 123.875C503.997 124.892 503.297 125.708 502.397 126.325C501.513 126.942 500.48 127.25 499.297 127.25ZM498.997 126.125C499.763 126.125 500.447 125.967 501.047 125.65C501.663 125.333 502.188 124.908 502.622 124.375C503.055 123.842 503.388 123.242 503.622 122.575C503.855 121.908 503.972 121.225 503.972 120.525C503.972 119.775 503.838 119.067 503.572 118.4C503.305 117.717 502.93 117.117 502.447 116.6C501.98 116.083 501.43 115.675 500.797 115.375C500.18 115.058 499.505 114.9 498.772 114.9C498.322 114.9 497.838 114.992 497.322 115.175C496.822 115.358 496.338 115.617 495.872 115.95C495.422 116.283 495.047 116.667 494.747 117.1C494.447 117.517 494.263 117.95 494.197 118.4V122.675C494.497 123.308 494.88 123.892 495.347 124.425C495.83 124.942 496.388 125.358 497.022 125.675C497.655 125.975 498.313 126.125 498.997 126.125ZM514.675 127V114.025H515.925V125.3L524.375 114H525.525V127H524.275V115.9L515.925 127H514.675ZM528.072 127.05V125.9C528.522 125.9 528.93 125.775 529.297 125.525C529.663 125.258 529.988 124.817 530.272 124.2C530.555 123.583 530.78 122.733 530.947 121.65C531.13 120.55 531.247 119.167 531.297 117.5L531.422 114H539.522V127H538.272V115.125H532.547L532.497 117.575C532.43 119.408 532.288 120.942 532.072 122.175C531.872 123.392 531.588 124.358 531.222 125.075C530.855 125.775 530.405 126.283 529.872 126.6C529.355 126.9 528.755 127.05 528.072 127.05ZM543.41 127V114.025H544.66V125.3L553.11 114H554.26V127H553.01V115.9L544.66 127H543.41ZM36.6038 167.425C36.3371 167.425 36.0538 167.375 35.7538 167.275C35.4705 167.192 35.1788 167.058 34.8788 166.875L35.3538 165.95C35.5705 166.083 35.7705 166.183 35.9538 166.25C36.1371 166.333 36.3371 166.375 36.5538 166.375C37.0371 166.375 37.4788 166.133 37.8788 165.65C38.2788 165.167 38.6621 164.475 39.0288 163.575L39.7288 161.95L33.8288 149H35.1538L40.3038 160.675L45.0788 149H46.3538L40.0288 164C39.6788 164.817 39.3288 165.475 38.9788 165.975C38.6288 166.475 38.2621 166.842 37.8788 167.075C37.4955 167.308 37.0705 167.425 36.6038 167.425ZM53.9403 162.25C53.0403 162.25 52.1987 162.075 51.4153 161.725C50.632 161.358 49.9487 160.867 49.3653 160.25C48.782 159.617 48.3237 158.892 47.9903 158.075C47.6737 157.258 47.5153 156.383 47.5153 155.45C47.5153 154.2 47.7903 153.075 48.3403 152.075C48.8903 151.075 49.6487 150.275 50.6153 149.675C51.582 149.075 52.682 148.775 53.9153 148.775C55.0987 148.775 56.1403 149.05 57.0403 149.6C57.9403 150.133 58.6153 150.867 59.0653 151.8L57.8403 152.2C57.457 151.483 56.907 150.925 56.1903 150.525C55.4903 150.108 54.7153 149.9 53.8653 149.9C52.9153 149.9 52.057 150.142 51.2903 150.625C50.5237 151.108 49.907 151.775 49.4403 152.625C48.9903 153.458 48.7653 154.4 48.7653 155.45C48.7653 156.483 48.9987 157.433 49.4653 158.3C49.932 159.167 50.5487 159.858 51.3153 160.375C52.0987 160.875 52.957 161.125 53.8903 161.125C54.4903 161.125 55.0737 161.017 55.6403 160.8C56.2237 160.567 56.7237 160.267 57.1403 159.9C57.5737 159.533 57.857 159.142 57.9903 158.725L59.2153 159.075C58.9987 159.692 58.6237 160.242 58.0903 160.725C57.557 161.192 56.932 161.567 56.2153 161.85C55.5153 162.117 54.757 162.25 53.9403 162.25ZM60.7134 162.05V160.9C61.1634 160.9 61.5717 160.775 61.9384 160.525C62.305 160.258 62.63 159.817 62.9134 159.2C63.1967 158.583 63.4217 157.733 63.5884 156.65C63.7717 155.55 63.8884 154.167 63.9384 152.5L64.0634 149H72.1634V162H70.9134V150.125H65.1884L65.1384 152.575C65.0717 154.408 64.93 155.942 64.7134 157.175C64.5134 158.392 64.23 159.358 63.8634 160.075C63.4967 160.775 63.0467 161.283 62.5134 161.6C61.9967 161.9 61.3967 162.05 60.7134 162.05ZM77.3021 167.425C77.0354 167.425 76.7521 167.375 76.4521 167.275C76.1687 167.192 75.8771 167.058 75.5771 166.875L76.0521 165.95C76.2687 166.083 76.4687 166.183 76.6521 166.25C76.8354 166.333 77.0354 166.375 77.2521 166.375C77.7354 166.375 78.1771 166.133 78.5771 165.65C78.9771 165.167 79.3604 164.475 79.7271 163.575L80.4271 161.95L74.5271 149H75.8521L81.0021 160.675L85.7771 149H87.0521L80.7271 164C80.3771 164.817 80.0271 165.475 79.6771 165.975C79.3271 166.475 78.9604 166.842 78.5771 167.075C78.1937 167.308 77.7687 167.425 77.3021 167.425ZM89.553 162V149H97.078V150.125H90.803V162H89.553ZM100.813 167.425C100.546 167.425 100.263 167.375 99.9628 167.275C99.6795 167.192 99.3878 167.058 99.0878 166.875L99.5628 165.95C99.7795 166.083 99.9795 166.183 100.163 166.25C100.346 166.333 100.546 166.375 100.763 166.375C101.246 166.375 101.688 166.133 102.088 165.65C102.488 165.167 102.871 164.475 103.238 163.575L103.938 161.95L98.0378 149H99.3628L104.513 160.675L109.288 149H110.563L104.238 164C103.888 164.817 103.538 165.475 103.188 165.975C102.838 166.475 102.471 166.842 102.088 167.075C101.704 167.308 101.279 167.425 100.813 167.425ZM111.537 164.025L111.912 162.05H111.462V159.875H112.737V162.05L112.212 164.025H111.537ZM123.44 162V149H133.565V162H132.315V150.125H124.69V162H123.44ZM142.928 162.25C142.011 162.25 141.161 162.075 140.378 161.725C139.611 161.375 138.944 160.892 138.378 160.275C137.811 159.642 137.369 158.917 137.053 158.1C136.736 157.283 136.578 156.425 136.578 155.525C136.578 154.608 136.736 153.75 137.053 152.95C137.369 152.133 137.811 151.417 138.378 150.8C138.961 150.167 139.636 149.675 140.403 149.325C141.186 148.958 142.028 148.775 142.928 148.775C143.828 148.775 144.661 148.958 145.428 149.325C146.194 149.675 146.869 150.167 147.453 150.8C148.036 151.417 148.486 152.133 148.803 152.95C149.119 153.75 149.278 154.608 149.278 155.525C149.278 156.425 149.119 157.283 148.803 158.1C148.486 158.917 148.036 159.642 147.453 160.275C146.886 160.892 146.211 161.375 145.428 161.725C144.661 162.075 143.828 162.25 142.928 162.25ZM137.828 155.575C137.828 156.592 138.053 157.525 138.503 158.375C138.969 159.208 139.586 159.875 140.353 160.375C141.119 160.875 141.969 161.125 142.903 161.125C143.836 161.125 144.686 160.875 145.453 160.375C146.236 159.858 146.853 159.175 147.303 158.325C147.769 157.458 148.003 156.517 148.003 155.5C148.003 154.483 147.769 153.55 147.303 152.7C146.853 151.85 146.236 151.175 145.453 150.675C144.686 150.158 143.844 149.9 142.928 149.9C141.994 149.9 141.144 150.158 140.378 150.675C139.611 151.192 138.994 151.875 138.528 152.725C138.061 153.575 137.828 154.525 137.828 155.575ZM150.823 165V160.85H151.023C151.423 160.85 151.781 160.725 152.098 160.475C152.431 160.225 152.723 159.792 152.973 159.175C153.223 158.558 153.423 157.708 153.573 156.625C153.739 155.542 153.848 154.167 153.898 152.5L153.998 149H162.098V160.85H163.848V165H162.698V162H151.948V165H150.823ZM153.148 160.85H160.848V150.125H155.148L155.073 152.575C155.023 154.258 154.914 155.667 154.748 156.8C154.581 157.917 154.364 158.8 154.098 159.45C153.848 160.083 153.531 160.55 153.148 160.85ZM172.031 162.25C171.114 162.25 170.264 162.075 169.481 161.725C168.698 161.358 168.014 160.867 167.431 160.25C166.864 159.617 166.414 158.892 166.081 158.075C165.764 157.242 165.606 156.367 165.606 155.45C165.606 154.217 165.881 153.1 166.431 152.1C166.981 151.1 167.739 150.3 168.706 149.7C169.673 149.083 170.756 148.775 171.956 148.775C173.189 148.775 174.281 149.083 175.231 149.7C176.181 150.317 176.931 151.133 177.481 152.15C178.048 153.15 178.331 154.25 178.331 155.45C178.331 155.55 178.331 155.65 178.331 155.75C178.331 155.85 178.323 155.933 178.306 156H166.906C166.973 156.983 167.248 157.875 167.731 158.675C168.214 159.475 168.831 160.108 169.581 160.575C170.348 161.025 171.181 161.25 172.081 161.25C172.981 161.25 173.831 161.017 174.631 160.55C175.431 160.083 175.989 159.483 176.306 158.75L177.406 159.05C177.156 159.667 176.756 160.217 176.206 160.7C175.673 161.183 175.039 161.567 174.306 161.85C173.589 162.117 172.831 162.25 172.031 162.25ZM166.856 155.025H177.131C177.064 154.008 176.798 153.108 176.331 152.325C175.864 151.542 175.248 150.925 174.481 150.475C173.731 150.025 172.898 149.8 171.981 149.8C171.064 149.8 170.231 150.025 169.481 150.475C168.731 150.925 168.123 151.542 167.656 152.325C167.189 153.108 166.923 154.008 166.856 155.025ZM179.756 162.05V160.9C180.206 160.9 180.615 160.775 180.981 160.525C181.348 160.258 181.673 159.817 181.956 159.2C182.24 158.583 182.465 157.733 182.631 156.65C182.815 155.55 182.931 154.167 182.981 152.5L183.106 149H191.206V162H189.956V150.125H184.231L184.181 152.575C184.115 154.408 183.973 155.942 183.756 157.175C183.556 158.392 183.273 159.358 182.906 160.075C182.54 160.775 182.09 161.283 181.556 161.6C181.04 161.9 180.44 162.05 179.756 162.05ZM195.095 162V149.025H196.345V160.3L204.795 149H205.945V162H204.695V150.9L196.345 162H195.095ZM213.142 162V150.125H208.367V149H219.192V150.125H214.392V162H213.142ZM221.609 162V149H222.859V153.725H226.334C227.784 153.725 228.867 154.1 229.584 154.85C230.3 155.6 230.659 156.575 230.659 157.775C230.659 158.542 230.5 159.25 230.184 159.9C229.867 160.55 229.392 161.067 228.759 161.45C228.142 161.817 227.367 162 226.434 162H221.609ZM222.859 160.975H226.284C227.034 160.975 227.634 160.825 228.084 160.525C228.55 160.225 228.884 159.833 229.084 159.35C229.3 158.867 229.409 158.35 229.409 157.8C229.409 157.267 229.309 156.767 229.109 156.3C228.925 155.833 228.6 155.458 228.134 155.175C227.684 154.892 227.05 154.75 226.234 154.75H222.859V160.975ZM239.048 162.25C238.148 162.25 237.306 162.075 236.523 161.725C235.739 161.358 235.056 160.867 234.473 160.25C233.889 159.617 233.431 158.892 233.098 158.075C232.781 157.258 232.623 156.383 232.623 155.45C232.623 154.2 232.898 153.075 233.448 152.075C233.998 151.075 234.756 150.275 235.723 149.675C236.689 149.075 237.789 148.775 239.023 148.775C240.206 148.775 241.248 149.05 242.148 149.6C243.048 150.133 243.723 150.867 244.173 151.8L242.948 152.2C242.564 151.483 242.014 150.925 241.298 150.525C240.598 150.108 239.823 149.9 238.973 149.9C238.023 149.9 237.164 150.142 236.398 150.625C235.631 151.108 235.014 151.775 234.548 152.625C234.098 153.458 233.873 154.4 233.873 155.45C233.873 156.483 234.106 157.433 234.573 158.3C235.039 159.167 235.656 159.858 236.423 160.375C237.206 160.875 238.064 161.125 238.998 161.125C239.598 161.125 240.181 161.017 240.748 160.8C241.331 160.567 241.831 160.267 242.248 159.9C242.681 159.533 242.964 159.142 243.098 158.725L244.323 159.075C244.106 159.692 243.731 160.242 243.198 160.725C242.664 161.192 242.039 161.567 241.323 161.85C240.623 162.117 239.864 162.25 239.048 162.25ZM246.122 162L250.172 156.625C249.239 156.525 248.489 156.15 247.922 155.5C247.372 154.833 247.097 153.933 247.097 152.8C247.097 152.083 247.264 151.442 247.597 150.875C247.947 150.308 248.43 149.85 249.047 149.5C249.68 149.15 250.422 148.975 251.272 148.975H255.922V162H254.672V156.8H251.447L247.547 162H246.122ZM251.097 155.8H254.672V150H251.447C250.514 150 249.764 150.267 249.197 150.8C248.63 151.333 248.347 152.008 248.347 152.825C248.347 153.642 248.572 154.342 249.022 154.925C249.489 155.508 250.18 155.8 251.097 155.8ZM266.238 162V149.025H267.488V160.3L275.938 149H277.088V162H275.838V150.9L267.488 162H266.238ZM280.959 162V149H282.209V154.775H290.234V149H291.484V162H290.234V155.9H282.209V162H280.959ZM301.363 167.325V162H300.763C299.496 162 298.388 161.708 297.438 161.125C296.505 160.525 295.78 159.733 295.263 158.75C294.746 157.767 294.488 156.692 294.488 155.525C294.488 154.342 294.746 153.267 295.263 152.3C295.796 151.317 296.53 150.525 297.463 149.925C298.413 149.325 299.513 149.025 300.763 149.025H301.363V143.75H302.613V149.025H303.238C304.488 149.025 305.58 149.325 306.513 149.925C307.463 150.525 308.196 151.317 308.713 152.3C309.246 153.267 309.513 154.342 309.513 155.525C309.513 156.692 309.255 157.767 308.738 158.75C308.221 159.733 307.488 160.525 306.538 161.125C305.605 161.708 304.505 162 303.238 162H302.613V167.325H301.363ZM300.763 160.925H301.413V150.1H300.763C299.78 150.1 298.905 150.35 298.138 150.85C297.388 151.35 296.796 152.008 296.363 152.825C295.93 153.642 295.713 154.558 295.713 155.575C295.713 156.558 295.921 157.458 296.338 158.275C296.771 159.092 297.363 159.742 298.113 160.225C298.88 160.692 299.763 160.925 300.763 160.925ZM302.563 160.925H303.238C304.238 160.925 305.113 160.692 305.863 160.225C306.63 159.742 307.221 159.092 307.638 158.275C308.071 157.458 308.288 156.558 308.288 155.575C308.288 154.558 308.071 153.642 307.638 152.825C307.205 152.008 306.605 151.35 305.838 150.85C305.088 150.35 304.221 150.1 303.238 150.1H302.563V160.925ZM317.952 162.25C317.036 162.25 316.186 162.075 315.402 161.725C314.636 161.375 313.969 160.892 313.402 160.275C312.836 159.642 312.394 158.917 312.077 158.1C311.761 157.283 311.602 156.425 311.602 155.525C311.602 154.608 311.761 153.75 312.077 152.95C312.394 152.133 312.836 151.417 313.402 150.8C313.986 150.167 314.661 149.675 315.427 149.325C316.211 148.958 317.052 148.775 317.952 148.775C318.852 148.775 319.686 148.958 320.452 149.325C321.219 149.675 321.894 150.167 322.477 150.8C323.061 151.417 323.511 152.133 323.827 152.95C324.144 153.75 324.302 154.608 324.302 155.525C324.302 156.425 324.144 157.283 323.827 158.1C323.511 158.917 323.061 159.642 322.477 160.275C321.911 160.892 321.236 161.375 320.452 161.725C319.686 162.075 318.852 162.25 317.952 162.25ZM312.852 155.575C312.852 156.592 313.077 157.525 313.527 158.375C313.994 159.208 314.611 159.875 315.377 160.375C316.144 160.875 316.994 161.125 317.927 161.125C318.861 161.125 319.711 160.875 320.477 160.375C321.261 159.858 321.877 159.175 322.327 158.325C322.794 157.458 323.027 156.517 323.027 155.5C323.027 154.483 322.794 153.55 322.327 152.7C321.877 151.85 321.261 151.175 320.477 150.675C319.711 150.158 318.869 149.9 317.952 149.9C317.019 149.9 316.169 150.158 315.402 150.675C314.636 151.192 314.019 151.875 313.552 152.725C313.086 153.575 312.852 154.525 312.852 155.575ZM333.647 162.25C332.531 162.25 331.531 161.958 330.647 161.375C329.781 160.775 329.081 160.05 328.547 159.2V167.325H327.297V149H328.447V151.6C328.981 150.767 329.689 150.092 330.572 149.575C331.456 149.042 332.389 148.775 333.372 148.775C334.289 148.775 335.122 148.967 335.872 149.35C336.622 149.717 337.272 150.225 337.822 150.875C338.389 151.508 338.822 152.225 339.122 153.025C339.439 153.825 339.597 154.658 339.597 155.525C339.597 156.725 339.347 157.842 338.847 158.875C338.347 159.892 337.647 160.708 336.747 161.325C335.864 161.942 334.831 162.25 333.647 162.25ZM333.347 161.125C334.114 161.125 334.797 160.967 335.397 160.65C336.014 160.333 336.539 159.908 336.972 159.375C337.406 158.842 337.739 158.242 337.972 157.575C338.206 156.908 338.322 156.225 338.322 155.525C338.322 154.775 338.189 154.067 337.922 153.4C337.656 152.717 337.281 152.117 336.797 151.6C336.331 151.083 335.781 150.675 335.147 150.375C334.531 150.058 333.856 149.9 333.122 149.9C332.672 149.9 332.189 149.992 331.672 150.175C331.172 150.358 330.689 150.617 330.222 150.95C329.772 151.283 329.397 151.667 329.097 152.1C328.797 152.517 328.614 152.95 328.547 153.4V157.675C328.847 158.308 329.231 158.892 329.697 159.425C330.181 159.942 330.739 160.358 331.372 160.675C332.006 160.975 332.664 161.125 333.347 161.125ZM342.605 162V149H343.855L349.33 158.35L354.805 149H356.03V162H354.83V150.975L349.73 159.675H348.905L343.805 151V162H342.605ZM358.864 158.25C358.864 157.467 359.097 156.792 359.564 156.225C360.03 155.642 360.672 155.192 361.489 154.875C362.305 154.542 363.247 154.375 364.314 154.375C364.98 154.375 365.672 154.433 366.389 154.55C367.105 154.667 367.747 154.825 368.314 155.025V153.8C368.314 152.6 367.964 151.642 367.264 150.925C366.58 150.208 365.63 149.85 364.414 149.85C363.764 149.85 363.089 149.983 362.389 150.25C361.689 150.517 360.972 150.9 360.239 151.4L359.714 150.5C360.564 149.933 361.38 149.508 362.164 149.225C362.964 148.925 363.755 148.775 364.539 148.775C366.089 148.775 367.314 149.233 368.214 150.15C369.114 151.067 369.564 152.317 369.564 153.9V160.35C369.564 160.55 369.605 160.7 369.689 160.8C369.789 160.9 369.93 160.958 370.114 160.975V162C369.964 162.017 369.839 162.025 369.739 162.025C369.639 162.025 369.555 162.025 369.489 162.025C369.172 161.975 368.922 161.842 368.739 161.625C368.572 161.408 368.48 161.167 368.464 160.9V159.875C367.864 160.625 367.089 161.208 366.139 161.625C365.205 162.042 364.222 162.25 363.189 162.25C362.372 162.25 361.63 162.075 360.964 161.725C360.314 161.375 359.797 160.9 359.414 160.3C359.047 159.683 358.864 159 358.864 158.25ZM367.814 159.325C367.98 159.108 368.105 158.9 368.189 158.7C368.272 158.5 368.314 158.317 368.314 158.15V156C367.714 155.767 367.089 155.592 366.439 155.475C365.789 155.358 365.122 155.3 364.439 155.3C363.139 155.3 362.08 155.558 361.264 156.075C360.464 156.592 360.064 157.292 360.064 158.175C360.064 158.725 360.205 159.233 360.489 159.7C360.772 160.167 361.164 160.542 361.664 160.825C362.18 161.108 362.772 161.25 363.439 161.25C364.372 161.25 365.23 161.075 366.014 160.725C366.814 160.358 367.414 159.892 367.814 159.325ZM383.867 165V162H373.367V149H374.617V160.875H381.992V149H383.242V160.875H384.992V165H383.867ZM387.673 162V149.025H388.923V160.3L397.373 149H398.523V162H397.273V150.9L388.923 162H387.673ZM407.92 162.25C407.003 162.25 406.153 162.075 405.37 161.725C404.586 161.358 403.903 160.867 403.32 160.25C402.753 159.617 402.303 158.892 401.97 158.075C401.653 157.242 401.495 156.367 401.495 155.45C401.495 154.217 401.77 153.1 402.32 152.1C402.87 151.1 403.628 150.3 404.595 149.7C405.561 149.083 406.645 148.775 407.845 148.775C409.078 148.775 410.17 149.083 411.12 149.7C412.07 150.317 412.82 151.133 413.37 152.15C413.936 153.15 414.22 154.25 414.22 155.45C414.22 155.55 414.22 155.65 414.22 155.75C414.22 155.85 414.211 155.933 414.195 156H402.795C402.861 156.983 403.136 157.875 403.62 158.675C404.103 159.475 404.72 160.108 405.47 160.575C406.236 161.025 407.07 161.25 407.97 161.25C408.87 161.25 409.72 161.017 410.52 160.55C411.32 160.083 411.878 159.483 412.195 158.75L413.295 159.05C413.045 159.667 412.645 160.217 412.095 160.7C411.561 161.183 410.928 161.567 410.195 161.85C409.478 162.117 408.72 162.25 407.92 162.25ZM402.745 155.025H413.02C412.953 154.008 412.686 153.108 412.22 152.325C411.753 151.542 411.136 150.925 410.37 150.475C409.62 150.025 408.786 149.8 407.87 149.8C406.953 149.8 406.12 150.025 405.37 150.475C404.62 150.925 404.011 151.542 403.545 152.325C403.078 153.108 402.811 154.008 402.745 155.025ZM416.97 162V149.025H418.22V160.3L426.67 149H427.82V162H426.57V150.9L418.22 162H416.97ZM422.395 147.2C421.328 147.2 420.487 146.95 419.87 146.45C419.27 145.933 418.97 145.283 418.97 144.5H419.92C419.92 145.05 420.137 145.5 420.57 145.85C421.003 146.2 421.612 146.375 422.395 146.375C423.195 146.375 423.803 146.208 424.22 145.875C424.637 145.525 424.853 145.067 424.87 144.5H425.82C425.82 145.283 425.512 145.933 424.895 146.45C424.295 146.95 423.462 147.2 422.395 147.2ZM443.638 162.25C442.738 162.25 441.896 162.075 441.113 161.725C440.329 161.358 439.646 160.867 439.063 160.25C438.479 159.617 438.021 158.892 437.688 158.075C437.371 157.258 437.213 156.383 437.213 155.45C437.213 154.2 437.488 153.075 438.038 152.075C438.588 151.075 439.346 150.275 440.313 149.675C441.279 149.075 442.379 148.775 443.613 148.775C444.796 148.775 445.838 149.05 446.738 149.6C447.638 150.133 448.313 150.867 448.763 151.8L447.538 152.2C447.154 151.483 446.604 150.925 445.888 150.525C445.188 150.108 444.413 149.9 443.563 149.9C442.613 149.9 441.754 150.142 440.988 150.625C440.221 151.108 439.604 151.775 439.138 152.625C438.688 153.458 438.463 154.4 438.463 155.45C438.463 156.483 438.696 157.433 439.163 158.3C439.629 159.167 440.246 159.858 441.013 160.375C441.796 160.875 442.654 161.125 443.588 161.125C444.188 161.125 444.771 161.017 445.338 160.8C445.921 160.567 446.421 160.267 446.838 159.9C447.271 159.533 447.554 159.142 447.688 158.725L448.913 159.075C448.696 159.692 448.321 160.242 447.788 160.725C447.254 161.192 446.629 161.567 445.913 161.85C445.213 162.117 444.454 162.25 443.638 162.25ZM456.707 165V160.85H456.907C457.307 160.85 457.665 160.725 457.982 160.475C458.315 160.225 458.607 159.792 458.857 159.175C459.107 158.558 459.307 157.708 459.457 156.625C459.623 155.542 459.732 154.167 459.782 152.5L459.882 149H467.982V160.85H469.732V165H468.582V162H457.832V165H456.707ZM459.032 160.85H466.732V150.125H461.032L460.957 152.575C460.907 154.258 460.798 155.667 460.632 156.8C460.465 157.917 460.248 158.8 459.982 159.45C459.732 160.083 459.415 160.55 459.032 160.85ZM478.74 162.25C477.623 162.25 476.623 161.958 475.74 161.375C474.873 160.775 474.173 160.05 473.64 159.2V167.325H472.39V149H473.54V151.6C474.073 150.767 474.782 150.092 475.665 149.575C476.548 149.042 477.482 148.775 478.465 148.775C479.382 148.775 480.215 148.967 480.965 149.35C481.715 149.717 482.365 150.225 482.915 150.875C483.482 151.508 483.915 152.225 484.215 153.025C484.532 153.825 484.69 154.658 484.69 155.525C484.69 156.725 484.44 157.842 483.94 158.875C483.44 159.892 482.74 160.708 481.84 161.325C480.957 161.942 479.923 162.25 478.74 162.25ZM478.44 161.125C479.207 161.125 479.89 160.967 480.49 160.65C481.107 160.333 481.632 159.908 482.065 159.375C482.498 158.842 482.832 158.242 483.065 157.575C483.298 156.908 483.415 156.225 483.415 155.525C483.415 154.775 483.282 154.067 483.015 153.4C482.748 152.717 482.373 152.117 481.89 151.6C481.423 151.083 480.873 150.675 480.24 150.375C479.623 150.058 478.948 149.9 478.215 149.9C477.765 149.9 477.282 149.992 476.765 150.175C476.265 150.358 475.782 150.617 475.315 150.95C474.865 151.283 474.49 151.667 474.19 152.1C473.89 152.517 473.707 152.95 473.64 153.4V157.675C473.94 158.308 474.323 158.892 474.79 159.425C475.273 159.942 475.832 160.358 476.465 160.675C477.098 160.975 477.757 161.125 478.44 161.125ZM488.508 167.425C488.241 167.425 487.958 167.375 487.658 167.275C487.375 167.192 487.083 167.058 486.783 166.875L487.258 165.95C487.475 166.083 487.675 166.183 487.858 166.25C488.041 166.333 488.241 166.375 488.458 166.375C488.941 166.375 489.383 166.133 489.783 165.65C490.183 165.167 490.566 164.475 490.933 163.575L491.633 161.95L485.733 149H487.058L492.208 160.675L496.983 149H498.258L491.933 164C491.583 164.817 491.233 165.475 490.883 165.975C490.533 166.475 490.166 166.842 489.783 167.075C489.4 167.308 488.975 167.425 488.508 167.425ZM500.759 162V149H508.284V150.125H502.009V162H500.759ZM510.769 162V149.025H512.019V160.3L520.469 149H521.619V162H520.369V150.9L512.019 162H510.769ZM525.491 162V149H526.741L532.216 158.35L537.691 149H538.916V162H537.716V150.975L532.616 159.675H531.791L526.691 151V162H525.491ZM542.825 162V149.025H544.075V160.3L552.525 149H553.675V162H552.425V150.9L544.075 162H542.825ZM70.8818 197.05V195.9C71.3318 195.9 71.7402 195.775 72.1068 195.525C72.4735 195.258 72.7985 194.817 73.0818 194.2C73.3652 193.583 73.5902 192.733 73.7568 191.65C73.9402 190.55 74.0568 189.167 74.1068 187.5L74.2318 184H82.3318V197H81.0818V185.125H75.3568L75.3068 187.575C75.2402 189.408 75.0985 190.942 74.8818 192.175C74.6818 193.392 74.3985 194.358 74.0318 195.075C73.6652 195.775 73.2152 196.283 72.6818 196.6C72.1652 196.9 71.5652 197.05 70.8818 197.05ZM96.1705 197.25C95.0372 197.25 94.0372 196.992 93.1705 196.475C92.3038 195.942 91.6122 195.208 91.0955 194.275C90.5788 193.325 90.2872 192.25 90.2205 191.05H87.4705V197H86.2205V184H87.4705V189.95H90.2205C90.3038 188.7 90.6038 187.617 91.1205 186.7C91.6538 185.783 92.3538 185.067 93.2205 184.55C94.1038 184.033 95.0872 183.775 96.1705 183.775C97.4205 183.775 98.5038 184.075 99.4205 184.675C100.337 185.275 101.046 186.083 101.546 187.1C102.062 188.1 102.321 189.242 102.321 190.525C102.321 191.858 102.054 193.033 101.521 194.05C101.004 195.05 100.279 195.833 99.3455 196.4C98.4288 196.967 97.3705 197.25 96.1705 197.25ZM96.1705 196.125C97.1538 196.125 98.0038 195.883 98.7205 195.4C99.4538 194.917 100.021 194.258 100.421 193.425C100.837 192.575 101.046 191.608 101.046 190.525C101.046 189.375 100.829 188.383 100.396 187.55C99.9788 186.7 99.4038 186.05 98.6705 185.6C97.9372 185.133 97.1038 184.9 96.1705 184.9C95.2372 184.9 94.4122 185.142 93.6955 185.625C92.9955 186.092 92.4455 186.75 92.0455 187.6C91.6455 188.45 91.4455 189.425 91.4455 190.525C91.4455 191.658 91.6455 192.65 92.0455 193.5C92.4622 194.333 93.0288 194.983 93.7455 195.45C94.4622 195.9 95.2705 196.125 96.1705 196.125ZM103.862 200V195.85H104.062C104.462 195.85 104.821 195.725 105.137 195.475C105.471 195.225 105.762 194.792 106.012 194.175C106.262 193.558 106.462 192.708 106.612 191.625C106.779 190.542 106.887 189.167 106.937 187.5L107.037 184H115.137V195.85H116.887V200H115.737V197H104.987V200H103.862ZM106.187 195.85H113.887V185.125H108.187L108.112 187.575C108.062 189.258 107.954 190.667 107.787 191.8C107.621 192.917 107.404 193.8 107.137 194.45C106.887 195.083 106.571 195.55 106.187 195.85ZM119.546 197V184H120.796V188.725H124.271C125.721 188.725 126.804 189.1 127.521 189.85C128.237 190.6 128.596 191.575 128.596 192.775C128.596 193.542 128.437 194.25 128.121 194.9C127.804 195.55 127.329 196.067 126.696 196.45C126.079 196.817 125.304 197 124.371 197H119.546ZM120.796 195.975H124.221C124.971 195.975 125.571 195.825 126.021 195.525C126.487 195.225 126.821 194.833 127.021 194.35C127.237 193.867 127.346 193.35 127.346 192.8C127.346 192.267 127.246 191.767 127.046 191.3C126.862 190.833 126.537 190.458 126.071 190.175C125.621 189.892 124.987 189.75 124.171 189.75H120.796V195.975ZM131.46 197V184H132.71L138.185 193.35L143.66 184H144.885V197H143.685V185.975L138.585 194.675H137.76L132.66 186V197H131.46ZM148.794 197V184.025H150.044V195.3L158.494 184H159.644V197H158.394V185.9L150.044 197H148.794ZM163.99 199.025L164.365 197.05H163.915V194.875H165.19V197.05L164.665 199.025H163.99ZM181.418 197.25C180.518 197.25 179.677 197.075 178.893 196.725C178.11 196.358 177.427 195.867 176.843 195.25C176.26 194.617 175.802 193.892 175.468 193.075C175.152 192.258 174.993 191.383 174.993 190.45C174.993 189.2 175.268 188.075 175.818 187.075C176.368 186.075 177.127 185.275 178.093 184.675C179.06 184.075 180.16 183.775 181.393 183.775C182.577 183.775 183.618 184.05 184.518 184.6C185.418 185.133 186.093 185.867 186.543 186.8L185.318 187.2C184.935 186.483 184.385 185.925 183.668 185.525C182.968 185.108 182.193 184.9 181.343 184.9C180.393 184.9 179.535 185.142 178.768 185.625C178.002 186.108 177.385 186.775 176.918 187.625C176.468 188.458 176.243 189.4 176.243 190.45C176.243 191.483 176.477 192.433 176.943 193.3C177.41 194.167 178.027 194.858 178.793 195.375C179.577 195.875 180.435 196.125 181.368 196.125C181.968 196.125 182.552 196.017 183.118 195.8C183.702 195.567 184.202 195.267 184.618 194.9C185.052 194.533 185.335 194.142 185.468 193.725L186.693 194.075C186.477 194.692 186.102 195.242 185.568 195.725C185.035 196.192 184.41 196.567 183.693 196.85C182.993 197.117 182.235 197.25 181.418 197.25ZM194.844 197.25C193.928 197.25 193.078 197.075 192.294 196.725C191.528 196.375 190.861 195.892 190.294 195.275C189.728 194.642 189.286 193.917 188.969 193.1C188.653 192.283 188.494 191.425 188.494 190.525C188.494 189.608 188.653 188.75 188.969 187.95C189.286 187.133 189.728 186.417 190.294 185.8C190.878 185.167 191.553 184.675 192.319 184.325C193.103 183.958 193.944 183.775 194.844 183.775C195.744 183.775 196.578 183.958 197.344 184.325C198.111 184.675 198.786 185.167 199.369 185.8C199.953 186.417 200.403 187.133 200.719 187.95C201.036 188.75 201.194 189.608 201.194 190.525C201.194 191.425 201.036 192.283 200.719 193.1C200.403 193.917 199.953 194.642 199.369 195.275C198.803 195.892 198.128 196.375 197.344 196.725C196.578 197.075 195.744 197.25 194.844 197.25ZM189.744 190.575C189.744 191.592 189.969 192.525 190.419 193.375C190.886 194.208 191.503 194.875 192.269 195.375C193.036 195.875 193.886 196.125 194.819 196.125C195.753 196.125 196.603 195.875 197.369 195.375C198.153 194.858 198.769 194.175 199.219 193.325C199.686 192.458 199.919 191.517 199.919 190.5C199.919 189.483 199.686 188.55 199.219 187.7C198.769 186.85 198.153 186.175 197.369 185.675C196.603 185.158 195.761 184.9 194.844 184.9C193.911 184.9 193.061 185.158 192.294 185.675C191.528 186.192 190.911 186.875 190.444 187.725C189.978 188.575 189.744 189.525 189.744 190.575ZM207.689 197.15C206.556 197.15 205.573 196.925 204.739 196.475C203.906 196.008 203.281 195.367 202.864 194.55L203.914 194.1C204.231 194.717 204.706 195.2 205.339 195.55C205.989 195.9 206.764 196.075 207.664 196.075C208.748 196.075 209.614 195.825 210.264 195.325C210.931 194.808 211.264 194.117 211.264 193.25C211.264 192.483 211.006 191.858 210.489 191.375C209.973 190.892 209.264 190.642 208.364 190.625H207.039V189.7H208.464C208.848 189.7 209.198 189.592 209.514 189.375C209.831 189.158 210.081 188.867 210.264 188.5C210.448 188.133 210.539 187.725 210.539 187.275C210.539 186.558 210.289 185.983 209.789 185.55C209.306 185.1 208.589 184.875 207.639 184.875C206.873 184.875 206.223 185.033 205.689 185.35C205.173 185.667 204.764 186.125 204.464 186.725L203.489 186.225C203.856 185.458 204.398 184.867 205.114 184.45C205.848 184.017 206.698 183.8 207.664 183.8C208.464 183.8 209.164 183.942 209.764 184.225C210.364 184.492 210.839 184.875 211.189 185.375C211.539 185.858 211.714 186.45 211.714 187.15C211.714 187.8 211.556 188.392 211.239 188.925C210.939 189.442 210.531 189.833 210.014 190.1C210.781 190.333 211.373 190.742 211.789 191.325C212.223 191.908 212.439 192.6 212.439 193.4C212.439 194.167 212.239 194.833 211.839 195.4C211.439 195.95 210.881 196.383 210.164 196.7C209.464 197 208.639 197.15 207.689 197.15ZM213.896 200V195.85H214.096C214.496 195.85 214.855 195.725 215.171 195.475C215.505 195.225 215.796 194.792 216.046 194.175C216.296 193.558 216.496 192.708 216.646 191.625C216.813 190.542 216.921 189.167 216.971 187.5L217.071 184H225.171V195.85H226.921V200H225.771V197H215.021V200H213.896ZM216.221 195.85H223.921V185.125H218.221L218.146 187.575C218.096 189.258 217.988 190.667 217.821 191.8C217.655 192.917 217.438 193.8 217.171 194.45C216.921 195.083 216.605 195.55 216.221 195.85ZM228.505 193.25C228.505 192.467 228.738 191.792 229.205 191.225C229.672 190.642 230.313 190.192 231.13 189.875C231.947 189.542 232.888 189.375 233.955 189.375C234.622 189.375 235.313 189.433 236.03 189.55C236.747 189.667 237.388 189.825 237.955 190.025V188.8C237.955 187.6 237.605 186.642 236.905 185.925C236.222 185.208 235.272 184.85 234.055 184.85C233.405 184.85 232.73 184.983 232.03 185.25C231.33 185.517 230.613 185.9 229.88 186.4L229.355 185.5C230.205 184.933 231.022 184.508 231.805 184.225C232.605 183.925 233.397 183.775 234.18 183.775C235.73 183.775 236.955 184.233 237.855 185.15C238.755 186.067 239.205 187.317 239.205 188.9V195.35C239.205 195.55 239.247 195.7 239.33 195.8C239.43 195.9 239.572 195.958 239.755 195.975V197C239.605 197.017 239.48 197.025 239.38 197.025C239.28 197.025 239.197 197.025 239.13 197.025C238.813 196.975 238.563 196.842 238.38 196.625C238.213 196.408 238.122 196.167 238.105 195.9V194.875C237.505 195.625 236.73 196.208 235.78 196.625C234.847 197.042 233.863 197.25 232.83 197.25C232.013 197.25 231.272 197.075 230.605 196.725C229.955 196.375 229.438 195.9 229.055 195.3C228.688 194.683 228.505 194 228.505 193.25ZM237.455 194.325C237.622 194.108 237.747 193.9 237.83 193.7C237.913 193.5 237.955 193.317 237.955 193.15V191C237.355 190.767 236.73 190.592 236.08 190.475C235.43 190.358 234.763 190.3 234.08 190.3C232.78 190.3 231.722 190.558 230.905 191.075C230.105 191.592 229.705 192.292 229.705 193.175C229.705 193.725 229.847 194.233 230.13 194.7C230.413 195.167 230.805 195.542 231.305 195.825C231.822 196.108 232.413 196.25 233.08 196.25C234.013 196.25 234.872 196.075 235.655 195.725C236.455 195.358 237.055 194.892 237.455 194.325ZM246.064 197V185.125H241.289V184H252.114V185.125H247.314V197H246.064ZM254.531 197V184H255.781V188.725H259.256C260.706 188.725 261.789 189.1 262.506 189.85C263.223 190.6 263.581 191.575 263.581 192.775C263.581 193.542 263.423 194.25 263.106 194.9C262.789 195.55 262.314 196.067 261.681 196.45C261.064 196.817 260.289 197 259.356 197H254.531ZM255.781 195.975H259.206C259.956 195.975 260.556 195.825 261.006 195.525C261.473 195.225 261.806 194.833 262.006 194.35C262.223 193.867 262.331 193.35 262.331 192.8C262.331 192.267 262.231 191.767 262.031 191.3C261.848 190.833 261.523 190.458 261.056 190.175C260.606 189.892 259.973 189.75 259.156 189.75H255.781V195.975ZM278.316 197.25C277.399 197.25 276.549 197.075 275.766 196.725C274.999 196.375 274.333 195.892 273.766 195.275C273.199 194.642 272.758 193.917 272.441 193.1C272.124 192.283 271.966 191.425 271.966 190.525C271.966 189.608 272.124 188.75 272.441 187.95C272.758 187.133 273.199 186.417 273.766 185.8C274.349 185.167 275.024 184.675 275.791 184.325C276.574 183.958 277.416 183.775 278.316 183.775C279.216 183.775 280.049 183.958 280.816 184.325C281.583 184.675 282.258 185.167 282.841 185.8C283.424 186.417 283.874 187.133 284.191 187.95C284.508 188.75 284.666 189.608 284.666 190.525C284.666 191.425 284.508 192.283 284.191 193.1C283.874 193.917 283.424 194.642 282.841 195.275C282.274 195.892 281.599 196.375 280.816 196.725C280.049 197.075 279.216 197.25 278.316 197.25ZM273.216 190.575C273.216 191.592 273.441 192.525 273.891 193.375C274.358 194.208 274.974 194.875 275.741 195.375C276.508 195.875 277.358 196.125 278.291 196.125C279.224 196.125 280.074 195.875 280.841 195.375C281.624 194.858 282.241 194.175 282.691 193.325C283.158 192.458 283.391 191.517 283.391 190.5C283.391 189.483 283.158 188.55 282.691 187.7C282.241 186.85 281.624 186.175 280.841 185.675C280.074 185.158 279.233 184.9 278.316 184.9C277.383 184.9 276.533 185.158 275.766 185.675C274.999 186.192 274.383 186.875 273.916 187.725C273.449 188.575 273.216 189.525 273.216 190.575ZM287.661 197V184H288.911V189.775H296.936V184H298.186V197H296.936V190.9H288.911V197H287.661ZM300.765 197.05V195.9C301.215 195.9 301.623 195.775 301.99 195.525C302.356 195.258 302.681 194.817 302.965 194.2C303.248 193.583 303.473 192.733 303.64 191.65C303.823 190.55 303.94 189.167 303.99 187.5L304.115 184H312.215V197H310.965V185.125H305.24L305.19 187.575C305.123 189.408 304.981 190.942 304.765 192.175C304.565 193.392 304.281 194.358 303.915 195.075C303.548 195.775 303.098 196.283 302.565 196.6C302.048 196.9 301.448 197.05 300.765 197.05ZM315.028 193.25C315.028 192.467 315.262 191.792 315.728 191.225C316.195 190.642 316.837 190.192 317.653 189.875C318.47 189.542 319.412 189.375 320.478 189.375C321.145 189.375 321.837 189.433 322.553 189.55C323.27 189.667 323.912 189.825 324.478 190.025V188.8C324.478 187.6 324.128 186.642 323.428 185.925C322.745 185.208 321.795 184.85 320.578 184.85C319.928 184.85 319.253 184.983 318.553 185.25C317.853 185.517 317.137 185.9 316.403 186.4L315.878 185.5C316.728 184.933 317.545 184.508 318.328 184.225C319.128 183.925 319.92 183.775 320.703 183.775C322.253 183.775 323.478 184.233 324.378 185.15C325.278 186.067 325.728 187.317 325.728 188.9V195.35C325.728 195.55 325.77 195.7 325.853 195.8C325.953 195.9 326.095 195.958 326.278 195.975V197C326.128 197.017 326.003 197.025 325.903 197.025C325.803 197.025 325.72 197.025 325.653 197.025C325.337 196.975 325.087 196.842 324.903 196.625C324.737 196.408 324.645 196.167 324.628 195.9V194.875C324.028 195.625 323.253 196.208 322.303 196.625C321.37 197.042 320.387 197.25 319.353 197.25C318.537 197.25 317.795 197.075 317.128 196.725C316.478 196.375 315.962 195.9 315.578 195.3C315.212 194.683 315.028 194 315.028 193.25ZM323.978 194.325C324.145 194.108 324.27 193.9 324.353 193.7C324.437 193.5 324.478 193.317 324.478 193.15V191C323.878 190.767 323.253 190.592 322.603 190.475C321.953 190.358 321.287 190.3 320.603 190.3C319.303 190.3 318.245 190.558 317.428 191.075C316.628 191.592 316.228 192.292 316.228 193.175C316.228 193.725 316.37 194.233 316.653 194.7C316.937 195.167 317.328 195.542 317.828 195.825C318.345 196.108 318.937 196.25 319.603 196.25C320.537 196.25 321.395 196.075 322.178 195.725C322.978 195.358 323.578 194.892 323.978 194.325ZM329.531 197V184.025H330.781V195.3L339.231 184H340.381V197H339.131V185.9L330.781 197H329.531ZM334.956 182.2C333.889 182.2 333.048 181.95 332.431 181.45C331.831 180.933 331.531 180.283 331.531 179.5H332.481C332.481 180.05 332.698 180.5 333.131 180.85C333.564 181.2 334.173 181.375 334.956 181.375C335.756 181.375 336.364 181.208 336.781 180.875C337.198 180.525 337.414 180.067 337.431 179.5H338.381C338.381 180.283 338.073 180.933 337.456 181.45C336.856 181.95 336.023 182.2 334.956 182.2ZM344.253 197V184H345.503V189.775H353.528V184H354.778V197H353.528V190.9H345.503V197H344.253ZM358.406 190.775V189.625H365.606V190.775H358.406ZM369.228 197V184H370.478L375.953 193.35L381.428 184H382.653V197H381.453V185.975L376.353 194.675H375.528L370.428 186V197H369.228ZM385.487 193.25C385.487 192.467 385.721 191.792 386.187 191.225C386.654 190.642 387.296 190.192 388.112 189.875C388.929 189.542 389.871 189.375 390.937 189.375C391.604 189.375 392.296 189.433 393.012 189.55C393.729 189.667 394.371 189.825 394.937 190.025V188.8C394.937 187.6 394.587 186.642 393.887 185.925C393.204 185.208 392.254 184.85 391.037 184.85C390.387 184.85 389.712 184.983 389.012 185.25C388.312 185.517 387.596 185.9 386.862 186.4L386.337 185.5C387.187 184.933 388.004 184.508 388.787 184.225C389.587 183.925 390.379 183.775 391.162 183.775C392.712 183.775 393.937 184.233 394.837 185.15C395.737 186.067 396.187 187.317 396.187 188.9V195.35C396.187 195.55 396.229 195.7 396.312 195.8C396.412 195.9 396.554 195.958 396.737 195.975V197C396.587 197.017 396.462 197.025 396.362 197.025C396.262 197.025 396.179 197.025 396.112 197.025C395.796 196.975 395.546 196.842 395.362 196.625C395.196 196.408 395.104 196.167 395.087 195.9V194.875C394.487 195.625 393.712 196.208 392.762 196.625C391.829 197.042 390.846 197.25 389.812 197.25C388.996 197.25 388.254 197.075 387.587 196.725C386.937 196.375 386.421 195.9 386.037 195.3C385.671 194.683 385.487 194 385.487 193.25ZM394.437 194.325C394.604 194.108 394.729 193.9 394.812 193.7C394.896 193.5 394.937 193.317 394.937 193.15V191C394.337 190.767 393.712 190.592 393.062 190.475C392.412 190.358 391.746 190.3 391.062 190.3C389.762 190.3 388.704 190.558 387.887 191.075C387.087 191.592 386.687 192.292 386.687 193.175C386.687 193.725 386.829 194.233 387.112 194.7C387.396 195.167 387.787 195.542 388.287 195.825C388.804 196.108 389.396 196.25 390.062 196.25C390.996 196.25 391.854 196.075 392.637 195.725C393.437 195.358 394.037 194.892 394.437 194.325ZM399.99 197V184H407.515V185.125H401.24V197H399.99ZM408.925 193.25C408.925 192.467 409.158 191.792 409.625 191.225C410.091 190.642 410.733 190.192 411.55 189.875C412.366 189.542 413.308 189.375 414.375 189.375C415.041 189.375 415.733 189.433 416.45 189.55C417.166 189.667 417.808 189.825 418.375 190.025V188.8C418.375 187.6 418.025 186.642 417.325 185.925C416.641 185.208 415.691 184.85 414.475 184.85C413.825 184.85 413.15 184.983 412.45 185.25C411.75 185.517 411.033 185.9 410.3 186.4L409.775 185.5C410.625 184.933 411.441 184.508 412.225 184.225C413.025 183.925 413.816 183.775 414.6 183.775C416.15 183.775 417.375 184.233 418.275 185.15C419.175 186.067 419.625 187.317 419.625 188.9V195.35C419.625 195.55 419.666 195.7 419.75 195.8C419.85 195.9 419.991 195.958 420.175 195.975V197C420.025 197.017 419.9 197.025 419.8 197.025C419.7 197.025 419.616 197.025 419.55 197.025C419.233 196.975 418.983 196.842 418.8 196.625C418.633 196.408 418.541 196.167 418.525 195.9V194.875C417.925 195.625 417.15 196.208 416.2 196.625C415.266 197.042 414.283 197.25 413.25 197.25C412.433 197.25 411.691 197.075 411.025 196.725C410.375 196.375 409.858 195.9 409.475 195.3C409.108 194.683 408.925 194 408.925 193.25ZM417.875 194.325C418.041 194.108 418.166 193.9 418.25 193.7C418.333 193.5 418.375 193.317 418.375 193.15V191C417.775 190.767 417.15 190.592 416.5 190.475C415.85 190.358 415.183 190.3 414.5 190.3C413.2 190.3 412.141 190.558 411.325 191.075C410.525 191.592 410.125 192.292 410.125 193.175C410.125 193.725 410.266 194.233 410.55 194.7C410.833 195.167 411.225 195.542 411.725 195.825C412.241 196.108 412.833 196.25 413.5 196.25C414.433 196.25 415.291 196.075 416.075 195.725C416.875 195.358 417.475 194.892 417.875 194.325ZM426.928 197.15C425.794 197.15 424.811 196.925 423.978 196.475C423.144 196.008 422.519 195.367 422.103 194.55L423.153 194.1C423.469 194.717 423.944 195.2 424.578 195.55C425.228 195.9 426.003 196.075 426.903 196.075C427.986 196.075 428.853 195.825 429.503 195.325C430.169 194.808 430.503 194.117 430.503 193.25C430.503 192.483 430.244 191.858 429.728 191.375C429.211 190.892 428.503 190.642 427.603 190.625H426.278V189.7H427.703C428.086 189.7 428.436 189.592 428.753 189.375C429.069 189.158 429.319 188.867 429.503 188.5C429.686 188.133 429.778 187.725 429.778 187.275C429.778 186.558 429.528 185.983 429.028 185.55C428.544 185.1 427.828 184.875 426.878 184.875C426.111 184.875 425.461 185.033 424.928 185.35C424.411 185.667 424.003 186.125 423.703 186.725L422.728 186.225C423.094 185.458 423.636 184.867 424.353 184.45C425.086 184.017 425.936 183.8 426.903 183.8C427.703 183.8 428.403 183.942 429.003 184.225C429.603 184.492 430.078 184.875 430.428 185.375C430.778 185.858 430.953 186.45 430.953 187.15C430.953 187.8 430.794 188.392 430.478 188.925C430.178 189.442 429.769 189.833 429.253 190.1C430.019 190.333 430.611 190.742 431.028 191.325C431.461 191.908 431.678 192.6 431.678 193.4C431.678 194.167 431.478 194.833 431.078 195.4C430.678 195.95 430.119 196.383 429.403 196.7C428.703 197 427.878 197.15 426.928 197.15ZM434.682 197V184.025H435.932V195.3L444.382 184H445.532V197H444.282V185.9L435.932 197H434.682ZM449.404 197V184H450.654V189.775H458.679V184H459.929V197H458.679V190.9H450.654V197H449.404ZM470.254 197V184.025H471.504V195.3L479.954 184H481.104V197H479.854V185.9L471.504 197H470.254ZM494.721 197V185.125H489.946V184H500.771V185.125H495.971V197H494.721ZM501.766 197V194.875H502.866V197H501.766ZM505.01 200V195.85H505.21C505.61 195.85 505.968 195.725 506.285 195.475C506.618 195.225 506.91 194.792 507.16 194.175C507.41 193.558 507.61 192.708 507.76 191.625C507.926 190.542 508.035 189.167 508.085 187.5L508.185 184H516.285V195.85H518.035V200H516.885V197H506.135V200H505.01ZM507.335 195.85H515.035V185.125H509.335L509.26 187.575C509.21 189.258 509.101 190.667 508.935 191.8C508.768 192.917 508.551 193.8 508.285 194.45C508.035 195.083 507.718 195.55 507.335 195.85Z" fill="white"/>
</svg>
